# This file uses centimeters as units for non-parametric coordinates.

mtllib bee2.mtl
g default
v 53.719463 0.270598 16.578104
v 53.448864 0.382683 16.578104
v 53.178265 0.270598 16.578104
v 53.066181 0.000000 16.578102
v 53.178265 -0.270598 16.578102
v 53.448864 -0.382683 16.578102
v 53.719463 -0.270598 16.578102
v 53.831547 0.000000 16.578102
v 53.948864 0.500000 16.851391
v 53.448864 0.707107 16.851391
v 52.948864 0.500000 16.851391
v 52.741756 0.000000 16.851391
v 52.948864 -0.500000 16.851391
v 53.448864 -0.707107 16.851393
v 53.948864 -0.500000 16.851391
v 54.155972 0.000000 16.851391
v 54.102146 0.653281 17.260395
v 53.448864 0.923879 17.260395
v 52.795582 0.653281 17.260395
v 52.524986 0.000000 17.260395
v 52.795582 -0.653281 17.260397
v 53.448864 -0.923879 17.260395
v 54.102146 -0.653281 17.260397
v 54.372742 0.000000 17.260395
v 54.102146 0.653281 18.363516
v 53.448864 0.923879 18.363516
v 52.795582 0.653281 18.363516
v 52.524986 0.000000 18.363516
v 52.795582 -0.653281 18.363518
v 53.448864 -0.923879 18.363516
v 54.102146 -0.653281 18.363518
v 54.372742 0.000000 18.363516
v 53.948864 0.500000 18.861704
v 53.448864 0.707107 18.861704
v 52.948864 0.500000 18.861704
v 52.741756 0.000000 18.861704
v 52.948864 -0.500000 18.861704
v 53.448864 -0.707107 18.861706
v 53.948864 -0.500000 18.861704
v 54.155972 0.000000 18.861704
v 53.719463 0.270598 19.170269
v 53.448864 0.382683 19.170269
v 53.178265 0.270598 19.170269
v 53.066181 0.000000 19.170269
v 53.178265 -0.270598 19.170269
v 53.448864 -0.382683 19.170269
v 53.719463 -0.270598 19.170269
v 53.831547 0.000000 19.170269
v 53.178265 0.000000 19.245705
v 53.448864 0.000000 19.314302
v 53.719463 0.000000 19.245705
v 53.448864 0.255122 16.502188
v 53.268467 0.180399 16.502188
v 53.629265 0.180399 16.502188
v 53.703987 0.000000 16.502188
v 53.629265 -0.180399 16.502188
v 53.448864 -0.255122 16.502190
v 53.268467 -0.180399 16.502188
v 53.193745 0.000000 16.502188
v 53.448864 0.000000 15.593383
v 54.139824 0.690961 17.617916
v 54.139824 0.690961 17.953213
v 53.448864 0.977166 17.617916
v 53.448864 0.977166 17.953213
v 52.757904 0.690961 17.617916
v 52.757904 0.690961 17.953213
v 52.471699 0.000000 17.617914
v 52.471699 -0.000000 17.953213
v 52.757904 -0.690961 17.617914
v 52.757904 -0.690961 17.953211
v 53.448864 -0.977166 17.617914
v 53.448864 -0.977166 17.953211
v 54.139824 -0.690961 17.617914
v 54.139824 -0.690961 17.953211
v 54.426029 0.000000 17.617914
v 54.426029 0.000000 17.953213
v 53.894279 0.656169 18.385775
v 55.489788 1.040869 17.818272
v 53.762310 0.744608 18.126255
v 55.232677 1.118554 17.553774
v 55.486221 0.878917 18.230053
v 55.202705 1.056225 17.704857
v 54.996403 1.149111 17.414770
v 55.629517 0.968514 18.038811
v 55.169743 0.834635 18.261011
v 54.698723 1.051539 17.586391
v 55.091347 1.151387 17.433537
v 53.224625 0.656169 18.385775
v 51.629116 1.040869 17.818272
v 53.356590 0.744608 18.126255
v 51.886227 1.118555 17.553774
v 51.632683 0.878917 18.230053
v 51.916199 1.056225 17.704857
v 52.122501 1.149111 17.414772
v 51.489388 0.968514 18.038811
v 51.949162 0.834635 18.261011
v 52.420181 1.051539 17.586391
v 52.027557 1.151387 17.433537
vt 0.000000 0.125000
vt 0.125000 0.125000
vt 0.250000 0.125000
vt 0.375000 0.125000
vt 0.500000 0.125000
vt 0.625000 0.125000
vt 0.750000 0.125000
vt 0.875000 0.125000
vt 1.000000 0.125000
vt 0.000000 0.250000
vt 0.125000 0.250000
vt 0.250000 0.250000
vt 0.375000 0.250000
vt 0.500000 0.250000
vt 0.625000 0.250000
vt 0.750000 0.250000
vt 0.875000 0.250000
vt 1.000000 0.250000
vt 0.000000 0.375000
vt 1.000000 0.625000
vt 0.000000 0.750000
vt 0.125000 0.750000
vt 0.250000 0.750000
vt 0.375000 0.750000
vt 0.500000 0.750000
vt 0.625000 0.750000
vt 0.750000 0.750000
vt 0.875000 0.750000
vt 1.000000 0.750000
vt 0.000000 0.875000
vt 0.125000 0.875000
vt 0.250000 0.875000
vt 0.375000 0.875000
vt 0.500000 0.875000
vt 0.625000 0.875000
vt 0.750000 0.875000
vt 0.875000 0.875000
vt 1.000000 0.875000
vt 0.375000 0.875000
vt 0.375000 0.875000
vt 0.375000 0.875000
vt 0.250000 0.125000
vt 0.125000 0.125000
vt 1.000000 0.125000
vt 0.875000 0.125000
vt 0.750000 0.125000
vt 0.625000 0.125000
vt 0.500000 0.125000
vt 0.375000 0.125000
vt 0.562500 0.125000
vt 1.000000 0.462504
vt 0.000000 0.537496
vt 0.125000 0.375000
vt 0.000000 0.462504
vt 0.250000 0.375000
vt 0.125000 0.462504
vt 0.375000 0.375000
vt 0.250000 0.462504
vt 0.500000 0.375000
vt 0.375000 0.462504
vt 0.625000 0.375000
vt 0.500000 0.462504
vt 0.750000 0.375000
vt 0.625000 0.462504
vt 0.875000 0.375000
vt 0.750000 0.462504
vt 1.000000 0.375000
vt 0.875000 0.462504
vt 0.125000 0.537496
vt 0.000000 0.625000
vt 0.250000 0.537496
vt 0.125000 0.625000
vt 0.375000 0.537496
vt 0.250000 0.625000
vt 0.500000 0.537497
vt 0.375000 0.625000
vt 0.625000 0.537496
vt 0.500000 0.625000
vt 0.750000 0.537496
vt 0.625000 0.625000
vt 0.875000 0.537496
vt 0.750000 0.625000
vt 1.000000 0.537497
vt 0.875000 0.625000
vt 0.613202 0.000000
vt 0.580884 0.023979
vt 0.605803 0.000000
vt 0.605995 0.250000
vt 0.571670 0.217912
vt 0.625000 0.250000
vt 0.625000 0.118334
vt 0.625000 0.000000
vt 0.375000 0.000000
vt 0.375000 0.250000
vt 0.582740 0.250000
vt 0.613202 0.000000
vt 0.605803 0.000000
vt 0.580884 0.023979
vt 0.605995 0.250000
vt 0.625000 0.250000
vt 0.571670 0.217912
vt 0.625000 0.118334
vt 0.625000 0.000000
vt 0.375000 0.000000
vt 0.375000 0.250000
vt 0.582740 0.250000
vn 0.257835 0.622477 -0.738947
vn 0.257835 0.622477 -0.738947
vn 0.257835 0.622477 -0.738947
vn 0.257835 0.622477 -0.738947
vn -0.257836 0.622474 -0.738950
vn -0.257836 0.622474 -0.738950
vn -0.257836 0.622474 -0.738950
vn -0.257836 0.622474 -0.738950
vn -0.622476 0.257836 -0.738948
vn -0.622476 0.257836 -0.738948
vn -0.622476 0.257836 -0.738948
vn -0.622476 0.257836 -0.738948
vn -0.622478 -0.257836 -0.738947
vn -0.622478 -0.257836 -0.738947
vn -0.622478 -0.257836 -0.738947
vn -0.622478 -0.257836 -0.738947
vn -0.257833 -0.622481 -0.738945
vn -0.257833 -0.622481 -0.738945
vn -0.257833 -0.622481 -0.738945
vn -0.257833 -0.622481 -0.738945
vn 0.257835 -0.622477 -0.738947
vn 0.257835 -0.622477 -0.738947
vn 0.257835 -0.622477 -0.738947
vn 0.257835 -0.622477 -0.738947
vn 0.622475 -0.257841 -0.738947
vn 0.622475 -0.257841 -0.738947
vn 0.622475 -0.257841 -0.738947
vn 0.622475 -0.257841 -0.738947
vn 0.622474 0.257836 -0.738950
vn 0.622474 0.257836 -0.738950
vn 0.622474 0.257836 -0.738949
vn 0.622474 0.257836 -0.738949
vn 0.343694 0.829746 -0.439769
vn 0.343694 0.829746 -0.439769
vn 0.343694 0.829746 -0.439769
vn 0.343694 0.829746 -0.439769
vn -0.343691 0.829748 -0.439766
vn -0.343691 0.829748 -0.439766
vn -0.343691 0.829748 -0.439766
vn -0.343691 0.829748 -0.439766
vn -0.829747 0.343695 -0.439765
vn -0.829747 0.343695 -0.439765
vn -0.829747 0.343695 -0.439765
vn -0.829747 0.343695 -0.439765
vn -0.829747 -0.343696 -0.439765
vn -0.829747 -0.343696 -0.439765
vn -0.829747 -0.343696 -0.439765
vn -0.829747 -0.343696 -0.439765
vn -0.343694 -0.829746 -0.439769
vn -0.343694 -0.829746 -0.439769
vn -0.343694 -0.829746 -0.439769
vn -0.343694 -0.829746 -0.439769
vn 0.343692 -0.829746 -0.439769
vn 0.343692 -0.829746 -0.439769
vn 0.343692 -0.829746 -0.439769
vn 0.343692 -0.829746 -0.439769
vn 0.829748 -0.343695 -0.439764
vn 0.829748 -0.343695 -0.439764
vn 0.829748 -0.343695 -0.439764
vn 0.829748 -0.343695 -0.439764
vn 0.829747 0.343696 -0.439765
vn 0.829747 0.343696 -0.439765
vn 0.829747 0.343696 -0.439765
vn 0.829747 0.343696 -0.439765
vn 0.355068 0.857208 0.372991
vn 0.355068 0.857208 0.372991
vn 0.355068 0.857208 0.372991
vn 0.355068 0.857208 0.372991
vn -0.355066 0.857209 0.372989
vn -0.355066 0.857209 0.372989
vn -0.355066 0.857209 0.372989
vn -0.355066 0.857209 0.372989
vn -0.857208 0.355068 0.372988
vn -0.857208 0.355068 0.372988
vn -0.857208 0.355068 0.372988
vn -0.857208 0.355068 0.372988
vn -0.857206 -0.355074 0.372989
vn -0.857206 -0.355074 0.372989
vn -0.857206 -0.355074 0.372989
vn -0.857206 -0.355074 0.372989
vn -0.355067 -0.857208 0.372991
vn -0.355067 -0.857208 0.372991
vn -0.355067 -0.857208 0.372991
vn -0.355067 -0.857208 0.372991
vn 0.355065 -0.857209 0.372989
vn 0.355065 -0.857209 0.372989
vn 0.355065 -0.857209 0.372989
vn 0.355065 -0.857209 0.372989
vn 0.857207 -0.355070 0.372990
vn 0.857207 -0.355070 0.372990
vn 0.857207 -0.355070 0.372990
vn 0.857207 -0.355070 0.372990
vn 0.857208 0.355069 0.372989
vn 0.857208 0.355069 0.372989
vn 0.857208 0.355069 0.372989
vn 0.857208 0.355069 0.372989
vn 0.274501 0.662699 0.696763
vn 0.274501 0.662699 0.696763
vn 0.274501 0.662699 0.696763
vn 0.274501 0.662699 0.696763
vn -0.274500 0.662705 0.696758
vn -0.274500 0.662705 0.696758
vn -0.274500 0.662705 0.696758
vn -0.274500 0.662705 0.696758
vn -0.662702 0.274501 0.696761
vn -0.662702 0.274501 0.696761
vn -0.662702 0.274501 0.696761
vn -0.662702 0.274501 0.696761
vn -0.662704 -0.274500 0.696759
vn -0.662704 -0.274500 0.696759
vn -0.662704 -0.274500 0.696759
vn -0.662704 -0.274500 0.696759
vn -0.274497 -0.662700 0.696764
vn -0.274497 -0.662700 0.696764
vn -0.274496 -0.662700 0.696764
vn -0.274497 -0.662700 0.696764
vn 0.274501 -0.662699 0.696763
vn 0.274501 -0.662699 0.696763
vn 0.274501 -0.662699 0.696763
vn 0.274501 -0.662699 0.696763
vn 0.662704 -0.274500 0.696759
vn 0.662704 -0.274500 0.696759
vn 0.662704 -0.274500 0.696759
vn 0.662704 -0.274500 0.696759
vn 0.662702 0.274501 0.696761
vn 0.662702 0.274501 0.696761
vn 0.662702 0.274501 0.696761
vn 0.662702 0.274501 0.696761
vn -0.543989 0.225306 0.808278
vn -0.543989 0.225306 0.808278
vn -0.543989 0.225306 0.808278
vn 0.182973 0.313082 0.931934
vn 0.182973 0.313082 0.931934
vn 0.182973 0.313082 0.931934
vn 0.182973 0.313082 0.931934
vn -0.182968 0.313082 0.931935
vn -0.182968 0.313082 0.931935
vn -0.182968 0.313082 0.931935
vn -0.182968 0.313082 0.931935
vn 0.543985 0.225331 0.808273
vn 0.543985 0.225331 0.808273
vn 0.543985 0.225331 0.808274
vn -0.543989 -0.225306 0.808278
vn -0.543989 -0.225306 0.808278
vn -0.543989 -0.225306 0.808278
vn -0.182971 -0.313082 0.931934
vn -0.182971 -0.313082 0.931934
vn -0.182971 -0.313082 0.931934
vn -0.182971 -0.313082 0.931934
vn 0.182971 -0.313082 0.931934
vn 0.182971 -0.313082 0.931934
vn 0.182971 -0.313082 0.931934
vn 0.182971 -0.313082 0.931934
vn 0.543985 -0.225331 0.808273
vn 0.543985 -0.225331 0.808274
vn 0.543985 -0.225331 0.808273
vn -0.207238 0.500314 -0.840678
vn -0.207238 0.500314 -0.840678
vn -0.207238 0.500314 -0.840677
vn -0.207238 0.500314 -0.840678
vn 0.207234 0.500314 -0.840678
vn 0.207234 0.500314 -0.840678
vn 0.207234 0.500314 -0.840678
vn 0.207234 0.500314 -0.840678
vn 0.500303 0.207246 -0.840682
vn 0.500303 0.207246 -0.840682
vn 0.500303 0.207246 -0.840682
vn 0.500303 0.207246 -0.840682
vn 0.500303 -0.207246 -0.840682
vn 0.500303 -0.207246 -0.840682
vn 0.500303 -0.207246 -0.840682
vn 0.500303 -0.207246 -0.840682
vn 0.207232 -0.500304 -0.840685
vn 0.207232 -0.500304 -0.840685
vn 0.207232 -0.500304 -0.840685
vn 0.207232 -0.500304 -0.840685
vn -0.207237 -0.500293 -0.840690
vn -0.207237 -0.500293 -0.840690
vn -0.207237 -0.500293 -0.840690
vn -0.207237 -0.500293 -0.840690
vn -0.500294 -0.207228 -0.840692
vn -0.500294 -0.207228 -0.840692
vn -0.500294 -0.207228 -0.840692
vn -0.500294 -0.207228 -0.840692
vn -0.500293 0.207241 -0.840689
vn -0.500293 0.207241 -0.840689
vn -0.500293 0.207241 -0.840689
vn -0.500293 0.207241 -0.840689
vn -0.370427 0.894293 -0.251045
vn -0.370427 0.894293 -0.251045
vn -0.370427 0.894293 -0.251045
vn 0.370426 0.894292 -0.251050
vn 0.370426 0.894292 -0.251050
vn 0.370426 0.894292 -0.251050
vn 0.894292 0.370427 -0.251048
vn 0.894292 0.370428 -0.251049
vn 0.894292 0.370428 -0.251048
vn 0.894292 -0.370428 -0.251049
vn 0.894292 -0.370427 -0.251048
vn 0.894292 -0.370428 -0.251048
vn 0.370424 -0.894293 -0.251050
vn 0.370424 -0.894293 -0.251050
vn 0.370424 -0.894293 -0.251050
vn -0.370422 -0.894295 -0.251045
vn -0.370422 -0.894295 -0.251045
vn -0.370422 -0.894295 -0.251045
vn -0.894307 -0.370392 -0.251049
vn -0.894307 -0.370392 -0.251049
vn -0.894307 -0.370392 -0.251049
vn -0.894307 0.370392 -0.251049
vn -0.894307 0.370392 -0.251049
vn -0.894307 0.370392 -0.251049
vn 0.923879 0.382684 0.000000
vn 0.923879 0.382684 0.000000
vn 0.923879 0.382684 0.000000
vn 0.923879 0.382684 0.000000
vn 0.382685 0.923879 0.000000
vn 0.382685 0.923879 0.000000
vn 0.382685 0.923879 0.000000
vn 0.382685 0.923879 0.000000
vn -0.382683 0.923880 0.000000
vn -0.382683 0.923880 0.000000
vn -0.382683 0.923880 0.000000
vn -0.382683 0.923880 0.000000
vn -0.923879 0.382686 0.000000
vn -0.923879 0.382686 0.000000
vn -0.923879 0.382686 0.000000
vn -0.923879 0.382686 0.000000
vn -0.923880 -0.382682 -0.000000
vn -0.923880 -0.382682 -0.000000
vn -0.923880 -0.382682 -0.000000
vn -0.923880 -0.382682 -0.000000
vn -0.382683 -0.923880 0.000000
vn -0.382683 -0.923880 0.000000
vn -0.382683 -0.923880 0.000000
vn -0.382683 -0.923880 0.000000
vn 0.382684 -0.923879 0.000000
vn 0.382684 -0.923879 0.000000
vn 0.382684 -0.923879 0.000000
vn 0.382684 -0.923879 0.000000
vn 0.923880 -0.382682 0.000000
vn 0.923880 -0.382683 0.000000
vn 0.923880 -0.382683 0.000000
vn 0.923880 -0.382682 0.000000
vn 0.379107 0.915243 -0.136411
vn 0.379107 0.915243 -0.136411
vn 0.379107 0.915243 -0.136411
vn 0.379107 0.915243 -0.136411
vn -0.379104 0.915245 -0.136410
vn -0.379104 0.915245 -0.136410
vn -0.379104 0.915244 -0.136410
vn -0.379104 0.915244 -0.136410
vn -0.915247 0.379096 -0.136412
vn -0.915247 0.379096 -0.136412
vn -0.915247 0.379096 -0.136412
vn -0.915247 0.379096 -0.136412
vn -0.915245 -0.379103 -0.136412
vn -0.915245 -0.379103 -0.136412
vn -0.915245 -0.379103 -0.136412
vn -0.915245 -0.379103 -0.136412
vn -0.379106 -0.915243 -0.136413
vn -0.379106 -0.915243 -0.136413
vn -0.379106 -0.915243 -0.136413
vn -0.379106 -0.915243 -0.136413
vn 0.379105 -0.915244 -0.136411
vn 0.379105 -0.915244 -0.136411
vn 0.379105 -0.915244 -0.136411
vn 0.379105 -0.915244 -0.136411
vn 0.915244 -0.379104 -0.136412
vn 0.915244 -0.379104 -0.136412
vn 0.915244 -0.379104 -0.136412
vn 0.915244 -0.379104 -0.136412
vn 0.915245 0.379102 -0.136412
vn 0.915245 0.379102 -0.136412
vn 0.915245 0.379102 -0.136412
vn 0.915245 0.379102 -0.136412
vn 0.379956 0.917301 0.119130
vn 0.379956 0.917301 0.119130
vn 0.379956 0.917301 0.119130
vn 0.379956 0.917301 0.119130
vn -0.379957 0.917301 0.119130
vn -0.379957 0.917301 0.119130
vn -0.379957 0.917301 0.119130
vn -0.379957 0.917301 0.119130
vn -0.917302 0.379953 0.119130
vn -0.917302 0.379953 0.119131
vn -0.917302 0.379953 0.119130
vn -0.917302 0.379953 0.119130
vn -0.917303 -0.379952 0.119130
vn -0.917303 -0.379952 0.119130
vn -0.917303 -0.379952 0.119130
vn -0.917303 -0.379952 0.119130
vn -0.379957 -0.917301 0.119129
vn -0.379957 -0.917301 0.119129
vn -0.379957 -0.917301 0.119129
vn -0.379957 -0.917301 0.119129
vn 0.379959 -0.917300 0.119129
vn 0.379959 -0.917300 0.119129
vn 0.379959 -0.917300 0.119129
vn 0.379959 -0.917300 0.119129
vn 0.917306 -0.379946 0.119130
vn 0.917305 -0.379946 0.119130
vn 0.917306 -0.379946 0.119130
vn 0.917305 -0.379946 0.119130
vn 0.917302 0.379954 0.119131
vn 0.917302 0.379954 0.119131
vn 0.917302 0.379954 0.119131
vn 0.917302 0.379954 0.119131
vn -0.094096 0.926763 0.363671
vn -0.094096 0.926763 0.363671
vn -0.094096 0.926763 0.363671
vn -0.094103 0.926760 0.363676
vn -0.094103 0.926760 0.363676
vn -0.094103 0.926760 0.363676
vn -0.094105 0.926758 0.363682
vn -0.094105 0.926758 0.363682
vn -0.094105 0.926758 0.363682
vn -0.094098 0.926762 0.363673
vn -0.094098 0.926762 0.363673
vn -0.094098 0.926762 0.363673
vn -0.094101 0.926761 0.363673
vn -0.094101 0.926761 0.363673
vn -0.094101 0.926761 0.363673
vn -0.094101 0.926762 0.363672
vn -0.094101 0.926762 0.363672
vn -0.094101 0.926762 0.363672
vn -0.094101 0.926762 0.363672
vn -0.094112 0.926756 0.363684
vn -0.094112 0.926756 0.363684
vn -0.094112 0.926756 0.363684
vn -0.094095 0.926765 0.363665
vn -0.094095 0.926765 0.363665
vn -0.094095 0.926765 0.363665
vn 0.094107 0.926757 0.363683
vn 0.094107 0.926757 0.363683
vn 0.094107 0.926757 0.363683
vn 0.094104 0.926758 0.363681
vn 0.094104 0.926758 0.363681
vn 0.094104 0.926758 0.363681
vn 0.094106 0.926759 0.363678
vn 0.094106 0.926759 0.363678
vn 0.094106 0.926759 0.363678
vn 0.094094 0.926762 0.363673
vn 0.094094 0.926762 0.363673
vn 0.094094 0.926762 0.363673
vn 0.094102 0.926760 0.363677
vn 0.094102 0.926760 0.363677
vn 0.094102 0.926760 0.363677
vn 0.094101 0.926762 0.363672
vn 0.094101 0.926762 0.363672
vn 0.094101 0.926762 0.363672
vn 0.094101 0.926762 0.363672
vn 0.094091 0.926754 0.363696
vn 0.094091 0.926754 0.363696
vn 0.094091 0.926754 0.363696
vn 0.094099 0.926764 0.363669
vn 0.094099 0.926764 0.363669
vn 0.094099 0.926764 0.363669
s off
g bee2
usemtl initialShadingGroup
f 1/1/1 2/2/2 10/11/3 9/10/4
f 2/2/5 3/3/6 11/12/7 10/11/8
f 3/3/9 4/4/10 12/13/11 11/12/12
f 4/4/13 5/5/14 13/14/15 12/13/16
f 5/5/17 6/6/18 14/15/19 13/14/20
f 6/6/21 7/7/22 15/16/23 14/15/24
f 7/7/25 8/8/26 16/17/27 15/16/28
f 8/8/29 1/9/30 9/18/31 16/17/32
f 9/10/33 10/11/34 18/53/35 17/19/36
f 10/11/37 11/12/38 19/55/39 18/53/40
f 11/12/41 12/13/42 20/57/43 19/55/44
f 12/13/45 13/14/46 21/59/47 20/57/48
f 13/14/49 14/15/50 22/61/51 21/59/52
f 14/15/53 15/16/54 23/63/55 22/61/56
f 15/16/57 16/17/58 24/65/59 23/63/60
f 16/17/61 9/18/62 17/67/63 24/65/64
f 25/70/65 26/72/66 34/22/67 33/21/68
f 26/72/69 27/74/70 35/23/71 34/22/72
f 27/74/73 28/76/74 36/24/75 35/23/76
f 28/76/77 29/78/78 37/25/79 36/24/80
f 29/78/81 30/80/82 38/26/83 37/25/84
f 30/80/85 31/82/86 39/27/87 38/26/88
f 31/82/89 32/84/90 40/28/91 39/27/92
f 32/84/93 25/20/94 33/29/95 40/28/96
f 33/21/97 34/22/98 42/31/99 41/30/100
f 34/22/101 35/23/102 43/32/103 42/31/104
f 35/23/105 36/24/106 44/33/107 43/32/108
f 36/24/109 37/25/110 45/34/111 44/33/112
f 37/25/113 38/26/114 46/35/115 45/34/116
f 38/26/117 39/27/118 47/36/119 46/35/120
f 39/27/121 40/28/122 48/37/123 47/36/124
f 40/28/125 33/29/126 41/38/127 48/37/128
f 44/33/129 49/39/130 43/32/131
f 50/40/132 51/41/133 41/30/134 42/31/135
f 49/39/136 50/40/137 42/31/138 43/32/139
f 48/37/140 41/30/141 51/41/142
f 45/34/143 49/39/144 44/33/145
f 46/35/146 50/40/147 49/39/148 45/34/149
f 47/36/150 51/41/151 50/40/152 46/35/153
f 48/37/154 51/41/155 47/36/156
f 3/3/157 2/2/158 52/43/159 53/42/160
f 2/2/161 1/9/162 54/44/163 52/43/164
f 1/9/165 8/8/166 55/45/167 54/44/168
f 8/8/169 7/7/170 56/46/171 55/45/172
f 7/7/173 6/6/174 57/47/175 56/46/176
f 6/6/177 5/5/178 58/48/179 57/47/180
f 5/5/181 4/4/182 59/49/183 58/48/184
f 4/4/185 3/3/186 53/42/187 59/49/188
f 53/42/189 52/43/190 60/50/191
f 52/43/192 54/44/193 60/50/194
f 54/44/195 55/45/196 60/50/197
f 55/45/198 56/46/199 60/50/200
f 56/46/201 57/47/202 60/50/203
f 57/47/204 58/48/205 60/50/206
f 58/48/207 59/49/208 60/50/209
f 59/49/210 53/42/211 60/50/212
f 61/51/213 62/83/214 76/81/215 75/68/216
f 62/52/217 61/54/218 63/56/219 64/69/220
f 64/69/221 63/56/222 65/58/223 66/71/224
f 66/71/225 65/58/226 67/60/227 68/73/228
f 68/73/229 67/60/230 69/62/231 70/75/232
f 70/75/233 69/62/234 71/64/235 72/77/236
f 72/77/237 71/64/238 73/66/239 74/79/240
f 74/79/241 73/66/242 75/68/243 76/81/244
f 17/19/245 18/53/246 63/56/247 61/54/248
f 18/53/249 19/55/250 65/58/251 63/56/252
f 19/55/253 20/57/254 67/60/255 65/58/256
f 20/57/257 21/59/258 69/62/259 67/60/260
f 21/59/261 22/61/262 71/64/263 69/62/264
f 22/61/265 23/63/266 73/66/267 71/64/268
f 23/63/269 24/65/270 75/68/271 73/66/272
f 24/65/273 17/67/274 61/51/275 75/68/276
f 62/52/277 64/69/278 26/72/279 25/70/280
f 64/69/281 66/71/282 27/74/283 26/72/284
f 66/71/285 68/73/286 28/76/287 27/74/288
f 68/73/289 70/75/290 29/78/291 28/76/292
f 70/75/293 72/77/294 30/80/295 29/78/296
f 72/77/297 74/79/298 31/82/299 30/80/300
f 74/79/301 76/81/302 32/84/303 31/82/304
f 76/81/305 62/83/306 25/20/307 32/84/308
f 84/85/309 85/86/310 81/87/311
f 87/88/312 86/89/313 80/90/314
f 82/91/315 85/86/316 78/92/317
f 78/92/318 85/86/319 84/85/320
f 86/89/321 85/86/322 82/91/323
f 77/93/324 85/86/325 86/89/326 79/94/327
f 83/95/328 86/89/329 87/88/330
f 80/90/331 86/89/332 82/91/333
f 95/96/334 92/97/335 96/98/336
f 98/99/337 91/100/338 97/101/339
f 93/102/340 89/103/341 96/98/342
f 89/103/343 95/96/344 96/98/345
f 97/101/346 93/102/347 96/98/348
f 88/104/349 90/105/350 97/101/351 96/98/352
f 94/106/353 98/99/354 97/101/355
f 91/100/356 93/102/357 97/101/358
