# This file uses centimeters as units for non-parametric coordinates.

mtllib grass2.mtl
g default
v 18.844154 -0.219913 -0.384998
v 18.658514 1.718417 -0.939259
v 18.499670 -0.219913 -0.266559
v 18.756893 1.441664 -0.746872
v 18.689823 1.500510 -0.678805
v 18.841810 1.003629 -0.596848
v 18.673458 1.081495 -0.462090
v 18.863575 0.536853 -0.516130
v 18.625940 0.536110 -0.331708
v 18.489302 -0.219913 -0.327401
v 18.833786 -0.219913 -0.445840
v 18.850183 0.521548 -0.575280
v 18.612549 0.520805 -0.390858
v 18.744173 1.381815 -0.767117
v 18.677103 1.440662 -0.699049
v 18.825277 0.967393 -0.643515
v 18.656925 1.045260 -0.508757
v 18.781565 -0.219913 -0.160019
v 16.756186 1.855610 -0.438074
v 18.588551 -0.219913 0.827966
v 17.303169 2.301320 -0.236756
v 17.250448 2.374493 -0.012044
v 18.122238 2.015393 -0.061788
v 17.934664 2.121929 0.431818
v 18.563440 1.021493 -0.112729
v 18.444059 1.021493 0.655391
v 18.492369 -0.219913 0.805081
v 18.685381 -0.219913 -0.182903
v 18.471045 0.992301 -0.142473
v 18.351665 0.992302 0.625647
v 17.248745 2.212682 -0.253681
v 17.196026 2.285855 -0.028970
v 18.043814 1.962112 -0.096415
v 17.856239 2.068649 0.397190
v 19.095018 -0.219913 0.500000
v 21.001530 3.019782 -0.516979
v 18.979403 -0.219913 -0.500000
v 20.302851 2.732383 0.181252
v 20.192101 2.805556 -0.021253
v 19.813812 2.015393 0.486300
v 19.623968 2.121929 -0.006437
v 19.356331 1.021493 0.550985
v 19.114347 1.021493 -0.187734
v 19.077995 -0.219913 -0.507353
v 19.193611 -0.219913 0.492647
v 19.452168 0.992301 0.535589
v 19.210184 0.992302 -0.203130
v 20.354673 2.643745 0.157524
v 20.243921 2.716918 -0.044981
v 19.895319 1.962112 0.459731
v 19.705475 2.068649 -0.033006
v 18.332445 -0.219913 0.883744
v 18.063271 1.164189 2.472558
v 18.868338 -0.219913 1.087024
v 18.175716 1.396976 2.012043
v 18.296923 1.453317 2.065036
v 18.320890 1.176820 1.394365
v 18.597099 1.258850 1.565751
v 18.341995 0.727681 1.053501
v 18.760996 0.727681 1.188040
v 18.848166 -0.219913 1.159427
v 18.312273 -0.219913 0.956147
v 18.318291 0.705205 1.122618
v 18.737293 0.705205 1.257156
v 18.162086 1.328727 2.052789
v 18.283293 1.385068 2.105780
v 18.295542 1.135795 1.452504
v 18.571749 1.217825 1.623890
v 18.636787 -0.219913 0.765464
v 19.899920 1.443121 1.238981
v 19.037544 -0.219913 0.355710
v 19.367970 1.289401 1.105975
v 19.426704 1.329078 0.932346
v 19.022577 1.018425 0.948912
v 19.187952 1.100354 0.669742
v 18.796181 0.719506 0.824649
v 19.087160 0.719506 0.494507
v 19.095823 -0.219913 0.403171
v 18.695068 -0.219913 0.812924
v 18.850035 0.697030 0.874031
v 19.141014 0.697030 0.543889
v 19.433035 1.249692 1.132312
v 19.491766 1.289369 0.958682
v 19.081209 0.977400 0.973099
v 19.246584 1.059329 0.693929
vt 0.899259 -0.196483
vt 0.996075 0.496636
vt 1.081040 -0.196483
vt 0.899259 0.328961
vt 1.081040 0.328961
vt 0.899259 0.208419
vt 1.081040 0.208419
vt 0.899259 0.038843
vt 1.081040 0.038843
vt 1.124328 -0.196483
vt 1.329387 -0.196483
vt 1.329387 0.038843
vt 1.124328 0.038843
vt 1.124328 0.328961
vt 1.329387 0.328961
vt 1.220649 0.496636
vt 1.124328 0.208419
vt 1.329387 0.208419
vt 1.059504 -0.185818
vt 0.916864 -0.185818
vt 0.916864 0.038843
vt 1.059504 0.038843
vt 0.916864 0.328961
vt 1.059504 0.328961
vt 0.916864 0.208419
vt 1.059504 0.208419
vt 1.059504 -0.185818
vt 1.059504 0.038843
vt 0.916864 0.038843
vt 0.916864 -0.185818
vt 1.059504 0.328961
vt 0.996075 0.496636
vt 0.916864 0.328961
vt 1.059504 0.208419
vt 0.916864 0.208419
vt 1.124328 -0.196483
vt 1.329387 -0.196483
vt 1.329387 0.038843
vt 1.124328 0.038843
vt 1.124328 0.328961
vt 1.329387 0.328961
vt 1.220649 0.496636
vt 1.124328 0.208419
vt 1.329387 0.208419
vt 1.081040 -0.196483
vt 0.899259 -0.196483
vt 0.899259 0.038843
vt 1.081040 0.038843
vt 0.899259 0.328961
vt 1.081040 0.328961
vt 0.899259 0.208419
vt 1.081040 0.208419
vt 1.059504 -0.185818
vt 1.059504 0.038843
vt 0.916864 0.038843
vt 0.916864 -0.185818
vt 1.059504 0.328961
vt 0.996075 0.496636
vt 0.916864 0.328961
vt 1.059504 0.208419
vt 0.916864 0.208419
vt 1.124328 -0.196483
vt 1.329387 -0.196483
vt 1.329387 0.038843
vt 1.124328 0.038843
vt 1.124328 0.328961
vt 1.329387 0.328961
vt 1.220649 0.496636
vt 1.124328 0.208419
vt 1.329387 0.208419
vt 1.081040 -0.196483
vt 0.899259 -0.196483
vt 0.899259 0.038843
vt 1.081040 0.038843
vt 0.899259 0.328961
vt 1.081040 0.328961
vt 0.899259 0.208419
vt 1.081040 0.208419
vt 1.059504 -0.185818
vt 1.059504 0.038843
vt 0.916864 0.038843
vt 0.916864 -0.185818
vt 1.059504 0.328961
vt 0.996075 0.496636
vt 0.916864 0.328961
vt 1.059504 0.208419
vt 0.916864 0.208419
vt 1.124328 -0.196483
vt 1.329387 -0.196483
vt 1.329387 0.038843
vt 1.124328 0.038843
vt 1.124328 0.328961
vt 1.329387 0.328961
vt 1.220649 0.496636
vt 1.124328 0.208419
vt 1.329387 0.208419
vt 1.081040 -0.196483
vt 0.899259 -0.196483
vt 0.899259 0.038843
vt 1.081040 0.038843
vt 0.899259 0.328961
vt 1.081040 0.328961
vt 0.899259 0.208419
vt 1.081040 0.208419
vt 1.059504 -0.185818
vt 1.059504 0.038843
vt 0.916864 0.038843
vt 0.916864 -0.185818
vt 1.059504 0.328961
vt 0.996075 0.496636
vt 0.916864 0.328961
vt 1.059504 0.208419
vt 0.916864 0.208419
vt 1.124328 -0.196483
vt 1.329387 -0.196483
vt 1.329387 0.038843
vt 1.124328 0.038843
vt 1.124328 0.328961
vt 1.329386 0.328961
vt 1.220649 0.496636
vt 1.124328 0.208419
vt 1.329387 0.208419
vt 1.081040 -0.196483
vt 0.899259 -0.196483
vt 0.899259 0.038843
vt 1.081040 0.038843
vt 0.899259 0.328961
vt 1.081040 0.328961
vt 0.899259 0.208419
vt 1.081040 0.208419
vn -0.460280 -0.071796 -0.884866
vn -0.460280 -0.071796 -0.884866
vn -0.460280 -0.071796 -0.884866
vn -0.460280 -0.071796 -0.884866
vn -0.801106 -0.421284 -0.425145
vn -0.801106 -0.421284 -0.425145
vn -0.801106 -0.421284 -0.425145
vn -0.716505 -0.298322 -0.630575
vn -0.716505 -0.298322 -0.630575
vn -0.716505 -0.298322 -0.630575
vn -0.716505 -0.298322 -0.630575
vn -0.628095 -0.134419 -0.766439
vn -0.628095 -0.134419 -0.766438
vn -0.628095 -0.134419 -0.766438
vn -0.628095 -0.134419 -0.766438
vn 0.460325 0.070487 0.884948
vn 0.460325 0.070487 0.884948
vn 0.460325 0.070487 0.884948
vn 0.460325 0.070487 0.884948
vn 0.790149 0.513503 0.334632
vn 0.790149 0.513503 0.334632
vn 0.790149 0.513503 0.334632
vn 0.718283 0.321477 0.617027
vn 0.718283 0.321477 0.617026
vn 0.718283 0.321477 0.617026
vn 0.718283 0.321477 0.617026
vn 0.628355 0.143478 0.764581
vn 0.628355 0.143478 0.764581
vn 0.628355 0.143478 0.764581
vn 0.628355 0.143478 0.764581
vn 0.000000 -1.000000 0.000000
vn 0.000000 -1.000000 0.000000
vn 0.000000 -1.000000 0.000000
vn 0.000000 -1.000000 0.000000
vn 0.980752 -0.055983 -0.187060
vn 0.980752 -0.055983 -0.187060
vn 0.980752 -0.055983 -0.187060
vn 0.980752 -0.055983 -0.187060
vn -0.969645 0.176208 0.169525
vn -0.969646 0.176208 0.169525
vn -0.969645 0.176208 0.169525
vn -0.969645 0.176208 0.169525
vn 0.876109 -0.023284 -0.481551
vn 0.876109 -0.023284 -0.481551
vn 0.876109 -0.023284 -0.481551
vn -0.965885 0.129333 0.224365
vn -0.965885 0.129333 0.224365
vn -0.965885 0.129333 0.224365
vn 0.897244 0.033424 -0.440268
vn 0.897244 0.033424 -0.440268
vn 0.897244 0.033424 -0.440268
vn 0.897244 0.033424 -0.440268
vn -0.966464 0.148179 0.209740
vn -0.966464 0.148179 0.209740
vn -0.966464 0.148179 0.209740
vn -0.966464 0.148179 0.209740
vn 0.961685 0.004452 -0.274122
vn 0.961685 0.004452 -0.274122
vn 0.961685 0.004452 -0.274122
vn 0.961685 0.004452 -0.274122
vn -0.968822 0.131893 0.209736
vn -0.968822 0.131893 0.209736
vn -0.968822 0.131893 0.209736
vn -0.968821 0.131893 0.209736
vn -0.973040 -0.152418 -0.173093
vn -0.973040 -0.152418 -0.173093
vn -0.973040 -0.152418 -0.173093
vn -0.973040 -0.152418 -0.173093
vn 0.450381 -0.812460 0.370224
vn 0.450381 -0.812460 0.370224
vn 0.450381 -0.812460 0.370224
vn -0.346146 -0.930846 0.117087
vn -0.346146 -0.930846 0.117087
vn -0.346146 -0.930846 0.117087
vn -0.346146 -0.930846 0.117087
vn -0.890336 -0.417635 -0.181337
vn -0.890336 -0.417635 -0.181337
vn -0.890336 -0.417635 -0.181337
vn -0.890336 -0.417635 -0.181337
vn 0.973272 0.150884 0.173136
vn 0.973272 0.150884 0.173136
vn 0.973272 0.150884 0.173136
vn 0.973272 0.150884 0.173136
vn -0.500235 0.781918 -0.371980
vn -0.500235 0.781918 -0.371980
vn -0.500235 0.781918 -0.371980
vn 0.373582 0.921568 -0.105589
vn 0.373582 0.921568 -0.105589
vn 0.373582 0.921568 -0.105589
vn 0.373582 0.921568 -0.105589
vn 0.889827 0.418814 0.181116
vn 0.889827 0.418814 0.181116
vn 0.889827 0.418814 0.181116
vn 0.889827 0.418814 0.181116
vn 0.000000 -1.000000 0.000000
vn 0.000000 -1.000000 0.000000
vn 0.000000 -1.000000 0.000000
vn 0.000000 -1.000000 0.000000
vn 0.256494 0.079646 -0.963259
vn 0.256494 0.079646 -0.963259
vn 0.256494 0.079646 -0.963259
vn 0.256494 0.079646 -0.963259
vn -0.282259 0.104013 0.953683
vn -0.282259 0.104013 0.953683
vn -0.282259 0.104013 0.953683
vn -0.282259 0.104013 0.953683
vn 0.390470 -0.064405 -0.918360
vn 0.390470 -0.064405 -0.918360
vn 0.390470 -0.064405 -0.918360
vn -0.803154 0.410728 0.431562
vn -0.803154 0.410728 0.431562
vn -0.803154 0.410728 0.431562
vn 0.239785 0.125253 -0.962712
vn 0.239785 0.125253 -0.962712
vn 0.239785 0.125253 -0.962712
vn 0.239785 0.125253 -0.962712
vn -0.497675 0.155917 0.853234
vn -0.497675 0.155917 0.853234
vn -0.497675 0.155917 0.853234
vn -0.497676 0.155917 0.853234
vn 0.275311 0.168505 -0.946472
vn 0.275311 0.168505 -0.946472
vn 0.275311 0.168505 -0.946472
vn 0.275311 0.168505 -0.946472
vn -0.363348 0.025670 0.931300
vn -0.363348 0.025670 0.931300
vn -0.363348 0.025670 0.931300
vn -0.363348 0.025670 0.931300
vn 0.971447 -0.127959 -0.199796
vn 0.971447 -0.127959 -0.199796
vn 0.971446 -0.127959 -0.199796
vn 0.971447 -0.127959 -0.199796
vn 0.118710 -0.911317 -0.394220
vn 0.118710 -0.911317 -0.394220
vn 0.118710 -0.911317 -0.394220
vn 0.663848 -0.602683 -0.442807
vn 0.663848 -0.602683 -0.442807
vn 0.663848 -0.602683 -0.442807
vn 0.663848 -0.602683 -0.442807
vn 0.862134 -0.379962 -0.335192
vn 0.862134 -0.379962 -0.335192
vn 0.862134 -0.379962 -0.335192
vn 0.862134 -0.379962 -0.335192
vn -0.971711 0.125846 0.199850
vn -0.971711 0.125846 0.199850
vn -0.971711 0.125846 0.199850
vn -0.971711 0.125846 0.199850
vn -0.030361 0.934632 0.354318
vn -0.030361 0.934632 0.354318
vn -0.030361 0.934632 0.354318
vn -0.664099 0.602385 0.442837
vn -0.664099 0.602385 0.442837
vn -0.664099 0.602385 0.442837
vn -0.664099 0.602385 0.442837
vn -0.862316 0.379526 0.335218
vn -0.862316 0.379526 0.335218
vn -0.862316 0.379526 0.335218
vn -0.862316 0.379526 0.335218
vn 0.000000 -1.000000 0.000000
vn 0.000000 -1.000000 0.000000
vn 0.000000 -1.000000 0.000000
vn 0.000000 -1.000000 0.000000
vn 0.107010 -0.060664 0.992406
vn 0.107010 -0.060664 0.992406
vn 0.107010 -0.060664 0.992406
vn 0.107010 -0.060664 0.992406
vn -0.075289 0.250689 -0.965136
vn -0.075289 0.250689 -0.965135
vn -0.075289 0.250689 -0.965136
vn -0.075289 0.250689 -0.965136
vn 0.654905 0.186854 0.732246
vn 0.654905 0.186854 0.732246
vn 0.654905 0.186854 0.732246
vn -0.508100 -0.067194 -0.858673
vn -0.508100 -0.067194 -0.858673
vn -0.508100 -0.067194 -0.858673
vn 0.436323 0.092730 0.894999
vn 0.436323 0.092730 0.894999
vn 0.436323 0.092730 0.894999
vn 0.436323 0.092730 0.894999
vn -0.204616 0.150546 -0.967196
vn -0.204616 0.150546 -0.967196
vn -0.204616 0.150546 -0.967196
vn -0.204616 0.150546 -0.967196
vn 0.217062 -0.029722 0.975705
vn 0.217062 -0.029722 0.975705
vn 0.217062 -0.029722 0.975705
vn 0.217062 -0.029722 0.975705
vn -0.128738 0.215697 -0.967937
vn -0.128738 0.215697 -0.967937
vn -0.128738 0.215697 -0.967937
vn -0.128738 0.215697 -0.967937
vn -0.329656 -0.151740 0.931827
vn -0.329656 -0.151740 0.931827
vn -0.329656 -0.151740 0.931827
vn -0.329656 -0.151740 0.931827
vn 0.487797 -0.845650 -0.216636
vn 0.487797 -0.845650 -0.216636
vn 0.487797 -0.845650 -0.216636
vn 0.121712 -0.926588 0.355840
vn 0.121712 -0.926588 0.355840
vn 0.121712 -0.926588 0.355840
vn 0.121712 -0.926588 0.355840
vn -0.259095 -0.606745 0.751485
vn -0.259095 -0.606745 0.751485
vn -0.259095 -0.606745 0.751485
vn -0.259095 -0.606745 0.751485
vn 0.329738 0.150181 -0.932051
vn 0.329738 0.150181 -0.932051
vn 0.329738 0.150181 -0.932051
vn 0.329738 0.150181 -0.932051
vn -0.504397 0.813926 0.288286
vn -0.504397 0.813926 0.288286
vn -0.504397 0.813926 0.288286
vn -0.103876 0.918199 -0.382256
vn -0.103876 0.918199 -0.382256
vn -0.103876 0.918199 -0.382256
vn -0.103876 0.918199 -0.382256
vn 0.260930 0.602259 -0.754453
vn 0.260930 0.602259 -0.754453
vn 0.260930 0.602259 -0.754453
vn 0.260930 0.602259 -0.754453
vn 0.000000 -1.000000 0.000000
vn 0.000000 -1.000000 0.000000
vn 0.000000 -1.000000 0.000000
vn 0.000000 -1.000000 0.000000
vn -0.956089 0.059471 -0.286980
vn -0.956089 0.059471 -0.286980
vn -0.956089 0.059471 -0.286980
vn -0.956089 0.059471 -0.286980
vn 0.948667 0.078012 0.306505
vn 0.948667 0.078012 0.306505
vn 0.948667 0.078012 0.306505
vn 0.948667 0.078012 0.306505
vn -0.976809 0.075477 -0.200369
vn -0.976809 0.075477 -0.200369
vn -0.976809 0.075477 -0.200369
vn 0.785206 0.194251 0.587978
vn 0.785206 0.194251 0.587978
vn 0.785206 0.194251 0.587978
vn -0.960147 0.109982 -0.256948
vn -0.960147 0.109982 -0.256948
vn -0.960147 0.109982 -0.256948
vn -0.960147 0.109982 -0.256948
vn 0.870287 0.121503 0.477323
vn 0.870287 0.121503 0.477323
vn 0.870287 0.121503 0.477323
vn 0.870287 0.121503 0.477323
vn -0.945072 0.167097 -0.280924
vn -0.945072 0.167097 -0.280924
vn -0.945072 0.167097 -0.280924
vn -0.945071 0.167097 -0.280924
vn 0.927972 0.027871 0.371607
vn 0.927972 0.027871 0.371607
vn 0.927972 0.027871 0.371607
vn 0.927972 0.027871 0.371607
vn 0.721874 -0.153060 0.674885
vn 0.721874 -0.153060 0.674885
vn 0.721874 -0.153060 0.674885
vn 0.721874 -0.153060 0.674885
vn 0.396257 -0.915066 -0.075067
vn 0.396257 -0.915066 -0.075067
vn 0.396257 -0.915066 -0.075067
vn 0.604670 -0.791751 0.086634
vn 0.604670 -0.791751 0.086634
vn 0.604670 -0.791751 0.086634
vn 0.604670 -0.791751 0.086634
vn 0.704491 -0.545235 0.454325
vn 0.704491 -0.545235 0.454325
vn 0.704491 -0.545235 0.454325
vn 0.704491 -0.545235 0.454325
vn -0.722053 0.151457 -0.675055
vn -0.722053 0.151457 -0.675055
vn -0.722053 0.151457 -0.675055
vn -0.722053 0.151457 -0.675055
vn -0.302031 0.946444 0.114110
vn -0.302031 0.946444 0.114110
vn -0.302031 0.946444 0.114110
vn -0.609296 0.787821 -0.089982
vn -0.609297 0.787821 -0.089982
vn -0.609296 0.787821 -0.089982
vn -0.609297 0.787821 -0.089982
vn -0.706410 0.541066 -0.456325
vn -0.706410 0.541066 -0.456325
vn -0.706410 0.541066 -0.456325
vn -0.706410 0.541066 -0.456325
vn 0.000000 -1.000000 0.000000
vn 0.000000 -1.000000 0.000000
vn 0.000000 -1.000000 0.000000
vn 0.000000 -1.000000 0.000000
vn -0.645528 0.059978 0.761378
vn -0.645528 0.059978 0.761378
vn -0.645528 0.059978 0.761378
vn -0.645528 0.059978 0.761378
vn 0.660582 0.078689 -0.746619
vn 0.660582 0.078689 -0.746619
vn 0.660582 0.078689 -0.746619
vn 0.660582 0.078689 -0.746619
vn -0.283312 0.162649 0.945135
vn -0.283312 0.162649 0.945135
vn -0.283312 0.162649 0.945135
vn 0.486519 0.239970 -0.840068
vn 0.486519 0.239970 -0.840068
vn 0.486519 0.239970 -0.840068
vn -0.394117 -0.028986 0.918603
vn -0.394117 -0.028986 0.918603
vn -0.394117 -0.028986 0.918603
vn -0.394117 -0.028986 0.918603
vn 0.533908 0.331146 -0.778000
vn 0.533908 0.331146 -0.778000
vn 0.533908 0.331146 -0.778000
vn 0.533908 0.331146 -0.778000
vn -0.514742 0.077412 0.853843
vn -0.514743 0.077412 0.853843
vn -0.514743 0.077412 0.853843
vn -0.514742 0.077412 0.853843
vn 0.605381 0.172040 -0.777120
vn 0.605381 0.172040 -0.777120
vn 0.605381 0.172040 -0.777120
vn 0.605381 0.172040 -0.777121
s off
g grass2
usemtl initialShadingGroup
f 10/19/1 13/22/2 12/21/3 11/20/4
f 15/24/5 2/2/6 14/23/7
f 17/26/8 15/24/9 14/23/10 16/25/11
f 13/22/12 17/26/13 16/25/14 12/21/15
f 3/10/16 1/11/17 8/12/18 9/13/19
f 5/14/20 4/15/21 2/16/22
f 7/17/23 6/18/24 4/15/25 5/14/26
f 9/13/27 8/12/28 6/18/29 7/17/30
f 3/3/31 10/19/32 11/20/33 1/1/34
f 1/1/35 11/20/36 12/21/37 8/8/38
f 9/9/39 13/22/40 10/19/41 3/3/42
f 4/4/43 14/23/44 2/2/45
f 2/2/46 15/24/47 5/5/48
f 6/6/49 16/25/50 14/23/51 4/4/52
f 5/5/53 15/24/54 17/26/55 7/7/56
f 8/8/57 12/21/58 16/25/59 6/6/60
f 7/7/61 17/26/62 13/22/63 9/9/64
f 27/27/65 30/28/66 29/29/67 28/30/68
f 32/31/69 19/32/70 31/33/71
f 34/34/72 32/31/73 31/33/74 33/35/75
f 30/28/76 34/34/77 33/35/78 29/29/79
f 20/36/80 18/37/81 25/38/82 26/39/83
f 22/40/84 21/41/85 19/42/86
f 24/43/87 23/44/88 21/41/89 22/40/90
f 26/39/91 25/38/92 23/44/93 24/43/94
f 20/45/95 27/27/96 28/30/97 18/46/98
f 18/46/99 28/30/100 29/29/101 25/47/102
f 26/48/103 30/28/104 27/27/105 20/45/106
f 21/49/107 31/33/108 19/32/109
f 19/32/110 32/31/111 22/50/112
f 23/51/113 33/35/114 31/33/115 21/49/116
f 22/50/117 32/31/118 34/34/119 24/52/120
f 25/47/121 29/29/122 33/35/123 23/51/124
f 24/52/125 34/34/126 30/28/127 26/48/128
f 44/53/129 47/54/130 46/55/131 45/56/132
f 49/57/133 36/58/134 48/59/135
f 51/60/136 49/57/137 48/59/138 50/61/139
f 47/54/140 51/60/141 50/61/142 46/55/143
f 37/62/144 35/63/145 42/64/146 43/65/147
f 39/66/148 38/67/149 36/68/150
f 41/69/151 40/70/152 38/67/153 39/66/154
f 43/65/155 42/64/156 40/70/157 41/69/158
f 37/71/159 44/53/160 45/56/161 35/72/162
f 35/72/163 45/56/164 46/55/165 42/73/166
f 43/74/167 47/54/168 44/53/169 37/71/170
f 38/75/171 48/59/172 36/58/173
f 36/58/174 49/57/175 39/76/176
f 40/77/177 50/61/178 48/59/179 38/75/180
f 39/76/181 49/57/182 51/60/183 41/78/184
f 42/73/185 46/55/186 50/61/187 40/77/188
f 41/78/189 51/60/190 47/54/191 43/74/192
f 61/79/193 64/80/194 63/81/195 62/82/196
f 66/83/197 53/84/198 65/85/199
f 68/86/200 66/83/201 65/85/202 67/87/203
f 64/80/204 68/86/205 67/87/206 63/81/207
f 54/88/208 52/89/209 59/90/210 60/91/211
f 56/92/212 55/93/213 53/94/214
f 58/95/215 57/96/216 55/93/217 56/92/218
f 60/91/219 59/90/220 57/96/221 58/95/222
f 54/97/223 61/79/224 62/82/225 52/98/226
f 52/98/227 62/82/228 63/81/229 59/99/230
f 60/100/231 64/80/232 61/79/233 54/97/234
f 55/101/235 65/85/236 53/84/237
f 53/84/238 66/83/239 56/102/240
f 57/103/241 67/87/242 65/85/243 55/101/244
f 56/102/245 66/83/246 68/86/247 58/104/248
f 59/99/249 63/81/250 67/87/251 57/103/252
f 58/104/253 68/86/254 64/80/255 60/100/256
f 78/105/257 81/106/258 80/107/259 79/108/260
f 83/109/261 70/110/262 82/111/263
f 85/112/264 83/109/265 82/111/266 84/113/267
f 81/106/268 85/112/269 84/113/270 80/107/271
f 71/114/272 69/115/273 76/116/274 77/117/275
f 73/118/276 72/119/277 70/120/278
f 75/121/279 74/122/280 72/119/281 73/118/282
f 77/117/283 76/116/284 74/122/285 75/121/286
f 71/123/287 78/105/288 79/108/289 69/124/290
f 69/124/291 79/108/292 80/107/293 76/125/294
f 77/126/295 81/106/296 78/105/297 71/123/298
f 72/127/299 82/111/300 70/110/301
f 70/110/302 83/109/303 73/128/304
f 74/129/305 84/113/306 82/111/307 72/127/308
f 73/128/309 83/109/310 85/112/311 75/130/312
f 76/125/313 80/107/314 84/113/315 74/129/316
f 75/130/317 85/112/318 81/106/319 77/126/320
