# This file uses centimeters as units for non-parametric coordinates.

mtllib grass3.mtl
g default
v 17.678766 0.000000 18.635860
v 18.343754 1.157796 18.464369
v 17.792910 0.000000 18.826422
v 18.076138 0.939765 18.541704
v 18.120110 0.939765 18.615114
v 17.845722 0.657607 18.600473
v 17.925751 0.657607 18.734077
v 17.707071 0.305343 18.654528
v 17.811674 0.305343 18.829163
v 17.766357 -0.000000 18.842327
v 17.652214 -0.000000 18.651766
v 17.680187 0.308522 18.670631
v 17.784792 0.308522 18.845266
v 18.053938 0.967196 18.555000
v 18.097912 0.967196 18.628412
v 17.820396 0.673734 18.615643
v 17.900423 0.673734 18.749247
v 17.109743 0.000000 19.232466
v 16.181602 1.627195 18.706993
v 17.109743 0.000000 18.771122
v 16.605047 1.419938 18.893148
v 16.631660 1.462186 18.722580
v 16.967512 1.039749 19.093189
v 17.015945 1.116637 18.782764
v 17.166723 0.577631 19.181423
v 17.244135 0.623253 18.768295
v 17.174025 -0.000000 18.771122
v 17.174025 -0.000000 19.232466
v 17.229027 0.592480 19.194736
v 17.306438 0.638101 18.781610
v 16.621159 1.493710 18.913935
v 16.647772 1.535958 18.743366
v 17.002083 1.097204 19.112814
v 17.050518 1.174092 18.802389
v 17.800709 0.000000 19.315027
v 17.813093 2.650939 20.744295
v 17.388195 0.000000 19.521589
v 17.840248 2.316166 20.179674
v 17.663254 2.315375 20.195768
v 17.845423 1.660207 19.656778
v 17.526377 1.653877 19.709610
v 17.818974 0.820705 19.286913
v 17.418743 0.807652 19.422539
v 17.359413 -0.000000 19.464109
v 17.771927 -0.000000 19.257547
v 17.798067 0.834989 19.226593
v 17.397837 0.821935 19.362219
v 17.837303 2.388930 20.150854
v 17.660307 2.388139 20.166946
v 17.835554 1.702818 19.602297
v 17.516510 1.696488 19.655127
v 17.377401 0.000000 18.463085
v 17.875532 1.905100 17.511440
v 17.838284 0.000000 18.483679
v 17.690437 1.571365 17.892012
v 17.867987 1.571365 17.899946
v 17.519609 1.104783 18.252630
v 17.842737 1.104783 18.267069
v 17.415009 0.546473 18.433411
v 17.837374 0.546473 18.452284
v 17.835413 -0.000000 18.547897
v 17.374531 -0.000000 18.527304
v 17.412102 0.553076 18.498430
v 17.834467 0.553076 18.517303
v 17.688038 1.628335 17.945702
v 17.865587 1.628335 17.953636
v 17.516872 1.138278 18.313883
v 17.840000 1.138278 18.328321
v 17.934708 -0.000000 18.934849
v 18.304985 0.920907 19.284552
v 17.874805 -0.000000 19.148752
v 18.170242 0.745549 19.148775
v 18.133078 0.754260 19.225365
v 18.034880 0.515287 19.022398
v 17.971210 0.525951 19.164127
v 17.951614 0.252911 18.952499
v 17.879459 0.260012 19.142717
v 17.845001 -0.000000 19.140406
v 17.904902 -0.000000 18.926502
v 17.922390 0.256419 18.941284
v 17.850235 0.263521 19.131502
v 18.147171 0.771792 19.134596
v 18.110006 0.780503 19.211184
v 18.008091 0.530772 19.009199
v 17.944422 0.541437 19.150928
v 17.045185 -0.000000 18.654251
v 16.870338 0.715825 18.109869
v 17.219934 -0.000000 18.517120
v 16.932421 0.584950 18.325180
v 17.004871 0.612365 18.288818
v 17.020809 0.396147 18.534691
v 17.145842 0.415217 18.443819
v 17.049604 0.232302 18.631613
v 17.209749 0.232302 18.505941
v 17.239042 -0.000000 18.541470
v 17.064293 -0.000000 18.678600
v 17.068951 0.235481 18.656265
v 17.229095 0.235481 18.530596
v 16.931307 0.616082 18.346430
v 17.003757 0.643497 18.310070
v 17.033964 0.417362 18.557243
v 17.158997 0.436432 18.466370
v 17.429224 -0.000000 19.707577
v 17.000143 0.776908 20.237734
v 17.208406 -0.000000 19.683447
v 17.208164 0.684117 20.055887
v 17.137608 0.709329 20.014547
v 17.381096 0.494045 19.893702
v 17.229624 0.539854 19.806709
v 17.455673 0.255658 19.776974
v 17.268534 0.266620 19.697609
v 17.211769 -0.000000 19.652679
v 17.432587 -0.000000 19.676809
v 17.468056 0.261079 19.748524
v 17.280918 0.272041 19.669159
v 17.225918 0.715446 20.044691
v 17.155361 0.740658 20.003351
v 17.399424 0.515707 19.875633
v 17.247952 0.561516 19.788639
vt 0.090777 -0.121392
vt 0.179206 0.546261
vt 0.275699 -0.121392
vt 0.090777 0.399195
vt 0.275699 0.399195
vt 0.090777 0.201860
vt 0.275699 0.201860
vt 0.090777 0.036744
vt 0.275699 0.036744
vt 0.285980 -0.121392
vt 0.447510 -0.121392
vt 0.447510 0.036744
vt 0.285980 0.036744
vt 0.285980 0.399195
vt 0.447510 0.399195
vt 0.363862 0.546261
vt 0.285980 0.201860
vt 0.447510 0.201860
vt 0.261332 -0.116687
vt 0.105011 -0.116687
vt 0.105011 0.036744
vt 0.261332 0.036744
vt 0.105011 0.399195
vt 0.261332 0.399195
vt 0.105011 0.201860
vt 0.261332 0.201860
vt 0.261332 -0.116687
vt 0.261332 0.036744
vt 0.105011 0.036744
vt 0.105011 -0.116687
vt 0.261332 0.399195
vt 0.179206 0.546261
vt 0.105011 0.399195
vt 0.261332 0.201860
vt 0.105011 0.201860
vt 0.285980 -0.121392
vt 0.447510 -0.121392
vt 0.447510 0.036744
vt 0.285980 0.036744
vt 0.285980 0.399195
vt 0.447510 0.399195
vt 0.363862 0.546261
vt 0.285980 0.201860
vt 0.447510 0.201860
vt 0.275699 -0.121392
vt 0.090777 -0.121392
vt 0.090777 0.036744
vt 0.275699 0.036744
vt 0.090777 0.399195
vt 0.275699 0.399195
vt 0.090777 0.201860
vt 0.275699 0.201860
vt 0.261332 -0.116687
vt 0.261332 0.036744
vt 0.105011 0.036744
vt 0.105011 -0.116687
vt 0.261332 0.399195
vt 0.179206 0.546261
vt 0.105011 0.399195
vt 0.261332 0.201860
vt 0.105011 0.201860
vt 0.285980 -0.121392
vt 0.447510 -0.121392
vt 0.447510 0.036744
vt 0.285980 0.036744
vt 0.285980 0.399195
vt 0.447510 0.399195
vt 0.363862 0.546261
vt 0.285980 0.201860
vt 0.447510 0.201860
vt 0.275699 -0.121392
vt 0.090777 -0.121392
vt 0.090777 0.036153
vt 0.275699 0.036744
vt 0.090777 0.399195
vt 0.275699 0.399195
vt 0.090777 0.201860
vt 0.275699 0.201860
vt 0.261332 -0.116687
vt 0.261332 0.036744
vt 0.105011 0.036744
vt 0.105011 -0.116687
vt 0.261332 0.399195
vt 0.179206 0.546261
vt 0.105011 0.399195
vt 0.261332 0.201860
vt 0.105011 0.201860
vt 0.285980 -0.121392
vt 0.447510 -0.121392
vt 0.447510 0.036744
vt 0.285980 0.036744
vt 0.285980 0.399195
vt 0.447510 0.399195
vt 0.363862 0.546261
vt 0.285980 0.201860
vt 0.447510 0.201860
vt 0.275699 -0.121392
vt 0.090777 -0.121392
vt 0.090777 0.036744
vt 0.275699 0.036744
vt 0.090777 0.399195
vt 0.275699 0.399195
vt 0.090777 0.201860
vt 0.275699 0.201860
vt 0.261332 -0.116687
vt 0.261332 0.036744
vt 0.105011 0.036744
vt 0.105011 -0.116687
vt 0.261332 0.399195
vt 0.179206 0.546261
vt 0.105011 0.399195
vt 0.261332 0.201860
vt 0.105011 0.201860
vt 0.285980 -0.121392
vt 0.447510 -0.121392
vt 0.447510 0.036744
vt 0.285980 0.036744
vt 0.285980 0.399195
vt 0.447510 0.399195
vt 0.363862 0.546261
vt 0.285980 0.201860
vt 0.447510 0.201860
vt 0.275699 -0.121392
vt 0.090777 -0.121392
vt 0.090777 0.036744
vt 0.275699 0.036744
vt 0.090777 0.399195
vt 0.275699 0.399195
vt 0.090777 0.201860
vt 0.275699 0.201860
vt 0.261332 -0.116687
vt 0.261332 0.036744
vt 0.105011 0.036744
vt 0.105011 -0.116687
vt 0.261332 0.399195
vt 0.179206 0.546261
vt 0.105011 0.399195
vt 0.261332 0.201860
vt 0.105011 0.201860
vt 0.285980 -0.121392
vt 0.447510 -0.121392
vt 0.447510 0.036744
vt 0.285980 0.036744
vt 0.285980 0.399195
vt 0.447510 0.399195
vt 0.363862 0.546261
vt 0.285980 0.201860
vt 0.447510 0.201860
vt 0.275699 -0.121392
vt 0.090777 -0.121392
vt 0.090777 0.036744
vt 0.275699 0.036744
vt 0.090777 0.399195
vt 0.275699 0.399195
vt 0.090777 0.201860
vt 0.275699 0.201860
vt 0.261332 -0.116687
vt 0.261332 0.036744
vt 0.105011 0.036744
vt 0.105011 -0.116687
vt 0.261332 0.399195
vt 0.179206 0.546261
vt 0.105011 0.399195
vt 0.261332 0.201860
vt 0.105011 0.201860
vt 0.285980 -0.121392
vt 0.447510 -0.121392
vt 0.447510 0.036744
vt 0.285980 0.036744
vt 0.285980 0.399195
vt 0.447510 0.399195
vt 0.363862 0.546261
vt 0.285980 0.201860
vt 0.447510 0.201860
vt 0.275699 -0.121392
vt 0.090777 -0.121392
vt 0.090777 0.036744
vt 0.275699 0.036744
vt 0.090777 0.399195
vt 0.275699 0.399195
vt 0.090777 0.201860
vt 0.275699 0.201860
vn -0.856955 0.046317 0.513306
vn -0.856955 0.046317 0.513306
vn -0.856955 0.046317 0.513306
vn -0.856955 0.046317 0.513306
vn -0.465315 0.840113 0.278734
vn -0.465315 0.840113 0.278734
vn -0.465315 0.840113 0.278734
vn -0.673515 0.619371 0.403431
vn -0.673515 0.619371 0.403431
vn -0.673515 0.619371 0.403431
vn -0.673515 0.619371 0.403431
vn -0.794666 0.376742 0.475994
vn -0.794666 0.376742 0.475994
vn -0.794666 0.376742 0.475994
vn -0.794666 0.376742 0.475994
vn 0.856887 -0.048052 -0.513260
vn 0.856887 -0.048052 -0.513260
vn 0.856887 -0.048052 -0.513260
vn 0.856887 -0.048052 -0.513260
vn 0.539781 -0.777236 -0.323327
vn 0.539781 -0.777236 -0.323327
vn 0.539781 -0.777236 -0.323327
vn 0.667410 -0.628285 -0.399777
vn 0.667410 -0.628285 -0.399777
vn 0.667410 -0.628285 -0.399777
vn 0.667410 -0.628285 -0.399777
vn 0.791929 -0.384495 -0.474355
vn 0.791929 -0.384495 -0.474355
vn 0.791929 -0.384495 -0.474355
vn 0.791929 -0.384495 -0.474355
vn 0.000002 -1.000000 -0.000001
vn 0.000002 -1.000000 -0.000001
vn 0.000002 -1.000000 -0.000001
vn 0.000002 -1.000000 -0.000001
vn -0.507012 0.098837 -0.856253
vn -0.507012 0.098837 -0.856253
vn -0.501452 0.079230 -0.861550
vn -0.500640 0.076427 -0.862275
vn 0.522248 0.018036 0.852603
vn 0.521038 0.010928 0.853464
vn 0.511776 -0.038957 0.858236
vn 0.511776 -0.038957 0.858236
vn -0.398747 0.141322 -0.906107
vn -0.398676 0.141312 -0.906139
vn -0.377430 0.138409 -0.915636
vn 0.539413 0.028521 0.841558
vn 0.524447 0.012487 0.851352
vn 0.524398 0.012435 0.851382
vn -0.451157 0.104321 -0.886327
vn -0.452852 0.102737 -0.885647
vn 0.522825 0.030451 0.851896
vn 0.522595 0.029395 0.852075
vn 0.985730 -0.148366 0.079521
vn 0.985730 -0.148366 0.079521
vn 0.985730 -0.148366 0.079521
vn 0.985730 -0.148366 0.079521
vn 0.165709 0.950904 0.261383
vn 0.165709 0.950905 0.261383
vn 0.165709 0.950904 0.261383
vn 0.619009 0.734357 0.278473
vn 0.619009 0.734357 0.278473
vn 0.619009 0.734357 0.278473
vn 0.619009 0.734357 0.278473
vn 0.878940 0.420976 0.224153
vn 0.878940 0.420976 0.224153
vn 0.878940 0.420976 0.224153
vn 0.878940 0.420976 0.224153
vn -0.984984 0.153415 -0.079191
vn -0.984984 0.153415 -0.079191
vn -0.984984 0.153415 -0.079191
vn -0.984984 0.153415 -0.079191
vn -0.322601 -0.905801 -0.274688
vn -0.322601 -0.905801 -0.274688
vn -0.322601 -0.905801 -0.274688
vn -0.617687 -0.735447 -0.278535
vn -0.617687 -0.735447 -0.278535
vn -0.617687 -0.735447 -0.278535
vn -0.617687 -0.735447 -0.278535
vn -0.883221 -0.412312 -0.223426
vn -0.883221 -0.412312 -0.223426
vn -0.883221 -0.412312 -0.223426
vn -0.883221 -0.412312 -0.223426
vn -0.000001 -1.000000 0.000000
vn -0.000001 -1.000000 0.000000
vn -0.000001 -1.000000 0.000000
vn -0.000001 -1.000000 0.000000
vn -0.114202 0.086015 0.989727
vn -0.114202 0.086015 0.989727
vn -0.223379 0.053368 0.973269
vn -0.216384 0.055508 0.974729
vn 0.159106 0.051848 -0.985899
vn 0.168471 0.064145 -0.983617
vn 0.106535 -0.016491 -0.994172
vn 0.106535 -0.016491 -0.994172
vn -0.504695 -0.083878 0.859213
vn -0.496412 -0.095361 0.862833
vn -0.457521 -0.147174 0.876934
vn 0.122854 0.244203 -0.961911
vn 0.227493 0.203508 -0.952277
vn 0.252895 0.193059 -0.948036
vn -0.421522 -0.017737 0.906645
vn -0.460902 -0.034645 0.886774
vn 0.272432 0.161459 -0.948532
vn 0.255230 0.153264 -0.954656
vn -0.386567 -0.058730 -0.920389
vn -0.386567 -0.058730 -0.920389
vn -0.386567 -0.058730 -0.920389
vn -0.386567 -0.058730 -0.920389
vn -0.040901 0.913424 -0.404949
vn -0.040901 0.913424 -0.404949
vn -0.040901 0.913424 -0.404949
vn -0.117320 0.613454 -0.780968
vn -0.117320 0.613454 -0.780968
vn -0.117320 0.613454 -0.780968
vn -0.117320 0.613454 -0.780968
vn -0.245053 0.366406 -0.897606
vn -0.245053 0.366406 -0.897606
vn -0.245053 0.366406 -0.897606
vn -0.245053 0.366406 -0.897606
vn 0.386508 0.060285 0.920314
vn 0.386508 0.060285 0.920314
vn 0.386508 0.060285 0.920314
vn 0.386508 0.060285 0.920314
vn 0.050315 -0.858015 0.511154
vn 0.050315 -0.858015 0.511154
vn 0.050315 -0.858015 0.511154
vn 0.117530 -0.611221 0.782685
vn 0.117530 -0.611221 0.782685
vn 0.117530 -0.611221 0.782685
vn 0.117530 -0.611221 0.782685
vn 0.244868 -0.368899 0.896634
vn 0.244868 -0.368899 0.896634
vn 0.244868 -0.368899 0.896634
vn 0.244868 -0.368899 0.896634
vn 0.000000 -1.000000 0.000000
vn 0.000000 -1.000000 0.000000
vn 0.000000 -1.000000 0.000000
vn 0.000000 -1.000000 0.000000
vn 0.919023 -0.038644 -0.392306
vn 0.919023 -0.038644 -0.392306
vn 0.952492 0.017592 -0.304054
vn 0.951434 0.015467 -0.307463
vn -0.940317 0.060332 0.334908
vn -0.943225 0.056955 0.327235
vn -0.914009 0.087534 0.396138
vn -0.914009 0.087534 0.396138
vn 0.997096 0.056789 -0.050743
vn 0.997873 0.054891 -0.035163
vn 0.998651 0.048133 0.019488
vn -0.971062 0.052930 0.232890
vn -0.974053 0.048455 0.221073
vn -0.974927 0.047097 0.217484
vn 0.985603 0.061800 -0.157379
vn 0.987453 0.061473 -0.145460
vn -0.969747 0.040228 0.240774
vn -0.968211 0.039049 0.247069
vn -0.044570 0.055101 0.997486
vn -0.044570 0.055101 0.997486
vn -0.044570 0.055101 0.997486
vn -0.044570 0.055101 0.997486
vn -0.023689 0.847663 0.530006
vn -0.023689 0.847663 0.530006
vn -0.023689 0.847663 0.530005
vn -0.035440 0.608171 0.793014
vn -0.035440 0.608171 0.793014
vn -0.035440 0.608171 0.793014
vn -0.035440 0.608172 0.793014
vn -0.042479 0.307395 0.950634
vn -0.042479 0.307395 0.950634
vn -0.042479 0.307395 0.950634
vn -0.042479 0.307395 0.950634
vn 0.044564 -0.057226 -0.997366
vn 0.044564 -0.057226 -0.997366
vn 0.044564 -0.057226 -0.997366
vn 0.044564 -0.057226 -0.997366
vn 0.029097 -0.758507 -0.651015
vn 0.029097 -0.758507 -0.651015
vn 0.029097 -0.758507 -0.651015
vn 0.035055 -0.619157 -0.784484
vn 0.035055 -0.619157 -0.784484
vn 0.035055 -0.619157 -0.784484
vn 0.035055 -0.619157 -0.784484
vn 0.042373 -0.314953 -0.948161
vn 0.042373 -0.314953 -0.948161
vn 0.042373 -0.314953 -0.948161
vn 0.042373 -0.314953 -0.948161
vn 0.000000 -1.000000 -0.000001
vn 0.000000 -1.000000 -0.000001
vn 0.000000 -1.000000 -0.000001
vn 0.000000 -1.000000 -0.000001
vn -0.996695 0.065599 -0.047908
vn -0.996695 0.065599 -0.047908
vn -0.991616 0.108559 -0.070088
vn -0.990938 0.113116 -0.072439
vn 0.999033 0.004424 0.043750
vn 0.999030 0.004401 0.043818
vn 0.999003 0.004195 0.044444
vn 0.999003 0.004195 0.044444
vn -0.955098 0.200431 -0.218211
vn -0.954936 0.200584 -0.218779
vn -0.939057 0.213981 -0.269045
vn 0.999442 0.013160 0.030709
vn 0.998904 -0.003945 0.046637
vn 0.998896 -0.004122 0.046802
vn -0.973661 0.174152 -0.147157
vn -0.973460 0.174523 -0.148047
vn 0.998803 -0.003955 0.048757
vn 0.998807 -0.003831 0.048676
vn -0.949341 0.045001 -0.311008
vn -0.949341 0.045001 -0.311008
vn -0.949341 0.045001 -0.311008
vn -0.949341 0.045001 -0.311008
vn -0.470560 0.821598 -0.321792
vn -0.470560 0.821598 -0.321792
vn -0.470560 0.821598 -0.321792
vn -0.707623 0.595892 -0.379714
vn -0.707623 0.595892 -0.379714
vn -0.707623 0.595892 -0.379714
vn -0.707623 0.595892 -0.379714
vn -0.863816 0.340143 -0.371651
vn -0.863816 0.340143 -0.371651
vn -0.863816 0.340143 -0.371651
vn -0.863816 0.340143 -0.371651
vn 0.949245 -0.046945 0.311015
vn 0.949245 -0.046945 0.311015
vn 0.949245 -0.046945 0.311015
vn 0.949245 -0.046945 0.311015
vn 0.580439 -0.728181 0.364476
vn 0.580439 -0.728181 0.364476
vn 0.580439 -0.728181 0.364476
vn 0.699270 -0.607440 0.376879
vn 0.699270 -0.607440 0.376879
vn 0.699270 -0.607440 0.376879
vn 0.699270 -0.607440 0.376879
vn 0.860568 -0.349172 0.370811
vn 0.860569 -0.349172 0.370811
vn 0.860569 -0.349172 0.370811
vn 0.860568 -0.349172 0.370811
vn 0.000002 -1.000000 0.000001
vn 0.000002 -1.000000 0.000001
vn 0.000002 -1.000000 0.000001
vn 0.000002 -1.000000 0.000001
vn 0.316391 0.038984 -0.947828
vn 0.316391 0.038984 -0.947827
vn 0.371410 0.068151 -0.925964
vn 0.379337 0.072400 -0.922422
vn -0.350543 0.048443 0.935293
vn -0.347974 0.047392 0.936306
vn -0.312586 0.032993 0.949316
vn -0.312586 0.032993 0.949316
vn 0.573389 0.120903 -0.810313
vn 0.573173 0.120883 -0.810469
vn 0.618809 0.125010 -0.775531
vn -0.421581 0.115404 0.899417
vn -0.430372 0.084234 0.898713
vn -0.430402 0.084128 0.898709
vn 0.496022 0.109370 -0.861394
vn 0.493342 0.108913 -0.862990
vn -0.409330 0.066180 0.909983
vn -0.409488 0.066209 0.909910
vn 0.616138 0.062288 0.785171
vn 0.616138 0.062288 0.785171
vn 0.616138 0.062288 0.785171
vn 0.616138 0.062288 0.785171
vn -0.132993 0.900528 0.413959
vn -0.132993 0.900528 0.413959
vn -0.132993 0.900528 0.413959
vn 0.239818 0.730696 0.639195
vn 0.239818 0.730696 0.639195
vn 0.239818 0.730696 0.639195
vn 0.239818 0.730696 0.639195
vn 0.520132 0.451836 0.724780
vn 0.520132 0.451836 0.724780
vn 0.520132 0.451836 0.724780
vn 0.520132 0.451836 0.724780
vn -0.616046 -0.064792 -0.785041
vn -0.616046 -0.064792 -0.785041
vn -0.616046 -0.064792 -0.785041
vn -0.616046 -0.064792 -0.785041
vn 0.054211 -0.846255 -0.530013
vn 0.054211 -0.846255 -0.530013
vn 0.054211 -0.846255 -0.530013
vn -0.234463 -0.737491 -0.633352
vn -0.234463 -0.737491 -0.633352
vn -0.234463 -0.737491 -0.633352
vn -0.234463 -0.737491 -0.633352
vn -0.514621 -0.467304 -0.718883
vn -0.514621 -0.467304 -0.718883
vn -0.514621 -0.467304 -0.718883
vn -0.514621 -0.467304 -0.718883
vn -0.000001 -1.000000 -0.000002
vn -0.000001 -1.000000 -0.000002
vn -0.000001 -1.000000 -0.000002
vn -0.000001 -1.000000 -0.000002
vn -0.786856 0.074172 0.612663
vn -0.786856 0.074172 0.612663
vn -0.812386 0.098323 0.574772
vn -0.819540 0.105435 0.563239
vn 0.794229 0.045848 -0.605887
vn 0.792901 0.038149 -0.608155
vn 0.786539 0.004747 -0.617522
vn 0.786539 0.004747 -0.617522
vn -0.948035 -0.104213 0.300613
vn -0.948362 -0.104820 0.299369
vn -0.970127 -0.159501 0.182792
vn 0.836295 0.329221 -0.438434
vn 0.837074 0.260873 -0.480888
vn 0.836935 0.256306 -0.483578
vn -0.910006 -0.000670 0.414595
vn -0.909262 0.001414 0.416221
vn 0.825267 0.174355 -0.537154
vn 0.823937 0.168565 -0.541031
vn 0.247180 0.110741 -0.962621
vn 0.247180 0.110741 -0.962621
vn 0.247180 0.110741 -0.962621
vn 0.247180 0.110741 -0.962621
vn 0.306630 0.950173 0.056116
vn 0.306630 0.950173 0.056116
vn 0.306630 0.950173 0.056116
vn 0.487183 0.766343 -0.418774
vn 0.487183 0.766343 -0.418774
vn 0.487183 0.766343 -0.418774
vn 0.487183 0.766343 -0.418774
vn 0.454614 0.436698 -0.776287
vn 0.454613 0.436698 -0.776287
vn 0.454614 0.436698 -0.776287
vn 0.454614 0.436698 -0.776287
vn -0.247173 -0.112994 0.962361
vn -0.247173 -0.112994 0.962361
vn -0.247173 -0.112994 0.962361
vn -0.247173 -0.112994 0.962361
vn -0.365144 -0.929236 0.056474
vn -0.365144 -0.929236 0.056474
vn -0.365144 -0.929236 0.056474
vn -0.483237 -0.775070 0.407121
vn -0.483237 -0.775070 0.407121
vn -0.483237 -0.775070 0.407121
vn -0.483237 -0.775070 0.407121
vn -0.454135 -0.442144 0.773479
vn -0.454135 -0.442144 0.773479
vn -0.454135 -0.442144 0.773479
vn -0.454135 -0.442144 0.773479
vn -0.000000 -1.000000 0.000002
vn -0.000000 -1.000000 0.000002
vn -0.000000 -1.000000 0.000002
vn -0.000000 -1.000000 0.000002
vn 0.954719 -0.179257 0.237441
vn 0.954719 -0.179257 0.237441
vn 0.917936 -0.110589 0.381003
vn 0.903974 -0.091750 0.417629
vn -0.909106 0.166370 -0.381900
vn -0.909605 0.167159 -0.380364
vn -0.943516 0.239475 -0.228975
vn -0.943516 0.239475 -0.228975
vn 0.654850 -0.056739 0.753626
vn 0.656867 -0.053944 0.752075
vn 0.634127 -0.084703 0.768575
vn -0.789886 0.246979 -0.561321
vn -0.797299 0.243145 -0.552444
vn -0.796655 0.243482 -0.553225
vn 0.750229 -0.033897 0.660309
vn 0.749929 -0.033928 0.660648
vn -0.827787 0.177165 -0.532336
vn -0.830646 0.169798 -0.530278
s off
g grass3
usemtl initialShadingGroup
f 10/19/1 13/22/2 12/21/3 11/20/4
f 15/24/5 2/2/6 14/23/7
f 17/26/8 15/24/9 14/23/10 16/25/11
f 13/22/12 17/26/13 16/25/14 12/21/15
f 3/10/16 1/11/17 8/12/18 9/13/19
f 5/14/20 4/15/21 2/16/22
f 7/17/23 6/18/24 4/15/25 5/14/26
f 9/13/27 8/12/28 6/18/29 7/17/30
f 3/3/31 10/19/32 11/20/33 1/1/34
s 1
f 1/1/35 11/20/36 12/21/37 8/8/38
s 2
f 9/9/39 13/22/40 10/19/41 3/3/42
s 1
f 4/4/43 14/23/44 2/2/45
s 2
f 2/2/46 15/24/47 5/5/48
s 1
f 6/6/49 16/25/50 14/23/44 4/4/43
s 2
f 5/5/48 15/24/47 17/26/51 7/7/52
s 1
f 8/8/38 12/21/37 16/25/50 6/6/49
s 2
f 7/7/52 17/26/51 13/22/40 9/9/39
s off
f 27/27/53 30/28/54 29/29/55 28/30/56
f 32/31/57 19/32/58 31/33/59
f 34/34/60 32/31/61 31/33/62 33/35/63
f 30/28/64 34/34/65 33/35/66 29/29/67
f 20/36/68 18/37/69 25/38/70 26/39/71
f 22/40/72 21/41/73 19/42/74
f 24/43/75 23/44/76 21/41/77 22/40/78
f 26/39/79 25/38/80 23/44/81 24/43/82
f 20/45/83 27/27/84 28/30/85 18/46/86
s 5
f 18/46/87 28/30/88 29/29/89 25/47/90
s 6
f 26/48/91 30/28/92 27/27/93 20/45/94
s 5
f 21/49/95 31/33/96 19/32/97
s 6
f 19/32/98 32/31/99 22/50/100
s 5
f 23/51/101 33/35/102 31/33/96 21/49/95
s 6
f 22/50/100 32/31/99 34/34/103 24/52/104
s 5
f 25/47/90 29/29/89 33/35/102 23/51/101
s 6
f 24/52/104 34/34/103 30/28/92 26/48/91
s off
f 44/53/105 47/54/106 46/55/107 45/56/108
f 49/57/109 36/58/110 48/59/111
f 51/60/112 49/57/113 48/59/114 50/61/115
f 47/54/116 51/60/117 50/61/118 46/55/119
f 37/62/120 35/63/121 42/64/122 43/65/123
f 39/66/124 38/67/125 36/68/126
f 41/69/127 40/70/128 38/67/129 39/66/130
f 43/65/131 42/64/132 40/70/133 41/69/134
f 37/71/135 44/53/136 45/56/137 35/72/138
s 9
f 35/72/139 45/56/140 46/55/141 42/73/142
s 10
f 43/74/143 47/54/144 44/53/145 37/71/146
s 9
f 38/75/147 48/59/148 36/58/149
s 10
f 36/58/150 49/57/151 39/76/152
s 9
f 40/77/153 50/61/154 48/59/148 38/75/147
s 10
f 39/76/152 49/57/151 51/60/155 41/78/156
s 9
f 42/73/142 46/55/141 50/61/154 40/77/153
s 10
f 41/78/156 51/60/155 47/54/144 43/74/143
s off
f 61/79/157 64/80/158 63/81/159 62/82/160
f 66/83/161 53/84/162 65/85/163
f 68/86/164 66/83/165 65/85/166 67/87/167
f 64/80/168 68/86/169 67/87/170 63/81/171
f 54/88/172 52/89/173 59/90/174 60/91/175
f 56/92/176 55/93/177 53/94/178
f 58/95/179 57/96/180 55/93/181 56/92/182
f 60/91/183 59/90/184 57/96/185 58/95/186
f 54/97/187 61/79/188 62/82/189 52/98/190
s 13
f 52/98/191 62/82/192 63/81/193 59/99/194
s 14
f 60/100/195 64/80/196 61/79/197 54/97/198
s 13
f 55/101/199 65/85/200 53/84/201
s 14
f 53/84/202 66/83/203 56/102/204
s 13
f 57/103/205 67/87/206 65/85/200 55/101/199
s 14
f 56/102/204 66/83/203 68/86/207 58/104/208
s 13
f 59/99/194 63/81/193 67/87/206 57/103/205
s 14
f 58/104/208 68/86/207 64/80/196 60/100/195
s off
f 78/105/209 81/106/210 80/107/211 79/108/212
f 83/109/213 70/110/214 82/111/215
f 85/112/216 83/109/217 82/111/218 84/113/219
f 81/106/220 85/112/221 84/113/222 80/107/223
f 71/114/224 69/115/225 76/116/226 77/117/227
f 73/118/228 72/119/229 70/120/230
f 75/121/231 74/122/232 72/119/233 73/118/234
f 77/117/235 76/116/236 74/122/237 75/121/238
f 71/123/239 78/105/240 79/108/241 69/124/242
s 17
f 69/124/243 79/108/244 80/107/245 76/125/246
s 18
f 77/126/247 81/106/248 78/105/249 71/123/250
s 17
f 72/127/251 82/111/252 70/110/253
s 18
f 70/110/254 83/109/255 73/128/256
s 17
f 74/129/257 84/113/258 82/111/252 72/127/251
s 18
f 73/128/256 83/109/255 85/112/259 75/130/260
s 17
f 76/125/246 80/107/245 84/113/258 74/129/257
s 18
f 75/130/260 85/112/259 81/106/248 77/126/247
s off
f 95/131/261 98/132/262 97/133/263 96/134/264
f 100/135/265 87/136/266 99/137/267
f 102/138/268 100/135/269 99/137/270 101/139/271
f 98/132/272 102/138/273 101/139/274 97/133/275
f 88/140/276 86/141/277 93/142/278 94/143/279
f 90/144/280 89/145/281 87/146/282
f 92/147/283 91/148/284 89/145/285 90/144/286
f 94/143/287 93/142/288 91/148/289 92/147/290
f 88/149/291 95/131/292 96/134/293 86/150/294
s 21
f 86/150/295 96/134/296 97/133/297 93/151/298
s 22
f 94/152/299 98/132/300 95/131/301 88/149/302
s 21
f 89/153/303 99/137/304 87/136/305
s 22
f 87/136/306 100/135/307 90/154/308
s 21
f 91/155/309 101/139/310 99/137/304 89/153/303
s 22
f 90/154/308 100/135/307 102/138/311 92/156/312
s 21
f 93/151/298 97/133/297 101/139/310 91/155/309
s 22
f 92/156/312 102/138/311 98/132/300 94/152/299
s off
f 112/157/313 115/158/314 114/159/315 113/160/316
f 117/161/317 104/162/318 116/163/319
f 119/164/320 117/161/321 116/163/322 118/165/323
f 115/158/324 119/164/325 118/165/326 114/159/327
f 105/166/328 103/167/329 110/168/330 111/169/331
f 107/170/332 106/171/333 104/172/334
f 109/173/335 108/174/336 106/171/337 107/170/338
f 111/169/339 110/168/340 108/174/341 109/173/342
f 105/175/343 112/157/344 113/160/345 103/176/346
s 25
f 103/176/347 113/160/348 114/159/349 110/177/350
s 26
f 111/178/351 115/158/352 112/157/353 105/175/354
s 25
f 106/179/355 116/163/356 104/162/357
s 26
f 104/162/358 117/161/359 107/180/360
s 25
f 108/181/361 118/165/362 116/163/356 106/179/355
s 26
f 107/180/360 117/161/359 119/164/363 109/182/364
s 25
f 110/177/350 114/159/349 118/165/362 108/181/361
s 26
f 109/182/364 119/164/363 115/158/352 111/178/351
