# This file uses centimeters as units for non-parametric coordinates.

mtllib mushroom4.mtl
g default
v 36.623661 6.500417 -1.968544
v 34.488388 6.896273 -2.684184
v 32.466190 7.129211 -1.775870
v 31.687435 7.211349 0.268281
v 32.603168 7.142242 2.187428
v 34.582378 6.953885 3.029239
v 36.397820 6.693096 2.271365
v 37.449188 6.389067 0.106328
v 34.373207 4.972250 0.274057
v 37.059128 5.237142 -2.520279
v 38.163136 5.018614 0.162339
v 36.763840 5.363824 2.801741
v 34.554527 5.729659 3.628592
v 32.069920 6.024214 2.585001
v 30.899868 6.101390 0.262488
v 31.720833 5.936440 -2.365671
v 34.299999 5.762066 -3.464713
v 35.990562 7.491215 0.801121
v 34.052330 7.779999 1.670707
v 33.188526 7.852253 -0.321930
v 35.226635 7.551735 -1.234311
v 36.927418 4.330148 -2.462083
v 36.523891 4.014222 -2.081709
v 34.210808 4.811642 -3.431113
v 34.185738 4.389914 -2.963601
v 31.620770 4.958584 -2.395091
v 31.921730 4.520022 -2.086150
v 30.874287 5.183935 0.254490
v 31.294601 4.737960 0.242465
v 32.013210 5.110034 2.575559
v 32.275101 4.676965 2.298273
v 34.447376 4.774859 3.598264
v 34.379524 4.368866 3.182212
v 36.667316 4.379611 2.767506
v 36.351734 4.016405 2.432886
v 38.032284 4.114209 0.191474
v 37.487103 3.842753 0.212516
v 35.449127 0.000000 -0.664722
v 34.611824 0.000000 -1.169954
v 33.731510 0.000000 -0.888869
v 33.334370 0.000000 0.022452
v 33.682243 0.000000 1.048800
v 34.549213 -0.000000 1.565005
v 35.411079 -0.000000 1.263457
v 35.777363 0.000000 0.334021
v 35.407665 5.105111 -0.731072
v 34.709305 5.095549 -1.037455
v 34.006519 5.079923 -0.747670
v 33.709290 5.062272 -0.026577
v 34.000519 5.056645 0.685525
v 34.705475 5.080680 0.974670
v 35.405060 5.094998 0.691388
v 35.694340 5.104647 -0.012004
v 35.293423 1.213494 -0.465169
v 35.557682 1.201724 0.387041
v 35.252487 1.190009 1.164164
v 34.519428 1.189862 1.430500
v 33.813347 1.205307 0.957785
v 33.564526 1.223906 0.029624
v 33.849682 1.225772 -0.659231
v 34.563484 1.219687 -0.849638
v 35.235325 2.753723 -0.432218
v 35.490410 2.752021 0.268256
v 35.231068 2.744920 0.908216
v 34.586723 2.731311 1.154479
v 33.967480 2.720892 0.790908
v 33.741199 2.727702 0.025644
v 33.974098 2.738630 -0.555716
v 34.594566 2.749282 -0.747247
v 35.202900 4.036666 -0.458588
v 35.428566 4.035712 0.141737
v 35.201237 4.030213 0.698093
v 34.654205 4.018493 0.885929
v 34.103699 3.998555 0.606109
v 33.889664 4.001366 -0.016901
v 34.109295 4.020260 -0.563008
v 34.657707 4.032077 -0.753500
v 35.442616 0.422773 -0.629027
v 35.760090 0.408901 0.376581
v 35.392662 0.396270 1.308285
v 34.541317 0.398508 1.590827
v 33.677574 0.416812 1.067290
v 33.349953 0.439854 0.004716
v 33.729252 0.444435 -0.878193
v 34.610344 0.435281 -1.147101
vt 0.181037 0.862252
vt 0.122113 0.784861
vt 0.125613 0.688342
vt 0.200172 0.625687
vt 0.290199 0.635554
vt 0.353014 0.703240
vt 0.350195 0.787499
vt 0.279372 0.867335
vt 0.158311 0.918894
vt 0.280093 0.786817
vt 0.284951 0.701895
vt 0.198419 0.695589
vt 0.192005 0.786571
vt 0.145580 0.954882
vt 0.153306 0.199531
vt 0.070479 0.276773
vt 0.264839 0.206475
vt 0.058793 0.385063
vt 0.139350 0.457644
vt 0.241465 0.459612
vt 0.319789 0.392348
vt 0.330651 0.297090
vt 0.025833 0.820157
vt 0.034448 0.647370
vt 0.064650 0.804622
vt 0.167843 0.537927
vt 0.070059 0.662820
vt 0.335271 0.549812
vt 0.180410 0.572990
vt 0.446253 0.681739
vt 0.315462 0.584977
vt 0.442481 0.834896
vt 0.408121 0.691794
vt 0.317470 0.959135
vt 0.405892 0.814406
vt 0.303118 0.925840
vt 0.201715 0.337438
vt 0.459501 0.846335
vt 0.327163 0.977510
vt 0.466445 0.673468
vt 0.347209 0.532389
vt 0.160847 0.514651
vt 0.016706 0.639488
vt 0.003174 0.830098
vt 0.136901 0.975225
vt 0.506908 0.604538
vt 0.532231 0.604538
vt 0.532231 0.630014
vt 0.506908 0.630014
vt 0.557555 0.604538
vt 0.557555 0.630014
vt 0.582879 0.604538
vt 0.582879 0.630014
vt 0.608202 0.604538
vt 0.608202 0.630014
vt 0.633526 0.604538
vt 0.633526 0.630014
vt 0.658849 0.604538
vt 0.658849 0.630014
vt 0.684173 0.604538
vt 0.684173 0.630014
vt 0.709496 0.604538
vt 0.709496 0.630014
vt 0.684173 0.677672
vt 0.709496 0.677672
vt 0.709496 0.768092
vt 0.684173 0.768092
vt 0.658849 0.677672
vt 0.658849 0.768092
vt 0.633526 0.677672
vt 0.633526 0.768092
vt 0.608202 0.677672
vt 0.608202 0.768092
vt 0.582879 0.677672
vt 0.582879 0.768092
vt 0.557555 0.677672
vt 0.557555 0.768092
vt 0.532231 0.677672
vt 0.532231 0.768092
vt 0.506908 0.677672
vt 0.506908 0.768092
vt 0.709496 0.844023
vt 0.684173 0.844023
vt 0.658849 0.844023
vt 0.633526 0.844023
vt 0.608202 0.844023
vt 0.582879 0.844023
vt 0.557555 0.844023
vt 0.532231 0.844023
vt 0.506908 0.844023
vt 0.709496 0.908421
vt 0.684173 0.908421
vt 0.658849 0.908421
vt 0.633526 0.908421
vt 0.608202 0.908421
vt 0.582879 0.908421
vt 0.557555 0.908421
vt 0.532231 0.908421
vt 0.506908 0.908421
vn 0.299666 0.866859 0.398441
vn 0.299666 0.866859 0.398441
vn 0.299666 0.866859 0.398441
vn 0.299666 0.866859 0.398441
vn 0.847138 0.428783 -0.313850
vn 0.847138 0.428783 -0.313850
vn 0.847138 0.428783 -0.313850
vn 0.847138 0.428783 -0.313850
vn 0.832601 0.413180 0.368861
vn 0.832601 0.413180 0.368861
vn 0.832601 0.413180 0.368861
vn 0.832600 0.413180 0.368861
vn 0.388527 0.415355 0.822513
vn 0.388527 0.415355 0.822513
vn 0.388527 0.415355 0.822513
vn 0.388527 0.415355 0.822513
vn -0.310216 0.434259 0.845686
vn -0.310216 0.434260 0.845686
vn -0.310216 0.434260 0.845686
vn -0.310216 0.434259 0.845686
vn -0.759707 0.519218 0.391483
vn -0.759707 0.519218 0.391483
vn -0.759707 0.519218 0.391483
vn -0.759707 0.519218 0.391483
vn -0.759991 0.581176 -0.290943
vn -0.759991 0.581176 -0.290943
vn -0.759991 0.581176 -0.290943
vn -0.759991 0.581176 -0.290943
vn -0.286034 0.568862 -0.771090
vn -0.286034 0.568862 -0.771090
vn -0.286034 0.568862 -0.771090
vn -0.286034 0.568862 -0.771090
vn 0.361411 0.481085 -0.798711
vn 0.361411 0.481085 -0.798711
vn 0.361411 0.481085 -0.798711
vn 0.361411 0.481085 -0.798711
vn 0.651792 0.727472 0.214361
vn 0.651792 0.727473 0.214361
vn 0.651792 0.727473 0.214361
vn -0.159655 0.814586 0.557638
vn -0.159655 0.814586 0.557638
vn -0.159655 0.814586 0.557638
vn 0.321233 0.790764 -0.521058
vn 0.321233 0.790764 -0.521058
vn 0.321233 0.790764 -0.521058
vn -0.060720 0.913196 -0.402972
vn -0.060720 0.913196 -0.402972
vn -0.060720 0.913196 -0.402972
vn -0.060720 0.913196 -0.402972
vn -0.451880 0.867725 -0.207019
vn -0.451880 0.867726 -0.207019
vn -0.451880 0.867726 -0.207019
vn -0.331794 0.925160 0.184371
vn -0.331794 0.925160 0.184371
vn -0.331794 0.925160 0.184371
vn -0.331794 0.925160 0.184371
vn 0.136656 0.990361 -0.022578
vn 0.136656 0.990361 -0.022578
vn 0.136656 0.990361 -0.022578
vn 0.136656 0.990361 -0.022578
vn 0.536416 0.826055 -0.172891
vn 0.536416 0.826055 -0.172891
vn 0.536416 0.826055 -0.172891
vn 0.536416 0.826055 -0.172891
vn 0.097396 -0.774717 -0.624762
vn 0.097396 -0.774717 -0.624762
vn 0.097396 -0.774717 -0.624762
vn 0.097396 -0.774717 -0.624762
vn 0.431775 -0.867112 -0.248368
vn 0.431775 -0.867112 -0.248368
vn 0.431775 -0.867112 -0.248368
vn 0.431775 -0.867112 -0.248368
vn -0.299067 -0.690416 -0.658699
vn -0.299067 -0.690416 -0.658699
vn -0.299067 -0.690416 -0.658699
vn -0.299067 -0.690416 -0.658699
vn -0.741992 -0.654211 -0.146480
vn -0.741992 -0.654211 -0.146480
vn -0.741992 -0.654211 -0.146480
vn -0.741992 -0.654211 -0.146480
vn -0.695851 -0.644394 0.317092
vn -0.695851 -0.644394 0.317092
vn -0.695851 -0.644394 0.317092
vn -0.695851 -0.644394 0.317092
vn -0.372767 -0.640788 0.671145
vn -0.372767 -0.640788 0.671145
vn -0.372767 -0.640788 0.671145
vn -0.372767 -0.640789 0.671145
vn 0.126258 -0.724367 0.677755
vn 0.126258 -0.724367 0.677755
vn 0.126258 -0.724367 0.677755
vn 0.126258 -0.724367 0.677755
vn 0.481459 -0.813796 0.325475
vn 0.481459 -0.813796 0.325475
vn 0.481459 -0.813796 0.325475
vn 0.481459 -0.813796 0.325475
vn 0.314890 -0.084172 -0.945389
vn 0.314890 -0.084172 -0.945389
vn 0.314890 -0.084172 -0.945389
vn 0.314890 -0.084172 -0.945389
vn -0.379643 0.035257 -0.924461
vn -0.379643 0.035257 -0.924461
vn -0.379643 0.035257 -0.924461
vn -0.379643 0.035257 -0.924461
vn -0.954927 0.069009 -0.288709
vn -0.954927 0.069009 -0.288709
vn -0.954927 0.069009 -0.288709
vn -0.954927 0.069009 -0.288709
vn -0.894369 0.035935 0.445885
vn -0.894369 0.035935 0.445885
vn -0.894369 0.035935 0.445885
vn -0.894369 0.035935 0.445885
vn -0.385714 0.014189 0.922509
vn -0.385714 0.014189 0.922509
vn -0.385714 0.014189 0.922509
vn -0.385714 0.014189 0.922509
vn 0.339609 -0.066911 0.938184
vn 0.339609 -0.066911 0.938184
vn 0.339609 -0.066911 0.938184
vn 0.339609 -0.066911 0.938184
vn 0.873340 -0.106423 0.475344
vn 0.873340 -0.106423 0.475344
vn 0.873340 -0.106423 0.475344
vn 0.873340 -0.106423 0.475344
vn 0.909053 -0.150502 -0.388550
vn 0.909053 -0.150502 -0.388550
vn 0.909053 -0.150502 -0.388550
vn 0.909053 -0.150502 -0.388550
vn -0.223565 -0.956958 0.185067
vn -0.223565 -0.956958 0.185067
vn -0.223565 -0.956958 0.185067
vn 0.011784 -0.984257 0.176350
vn 0.011784 -0.984257 0.176350
vn 0.011784 -0.984257 0.176350
vn 0.074249 -0.990848 0.112731
vn 0.074249 -0.990848 0.112731
vn 0.074249 -0.990848 0.112731
vn 0.076391 -0.994894 -0.065952
vn 0.076391 -0.994894 -0.065952
vn 0.076391 -0.994894 -0.065952
vn -0.057977 -0.977525 -0.202691
vn -0.057977 -0.977525 -0.202691
vn -0.057977 -0.977525 -0.202691
vn -0.244354 -0.949571 -0.196486
vn -0.244354 -0.949571 -0.196486
vn -0.244354 -0.949571 -0.196486
vn -0.341004 -0.934590 -0.101276
vn -0.341004 -0.934590 -0.101276
vn -0.341004 -0.934590 -0.101276
vn -0.338840 -0.938074 0.072148
vn -0.338840 -0.938074 0.072148
vn -0.338840 -0.938074 0.072148
vn 0.521877 0.062905 -0.850698
vn 0.521877 0.062905 -0.850698
vn 0.521877 0.062905 -0.850699
vn 0.521877 0.062905 -0.850698
vn -0.297705 0.035095 -0.954013
vn -0.297705 0.035095 -0.954013
vn -0.297705 0.035095 -0.954013
vn -0.297705 0.035095 -0.954013
vn -0.917711 0.010661 -0.397105
vn -0.917711 0.010661 -0.397105
vn -0.917711 0.010661 -0.397105
vn -0.917711 0.010661 -0.397105
vn -0.951384 0.011846 0.307780
vn -0.951384 0.011846 0.307780
vn -0.951384 0.011846 0.307780
vn -0.951384 0.011846 0.307780
vn -0.514633 -0.054443 0.855680
vn -0.514633 -0.054443 0.855680
vn -0.514633 -0.054443 0.855680
vn -0.514633 -0.054443 0.855680
vn 0.321742 -0.073260 0.943989
vn 0.321742 -0.073260 0.943989
vn 0.321742 -0.073260 0.943989
vn 0.321742 -0.073260 0.943989
vn 0.930313 0.001436 0.366764
vn 0.930313 0.001436 0.366764
vn 0.930313 0.001436 0.366764
vn 0.930313 0.001436 0.366764
vn 0.950449 0.055955 -0.305804
vn 0.950449 0.055955 -0.305804
vn 0.950449 0.055955 -0.305804
vn 0.950449 0.055955 -0.305804
vn 0.948016 0.029659 -0.316837
vn 0.948016 0.029659 -0.316837
vn 0.948016 0.029659 -0.316837
vn 0.948016 0.029659 -0.316837
vn 0.926319 0.071104 0.369971
vn 0.926319 0.071104 0.369971
vn 0.926319 0.071104 0.369971
vn 0.926319 0.071104 0.369971
vn 0.343262 0.154092 0.926513
vn 0.343262 0.154092 0.926513
vn 0.343262 0.154092 0.926513
vn 0.343262 0.154092 0.926513
vn -0.526414 0.159132 0.835204
vn -0.526414 0.159132 0.835204
vn -0.526414 0.159132 0.835204
vn -0.526414 0.159132 0.835204
vn -0.955404 0.119946 0.269844
vn -0.955404 0.119946 0.269844
vn -0.955404 0.119946 0.269844
vn -0.955404 0.119946 0.269844
vn -0.921265 0.104314 -0.374686
vn -0.921265 0.104314 -0.374686
vn -0.921265 0.104314 -0.374686
vn -0.921265 0.104314 -0.374686
vn -0.274590 0.078892 -0.958320
vn -0.274590 0.078892 -0.958320
vn -0.274590 0.078892 -0.958320
vn -0.274590 0.078892 -0.958320
vn 0.454173 0.043228 -0.889864
vn 0.454173 0.043228 -0.889864
vn 0.454173 0.043228 -0.889864
vn 0.454173 0.043228 -0.889864
vn 0.937910 0.013800 -0.346606
vn 0.937909 0.013800 -0.346606
vn 0.937909 0.013800 -0.346606
vn 0.937909 0.013800 -0.346606
vn 0.922846 0.082240 0.376288
vn 0.922846 0.082240 0.376288
vn 0.922846 0.082240 0.376288
vn 0.922846 0.082240 0.376288
vn 0.334354 0.167675 0.927412
vn 0.334354 0.167675 0.927412
vn 0.334354 0.167675 0.927412
vn 0.334354 0.167675 0.927412
vn -0.476968 0.189578 0.858232
vn -0.476968 0.189578 0.858232
vn -0.476968 0.189578 0.858232
vn -0.476968 0.189578 0.858232
vn -0.944577 0.132177 0.300505
vn -0.944577 0.132177 0.300505
vn -0.944577 0.132177 0.300505
vn -0.944577 0.132177 0.300505
vn -0.924671 0.095457 -0.368609
vn -0.924671 0.095457 -0.368609
vn -0.924671 0.095457 -0.368609
vn -0.924671 0.095457 -0.368609
vn -0.310931 0.019029 -0.950242
vn -0.310931 0.019029 -0.950242
vn -0.310931 0.019029 -0.950242
vn -0.310931 0.019029 -0.950242
vn 0.457398 -0.016781 -0.889104
vn 0.457398 -0.016781 -0.889104
vn 0.457398 -0.016781 -0.889104
vn 0.457398 -0.016781 -0.889104
vn 0.898160 -0.267334 -0.349057
vn 0.898160 -0.267334 -0.349057
vn 0.898160 -0.267334 -0.349057
vn 0.898161 -0.267334 -0.349057
vn 0.912040 -0.172751 0.371941
vn 0.912040 -0.172751 0.371941
vn 0.912040 -0.172751 0.371941
vn 0.912040 -0.172751 0.371941
vn 0.353860 -0.078386 0.932008
vn 0.353860 -0.078386 0.932008
vn 0.353860 -0.078386 0.932008
vn 0.353860 -0.078386 0.932008
vn -0.409001 -0.082092 0.908834
vn -0.409001 -0.082092 0.908834
vn -0.409001 -0.082092 0.908834
vn -0.409001 -0.082092 0.908834
vn -0.926917 -0.135553 0.349929
vn -0.926917 -0.135553 0.349929
vn -0.926917 -0.135553 0.349929
vn -0.926917 -0.135553 0.349929
vn -0.912954 -0.156443 -0.376884
vn -0.912954 -0.156443 -0.376884
vn -0.912954 -0.156443 -0.376884
vn -0.912954 -0.156443 -0.376884
vn -0.346337 -0.210146 -0.914270
vn -0.346337 -0.210146 -0.914270
vn -0.346337 -0.210146 -0.914270
vn -0.346337 -0.210146 -0.914270
vn 0.420931 -0.276135 -0.864041
vn 0.420931 -0.276135 -0.864041
vn 0.420931 -0.276135 -0.864041
vn 0.420931 -0.276135 -0.864041
vn 0.927901 0.237644 -0.287271
vn 0.927901 0.237644 -0.287271
vn 0.927901 0.237644 -0.287271
vn 0.927901 0.237644 -0.287271
vn 0.905380 0.225791 0.359590
vn 0.905380 0.225791 0.359590
vn 0.905380 0.225791 0.359590
vn 0.905380 0.225791 0.359590
vn 0.320277 0.210164 0.923717
vn 0.320277 0.210164 0.923717
vn 0.320277 0.210164 0.923717
vn 0.320277 0.210164 0.923717
vn -0.524323 0.179950 0.832288
vn -0.524323 0.179950 0.832288
vn -0.524323 0.179950 0.832288
vn -0.524323 0.179950 0.832288
vn -0.935067 0.223136 0.275428
vn -0.935067 0.223136 0.275428
vn -0.935067 0.223136 0.275428
vn -0.935067 0.223136 0.275428
vn -0.892300 0.249562 -0.376192
vn -0.892300 0.249562 -0.376192
vn -0.892300 0.249562 -0.376192
vn -0.892300 0.249562 -0.376192
vn -0.260029 0.313452 -0.913309
vn -0.260029 0.313452 -0.913309
vn -0.260029 0.313452 -0.913309
vn -0.260029 0.313452 -0.913309
vn 0.479736 0.301086 -0.824136
vn 0.479736 0.301086 -0.824136
vn 0.479736 0.301086 -0.824136
vn 0.479736 0.301086 -0.824136
s off
g mushroom4
usemtl initialShadingGroup
f 7/7/1 18/10/2 19/11/3 6/6/4
f 11/36/5 10/9/6 1/1/7 8/8/8
f 12/35/9 11/36/10 8/8/11 7/7/12
f 13/33/13 12/35/14 7/7/15 6/6/16
f 14/31/17 13/33/18 6/6/19 5/5/20
f 15/29/21 14/31/22 5/5/23 4/4/24
f 16/27/25 15/29/26 4/4/27 3/3/28
f 17/25/29 16/27/30 3/3/31 2/2/32
f 10/9/33 17/25/34 2/2/35 1/1/36
f 8/8/37 18/10/38 7/7/39
f 6/6/40 19/11/41 5/5/42
f 21/13/43 1/1/44 2/2/45
f 20/12/46 21/13/47 2/2/48 3/3/49
f 4/4/50 20/12/51 3/3/52
f 5/5/53 19/11/54 20/12/55 4/4/56
f 19/11/57 18/10/58 21/13/59 20/12/60
f 8/8/61 1/1/62 21/13/63 18/10/64
f 22/14/65 23/45/66 25/44/67 24/23/68
f 23/45/69 22/14/70 36/34/71 37/39/72
f 24/23/73 25/44/74 27/43/75 26/24/76
f 26/24/77 27/43/78 29/42/79 28/26/80
f 28/26/81 29/42/82 31/41/83 30/28/84
f 30/28/85 31/41/86 33/40/87 32/30/88
f 32/30/89 33/40/90 35/38/91 34/32/92
f 34/32/93 35/38/94 37/39/95 36/34/96
f 22/14/97 24/23/98 17/25/99 10/9/100
f 24/23/101 26/24/102 16/27/103 17/25/104
f 26/24/105 28/26/106 15/29/107 16/27/108
f 28/26/109 30/28/110 14/31/111 15/29/112
f 30/28/113 32/30/114 13/33/115 14/31/116
f 32/30/117 34/32/118 12/35/119 13/33/120
f 34/32/121 36/34/122 11/36/123 12/35/124
f 36/34/125 22/14/126 10/9/127 11/36/128
f 25/16/129 23/15/130 9/37/131
f 27/18/132 25/16/133 9/37/134
f 29/19/135 27/18/136 9/37/137
f 31/20/138 29/19/139 9/37/140
f 33/21/141 31/20/142 9/37/143
f 35/22/144 33/21/145 9/37/146
f 37/17/147 35/22/148 9/37/149
f 23/15/150 37/17/151 9/37/152
f 38/46/153 39/47/154 85/48/155 78/49/156
f 39/47/157 40/50/158 84/51/159 85/48/160
f 40/50/161 41/52/162 83/53/163 84/51/164
f 41/52/165 42/54/166 82/55/167 83/53/168
f 42/54/169 43/56/170 81/57/171 82/55/172
f 43/56/173 44/58/174 80/59/175 81/57/176
f 44/58/177 45/60/178 79/61/179 80/59/180
f 45/60/181 38/62/182 78/63/183 79/61/184
f 55/64/185 54/65/186 62/66/187 63/67/188
f 56/68/189 55/64/190 63/67/191 64/69/192
f 57/70/193 56/68/194 64/69/195 65/71/196
f 58/72/197 57/70/198 65/71/199 66/73/200
f 59/74/201 58/72/202 66/73/203 67/75/204
f 60/76/205 59/74/206 67/75/207 68/77/208
f 61/78/209 60/76/210 68/77/211 69/79/212
f 54/80/213 61/78/214 69/79/215 62/81/216
f 63/67/217 62/66/218 70/82/219 71/83/220
f 64/69/221 63/67/222 71/83/223 72/84/224
f 65/71/225 64/69/226 72/84/227 73/85/228
f 66/73/229 65/71/230 73/85/231 74/86/232
f 67/75/233 66/73/234 74/86/235 75/87/236
f 68/77/237 67/75/238 75/87/239 76/88/240
f 69/79/241 68/77/242 76/88/243 77/89/244
f 62/81/245 69/79/246 77/89/247 70/90/248
f 71/83/249 70/82/250 46/91/251 53/92/252
f 72/84/253 71/83/254 53/92/255 52/93/256
f 73/85/257 72/84/258 52/93/259 51/94/260
f 74/86/261 73/85/262 51/94/263 50/95/264
f 75/87/265 74/86/266 50/95/267 49/96/268
f 76/88/269 75/87/270 49/96/271 48/97/272
f 77/89/273 76/88/274 48/97/275 47/98/276
f 70/90/277 77/89/278 47/98/279 46/99/280
f 79/61/281 78/63/282 54/65/283 55/64/284
f 80/59/285 79/61/286 55/64/287 56/68/288
f 81/57/289 80/59/290 56/68/291 57/70/292
f 82/55/293 81/57/294 57/70/295 58/72/296
f 83/53/297 82/55/298 58/72/299 59/74/300
f 84/51/301 83/53/302 59/74/303 60/76/304
f 85/48/305 84/51/306 60/76/307 61/78/308
f 78/49/309 85/48/310 61/78/311 54/80/312
