# This file uses centimeters as units for non-parametric coordinates.

mtllib mushroom3.mtl
g default
v 35.197613 0.000001 8.479028
v 34.571548 0.000001 8.076934
v 33.904137 0.000001 8.301497
v 33.572338 0.000001 8.985653
v 33.783733 0.000000 9.779831
v 34.401890 -0.000000 10.157099
v 35.042366 -0.000000 9.932354
v 35.362267 0.000000 9.239249
v 35.221291 5.433898 9.101806
v 34.721725 5.420824 8.825050
v 34.230026 5.370154 8.895046
v 34.062847 5.293578 9.304076
v 34.290070 5.273382 9.829898
v 34.781475 5.331172 10.162833
v 35.253681 5.390014 10.077181
v 35.440487 5.421258 9.621895
v 35.095596 1.212299 8.623011
v 35.235752 1.169467 9.276332
v 34.979458 1.144094 9.855817
v 34.433010 1.151734 10.048061
v 33.929924 1.186042 9.713996
v 33.783375 1.246214 8.966752
v 34.015720 1.246057 8.457957
v 34.550514 1.241676 8.303530
v 35.096016 2.896072 9.109514
v 35.284363 2.874700 9.635130
v 35.100018 2.852705 10.066517
v 34.651047 2.821781 10.170720
v 34.212521 2.794655 9.821111
v 34.041744 2.847210 9.220894
v 34.183811 2.888962 8.880721
v 34.631523 2.908162 8.826596
v 35.086201 4.294061 9.362924
v 35.256546 4.283836 9.795312
v 35.107834 4.269586 10.155800
v 34.737225 4.236531 10.209602
v 34.358711 4.191298 9.886028
v 34.189278 4.216971 9.420757
v 34.306568 4.278422 9.132652
v 34.693878 4.297987 9.101850
v 35.195709 0.419626 8.500254
v 35.352837 0.371101 9.269541
v 35.033100 0.347701 9.965080
v 34.402130 0.360174 10.176122
v 33.787098 0.405596 9.794758
v 33.593536 0.469837 8.959033
v 33.910591 0.476703 8.297089
v 34.575558 0.458766 8.087558
v 38.100128 7.147904 8.301270
v 35.912319 7.451311 6.838475
v 33.335690 7.255570 7.000165
v 31.564371 6.644912 8.737468
v 31.736668 6.180382 11.073901
v 33.580357 6.067119 12.780143
v 35.861771 6.229900 12.722845
v 38.021767 6.503725 10.784923
v 34.829628 5.131818 9.657089
v 38.961163 6.245523 7.767010
v 38.961369 5.196001 10.893880
v 36.242733 5.041698 13.272260
v 33.496185 4.906700 13.254431
v 31.158348 5.087209 11.125679
v 30.888447 5.645743 8.271226
v 32.983143 6.352572 5.961908
v 36.154079 6.656889 5.851155
v 35.938744 7.242961 11.130804
v 33.463108 7.067085 11.249486
v 33.355495 7.528171 8.852433
v 36.067398 7.749165 8.681938
v 38.917274 5.462926 7.684419
v 38.352013 5.071804 7.898907
v 36.184620 5.854560 5.750599
v 36.042000 5.405881 6.178124
v 33.037560 5.537295 5.783630
v 33.285397 5.114622 6.172424
v 31.004047 4.883606 8.152153
v 31.517136 4.546346 8.265424
v 31.242161 4.326666 10.992994
v 31.698082 4.055745 10.770196
v 33.540123 4.111604 13.074164
v 33.690720 3.857256 12.569299
v 36.307686 4.217478 13.085784
v 36.162579 3.945484 12.565471
v 38.952450 4.380246 10.751272
v 38.403263 4.126857 10.536392
vt 0.506908 0.604538
vt 0.532231 0.604538
vt 0.557555 0.604538
vt 0.582879 0.604538
vt 0.608202 0.604538
vt 0.633526 0.604538
vt 0.658849 0.604538
vt 0.684173 0.604538
vt 0.709496 0.604538
vt 0.506908 0.908421
vt 0.532231 0.908421
vt 0.557555 0.908421
vt 0.582879 0.908421
vt 0.608202 0.908421
vt 0.633526 0.908421
vt 0.658849 0.908421
vt 0.684173 0.908421
vt 0.709496 0.908421
vt 0.709496 0.677672
vt 0.506908 0.677672
vt 0.684173 0.677672
vt 0.658849 0.677672
vt 0.633526 0.677672
vt 0.608202 0.677672
vt 0.582879 0.677672
vt 0.557555 0.677672
vt 0.532231 0.677672
vt 0.709496 0.768092
vt 0.506908 0.768092
vt 0.684173 0.768092
vt 0.658849 0.768092
vt 0.633526 0.768092
vt 0.608202 0.768092
vt 0.582879 0.768092
vt 0.557555 0.768092
vt 0.532231 0.768092
vt 0.709496 0.844023
vt 0.506908 0.844023
vt 0.684173 0.844023
vt 0.658849 0.844023
vt 0.633526 0.844023
vt 0.608202 0.844023
vt 0.582879 0.844023
vt 0.557555 0.844023
vt 0.532231 0.844023
vt 0.709496 0.630014
vt 0.506908 0.630014
vt 0.684173 0.630014
vt 0.658849 0.630014
vt 0.633526 0.630014
vt 0.608202 0.630014
vt 0.582879 0.630014
vt 0.557555 0.630014
vt 0.532231 0.630014
vt 0.350195 0.787499
vt 0.280093 0.786817
vt 0.284951 0.701895
vt 0.353014 0.703240
vt 0.303118 0.925840
vt 0.158311 0.918894
vt 0.181037 0.862252
vt 0.279372 0.867335
vt 0.405892 0.814406
vt 0.408121 0.691794
vt 0.315462 0.584977
vt 0.290199 0.635554
vt 0.180410 0.572990
vt 0.200172 0.625687
vt 0.070059 0.662820
vt 0.125613 0.688342
vt 0.064650 0.804622
vt 0.122113 0.784861
vt 0.192005 0.786571
vt 0.198419 0.695589
vt 0.145580 0.954882
vt 0.136901 0.975225
vt 0.003174 0.830098
vt 0.025833 0.820157
vt 0.317470 0.959135
vt 0.327163 0.977510
vt 0.016706 0.639488
vt 0.034448 0.647370
vt 0.160847 0.514651
vt 0.167843 0.537927
vt 0.347209 0.532389
vt 0.335271 0.549812
vt 0.466445 0.673468
vt 0.446253 0.681739
vt 0.459501 0.846335
vt 0.442481 0.834896
vt 0.070479 0.276773
vt 0.153306 0.199531
vt 0.201715 0.337438
vt 0.058793 0.385063
vt 0.139350 0.457644
vt 0.241465 0.459612
vt 0.319789 0.392348
vt 0.330651 0.297090
vt 0.264839 0.206475
vn 0.547637 0.029008 -0.836213
vn 0.547637 0.029008 -0.836213
vn 0.547637 0.029008 -0.836213
vn 0.547637 0.029008 -0.836213
vn -0.309643 0.009781 -0.950803
vn -0.309643 0.009781 -0.950803
vn -0.309643 0.009781 -0.950803
vn -0.309643 0.009781 -0.950803
vn -0.900769 0.012090 -0.434131
vn -0.900769 0.012090 -0.434131
vn -0.900769 0.012090 -0.434131
vn -0.900769 0.012090 -0.434131
vn -0.969763 0.030437 0.242142
vn -0.969763 0.030437 0.242142
vn -0.969763 0.030437 0.242142
vn -0.969763 0.030437 0.242142
vn -0.524586 -0.035248 0.850628
vn -0.524586 -0.035248 0.850628
vn -0.524586 -0.035248 0.850628
vn -0.524586 -0.035248 0.850628
vn 0.322980 -0.064902 0.944178
vn 0.322980 -0.064902 0.944178
vn 0.322980 -0.064902 0.944178
vn 0.322979 -0.064902 0.944178
vn 0.908283 -0.013040 0.418154
vn 0.908283 -0.013040 0.418154
vn 0.908283 -0.013040 0.418154
vn 0.908283 -0.013040 0.418154
vn 0.978386 0.027371 -0.204966
vn 0.978386 0.027371 -0.204966
vn 0.978386 0.027371 -0.204966
vn 0.978386 0.027371 -0.204966
vn 0.962719 0.052268 -0.265408
vn 0.962719 0.052268 -0.265408
vn 0.962718 0.052268 -0.265408
vn 0.962718 0.052268 -0.265408
vn 0.912945 -0.110762 0.392763
vn 0.912945 -0.110762 0.392763
vn 0.912945 -0.110762 0.392763
vn 0.912945 -0.110762 0.392763
vn 0.285904 -0.122426 0.950406
vn 0.285904 -0.122426 0.950406
vn 0.285904 -0.122426 0.950406
vn 0.285904 -0.122426 0.950406
vn -0.587050 0.032952 0.808880
vn -0.587050 0.032952 0.808880
vn -0.587050 0.032952 0.808880
vn -0.587050 0.032952 0.808880
vn -0.961831 0.135342 0.237833
vn -0.961831 0.135342 0.237833
vn -0.961831 0.135342 0.237833
vn -0.961831 0.135342 0.237833
vn -0.900207 0.199154 -0.387252
vn -0.900207 0.199154 -0.387252
vn -0.900207 0.199154 -0.387252
vn -0.900207 0.199154 -0.387252
vn -0.203227 0.283177 -0.937288
vn -0.203227 0.283177 -0.937288
vn -0.203227 0.283177 -0.937288
vn -0.203227 0.283177 -0.937288
vn 0.504888 0.237778 -0.829789
vn 0.504888 0.237778 -0.829789
vn 0.504888 0.237778 -0.829789
vn 0.504888 0.237778 -0.829789
vn 0.935289 0.063825 -0.348082
vn 0.935289 0.063825 -0.348082
vn 0.935289 0.063825 -0.348082
vn 0.935289 0.063825 -0.348082
vn 0.921887 -0.027589 0.386476
vn 0.921887 -0.027589 0.386476
vn 0.921887 -0.027589 0.386476
vn 0.921887 -0.027589 0.386476
vn 0.192877 -0.050755 0.979909
vn 0.192877 -0.050755 0.979909
vn 0.192877 -0.050755 0.979909
vn 0.192877 -0.050755 0.979909
vn -0.636981 0.024198 0.770499
vn -0.636981 0.024198 0.770499
vn -0.636981 0.024198 0.770499
vn -0.636981 0.024198 0.770499
vn -0.948671 0.071232 0.308140
vn -0.948671 0.071232 0.308140
vn -0.948671 0.071232 0.308140
vn -0.948671 0.071232 0.308140
vn -0.922437 0.148714 -0.356361
vn -0.922437 0.148714 -0.356361
vn -0.922437 0.148714 -0.356361
vn -0.922437 0.148714 -0.356361
vn -0.108124 0.192215 -0.975378
vn -0.108124 0.192215 -0.975378
vn -0.108124 0.192215 -0.975378
vn -0.108124 0.192215 -0.975378
vn 0.532058 0.148065 -0.833661
vn 0.532058 0.148065 -0.833661
vn 0.532058 0.148065 -0.833661
vn 0.532058 0.148065 -0.833661
vn 0.905500 -0.198431 -0.375093
vn 0.905500 -0.198431 -0.375093
vn 0.905500 -0.198431 -0.375093
vn 0.905500 -0.198431 -0.375093
vn 0.922640 -0.092979 0.374286
vn 0.922640 -0.092979 0.374286
vn 0.922640 -0.092979 0.374286
vn 0.922640 -0.092979 0.374286
vn 0.158614 0.042227 0.986437
vn 0.158614 0.042227 0.986437
vn 0.158614 0.042227 0.986437
vn 0.158614 0.042227 0.986437
vn -0.604426 0.030860 0.796063
vn -0.604426 0.030860 0.796063
vn -0.604426 0.030860 0.796063
vn -0.604426 0.030860 0.796063
vn -0.927900 -0.054321 0.368851
vn -0.927900 -0.054321 0.368851
vn -0.927900 -0.054321 0.368851
vn -0.927900 -0.054321 0.368851
vn -0.904696 -0.149852 -0.398835
vn -0.904696 -0.149852 -0.398835
vn -0.904696 -0.149852 -0.398835
vn -0.904696 -0.149852 -0.398835
vn -0.093008 -0.227220 -0.969392
vn -0.093008 -0.227220 -0.969392
vn -0.093008 -0.227220 -0.969392
vn -0.093008 -0.227220 -0.969392
vn 0.503826 -0.233963 -0.831517
vn 0.503826 -0.233963 -0.831517
vn 0.503826 -0.233963 -0.831517
vn 0.503826 -0.233963 -0.831517
vn 0.969918 0.148138 -0.193171
vn 0.969918 0.148138 -0.193171
vn 0.969918 0.148138 -0.193171
vn 0.969918 0.148138 -0.193171
vn 0.902602 0.123138 0.412488
vn 0.902602 0.123138 0.412488
vn 0.902602 0.123138 0.412488
vn 0.902602 0.123138 0.412488
vn 0.322846 0.144420 0.935368
vn 0.322846 0.144420 0.935368
vn 0.322846 0.144420 0.935368
vn 0.322846 0.144420 0.935368
vn -0.522668 0.168764 0.835666
vn -0.522668 0.168764 0.835666
vn -0.522668 0.168764 0.835666
vn -0.522668 0.168764 0.835666
vn -0.951517 0.213707 0.221235
vn -0.951517 0.213707 0.221235
vn -0.951517 0.213707 0.221235
vn -0.951517 0.213707 0.221235
vn -0.884777 0.213990 -0.413978
vn -0.884777 0.213990 -0.413978
vn -0.884777 0.213990 -0.413978
vn -0.884777 0.213990 -0.413978
vn -0.277706 0.240142 -0.930167
vn -0.277706 0.240142 -0.930167
vn -0.277706 0.240142 -0.930167
vn -0.277706 0.240142 -0.930167
vn 0.528372 0.218360 -0.820452
vn 0.528372 0.218360 -0.820452
vn 0.528372 0.218360 -0.820452
vn 0.528372 0.218360 -0.820452
vn -0.039730 0.839598 0.541754
vn -0.039730 0.839598 0.541754
vn -0.039730 0.839598 0.541754
vn -0.039730 0.839598 0.541754
vn 0.778658 0.597592 0.191248
vn 0.778658 0.597592 0.191248
vn 0.778658 0.597592 0.191248
vn 0.778658 0.597592 0.191248
vn 0.559307 0.475108 0.679300
vn 0.559307 0.475108 0.679300
vn 0.559307 0.475108 0.679300
vn 0.559307 0.475108 0.679300
vn -0.016357 0.397777 0.917336
vn -0.016357 0.397777 0.917336
vn -0.016357 0.397777 0.917337
vn -0.016357 0.397777 0.917336
vn -0.620661 0.346630 0.703297
vn -0.620661 0.346630 0.703297
vn -0.620661 0.346630 0.703297
vn -0.620661 0.346630 0.703297
vn -0.859817 0.482083 0.168259
vn -0.859817 0.482083 0.168259
vn -0.859817 0.482083 0.168259
vn -0.859817 0.482083 0.168259
vn -0.639299 0.659031 -0.396201
vn -0.639299 0.659031 -0.396201
vn -0.639299 0.659030 -0.396201
vn -0.639299 0.659030 -0.396201
vn -0.096753 0.765465 -0.636163
vn -0.096753 0.765465 -0.636163
vn -0.096753 0.765465 -0.636163
vn -0.096753 0.765464 -0.636163
vn 0.445974 0.740582 -0.502639
vn 0.445974 0.740582 -0.502639
vn 0.445974 0.740582 -0.502639
vn 0.445974 0.740582 -0.502639
vn 0.361487 0.778609 0.512928
vn 0.361487 0.778609 0.512928
vn 0.361487 0.778609 0.512928
vn -0.432258 0.739412 0.516162
vn -0.432258 0.739412 0.516162
vn -0.432258 0.739412 0.516162
vn 0.249018 0.952583 -0.174859
vn 0.249018 0.952583 -0.174859
vn 0.249018 0.952583 -0.174859
vn -0.086924 0.985167 -0.147952
vn -0.086924 0.985167 -0.147952
vn -0.086924 0.985167 -0.147952
vn -0.086924 0.985167 -0.147952
vn -0.432152 0.892845 -0.126781
vn -0.432152 0.892845 -0.126781
vn -0.432152 0.892844 -0.126781
vn -0.453616 0.869198 0.196793
vn -0.453616 0.869198 0.196793
vn -0.453616 0.869198 0.196793
vn -0.453616 0.869198 0.196793
vn -0.064000 0.978697 0.195079
vn -0.064000 0.978697 0.195079
vn -0.064000 0.978697 0.195079
vn -0.064000 0.978697 0.195079
vn 0.337619 0.913450 0.227208
vn 0.337619 0.913450 0.227208
vn 0.337619 0.913450 0.227208
vn 0.337619 0.913450 0.227208
vn 0.327326 -0.732364 -0.597077
vn 0.327326 -0.732364 -0.597077
vn 0.327326 -0.732364 -0.597077
vn 0.327326 -0.732364 -0.597077
vn 0.477545 -0.825554 -0.300684
vn 0.477545 -0.825554 -0.300684
vn 0.477545 -0.825554 -0.300684
vn 0.477545 -0.825554 -0.300684
vn 0.066484 -0.677886 -0.732155
vn 0.066484 -0.677886 -0.732155
vn 0.066484 -0.677886 -0.732155
vn 0.066484 -0.677886 -0.732155
vn -0.391066 -0.746885 -0.537801
vn -0.391066 -0.746885 -0.537801
vn -0.391066 -0.746885 -0.537801
vn -0.391066 -0.746885 -0.537801
vn -0.537479 -0.834494 -0.121395
vn -0.537479 -0.834494 -0.121395
vn -0.537479 -0.834494 -0.121395
vn -0.537479 -0.834494 -0.121395
vn -0.372346 -0.871613 0.318825
vn -0.372346 -0.871613 0.318825
vn -0.372346 -0.871613 0.318825
vn -0.372346 -0.871613 0.318825
vn 0.032258 -0.889069 0.456634
vn 0.032258 -0.889069 0.456634
vn 0.032258 -0.889069 0.456634
vn 0.032258 -0.889069 0.456634
vn 0.340955 -0.886870 0.311787
vn 0.340955 -0.886870 0.311787
vn 0.340955 -0.886870 0.311787
vn 0.340955 -0.886870 0.311787
vn 0.577060 0.088953 -0.811843
vn 0.577060 0.088953 -0.811843
vn 0.577060 0.088953 -0.811843
vn 0.577060 0.088953 -0.811843
vn -0.038922 0.167754 -0.985060
vn -0.038922 0.167754 -0.985060
vn -0.038922 0.167754 -0.985060
vn -0.038922 0.167754 -0.985060
vn -0.755142 0.041931 -0.654219
vn -0.755142 0.041931 -0.654219
vn -0.755142 0.041931 -0.654219
vn -0.755142 0.041931 -0.654219
vn -0.988352 -0.139496 0.060839
vn -0.988352 -0.139496 0.060839
vn -0.988352 -0.139496 0.060839
vn -0.988352 -0.139496 0.060839
vn -0.668081 -0.199096 0.716958
vn -0.668081 -0.199096 0.716958
vn -0.668081 -0.199096 0.716958
vn -0.668081 -0.199096 0.716958
vn 0.004428 -0.220601 0.975354
vn 0.004428 -0.220601 0.975354
vn 0.004428 -0.220601 0.975354
vn 0.004428 -0.220601 0.975354
vn 0.659002 -0.126272 0.741466
vn 0.659002 -0.126272 0.741466
vn 0.659002 -0.126272 0.741466
vn 0.659002 -0.126272 0.741466
vn 0.999395 -0.030727 -0.016286
vn 0.999395 -0.030727 -0.016286
vn 0.999395 -0.030727 -0.016286
vn 0.999395 -0.030727 -0.016286
vn -0.067715 -0.992499 -0.101785
vn -0.067715 -0.992499 -0.101785
vn -0.067715 -0.992499 -0.101785
vn 0.105068 -0.993592 -0.041658
vn 0.105068 -0.993592 -0.041658
vn 0.105068 -0.993592 -0.041658
vn 0.209044 -0.973954 -0.087832
vn 0.209044 -0.973954 -0.087832
vn 0.209044 -0.973954 -0.087832
vn 0.252691 -0.945899 -0.203525
vn 0.252691 -0.945899 -0.203525
vn 0.252691 -0.945899 -0.203525
vn 0.201775 -0.923797 -0.325400
vn 0.201776 -0.923797 -0.325400
vn 0.201776 -0.923797 -0.325400
vn 0.032240 -0.920197 -0.390127
vn 0.032240 -0.920197 -0.390127
vn 0.032240 -0.920197 -0.390127
vn -0.190873 -0.936402 -0.294480
vn -0.190873 -0.936402 -0.294480
vn -0.190873 -0.936402 -0.294480
vn -0.179857 -0.927156 -0.328683
vn -0.179857 -0.927156 -0.328683
vn -0.179857 -0.927156 -0.328683
s off
g mushroom3
usemtl initialShadingGroup
f 1/1/1 2/2/2 48/54/3 41/47/4
f 2/2/5 3/3/6 47/53/7 48/54/8
f 3/3/9 4/4/10 46/52/11 47/53/12
f 4/4/13 5/5/14 45/51/15 46/52/16
f 5/5/17 6/6/18 44/50/19 45/51/20
f 6/6/21 7/7/22 43/49/23 44/50/24
f 7/7/25 8/8/26 42/48/27 43/49/28
f 8/8/29 1/9/30 41/46/31 42/48/32
f 18/21/33 17/19/34 25/28/35 26/30/36
f 19/22/37 18/21/38 26/30/39 27/31/40
f 20/23/41 19/22/42 27/31/43 28/32/44
f 21/24/45 20/23/46 28/32/47 29/33/48
f 22/25/49 21/24/50 29/33/51 30/34/52
f 23/26/53 22/25/54 30/34/55 31/35/56
f 24/27/57 23/26/58 31/35/59 32/36/60
f 17/20/61 24/27/62 32/36/63 25/29/64
f 26/30/65 25/28/66 33/37/67 34/39/68
f 27/31/69 26/30/70 34/39/71 35/40/72
f 28/32/73 27/31/74 35/40/75 36/41/76
f 29/33/77 28/32/78 36/41/79 37/42/80
f 30/34/81 29/33/82 37/42/83 38/43/84
f 31/35/85 30/34/86 38/43/87 39/44/88
f 32/36/89 31/35/90 39/44/91 40/45/92
f 25/29/93 32/36/94 40/45/95 33/38/96
f 34/39/97 33/37/98 9/18/99 16/17/100
f 35/40/101 34/39/102 16/17/103 15/16/104
f 36/41/105 35/40/106 15/16/107 14/15/108
f 37/42/109 36/41/110 14/15/111 13/14/112
f 38/43/113 37/42/114 13/14/115 12/13/116
f 39/44/117 38/43/118 12/13/119 11/12/120
f 40/45/121 39/44/122 11/12/123 10/11/124
f 33/38/125 40/45/126 10/11/127 9/10/128
f 42/48/129 41/46/130 17/19/131 18/21/132
f 43/49/133 42/48/134 18/21/135 19/22/136
f 44/50/137 43/49/138 19/22/139 20/23/140
f 45/51/141 44/50/142 20/23/143 21/24/144
f 46/52/145 45/51/146 21/24/147 22/25/148
f 47/53/149 46/52/150 22/25/151 23/26/152
f 48/54/153 47/53/154 23/26/155 24/27/156
f 41/47/157 48/54/158 24/27/159 17/20/160
f 55/55/161 66/56/162 67/57/163 54/58/164
f 59/59/165 58/60/166 49/61/167 56/62/168
f 60/63/169 59/59/170 56/62/171 55/55/172
f 61/64/173 60/63/174 55/55/175 54/58/176
f 62/65/177 61/64/178 54/58/179 53/66/180
f 63/67/181 62/65/182 53/66/183 52/68/184
f 64/69/185 63/67/186 52/68/187 51/70/188
f 65/71/189 64/69/190 51/70/191 50/72/192
f 58/60/193 65/71/194 50/72/195 49/61/196
f 56/62/197 66/56/198 55/55/199
f 54/58/200 67/57/201 53/66/202
f 69/73/203 49/61/204 50/72/205
f 68/74/206 69/73/207 50/72/208 51/70/209
f 52/68/210 68/74/211 51/70/212
f 53/66/213 67/57/214 68/74/215 52/68/216
f 67/57/217 66/56/218 69/73/219 68/74/220
f 56/62/221 49/61/222 69/73/223 66/56/224
f 70/75/225 71/76/226 73/77/227 72/78/228
f 71/76/229 70/75/230 84/79/231 85/80/232
f 72/78/233 73/77/234 75/81/235 74/82/236
f 74/82/237 75/81/238 77/83/239 76/84/240
f 76/84/241 77/83/242 79/85/243 78/86/244
f 78/86/245 79/85/246 81/87/247 80/88/248
f 80/88/249 81/87/250 83/89/251 82/90/252
f 82/90/253 83/89/254 85/80/255 84/79/256
f 70/75/257 72/78/258 65/71/259 58/60/260
f 72/78/261 74/82/262 64/69/263 65/71/264
f 74/82/265 76/84/266 63/67/267 64/69/268
f 76/84/269 78/86/270 62/65/271 63/67/272
f 78/86/273 80/88/274 61/64/275 62/65/276
f 80/88/277 82/90/278 60/63/279 61/64/280
f 82/90/281 84/79/282 59/59/283 60/63/284
f 84/79/285 70/75/286 58/60/287 59/59/288
f 73/91/289 71/92/290 57/93/291
f 75/94/292 73/91/293 57/93/294
f 77/95/295 75/94/296 57/93/297
f 79/96/298 77/95/299 57/93/300
f 81/97/301 79/96/302 57/93/303
f 83/98/304 81/97/305 57/93/306
f 85/99/307 83/98/308 57/93/309
f 71/92/310 85/99/311 57/93/312
