# This file uses centimeters as units for non-parametric coordinates.

mtllib rock0.mtl
g default
v -3.851535 1.455116 26.687519
v -0.367080 1.106623 29.265102
v -3.215053 4.471929 26.083110
v -0.144240 4.230774 28.004551
v 3.763222 0.967225 26.358798
v 1.573194 0.967225 28.628032
v 2.633911 4.352338 24.974624
v 1.221116 4.397301 27.353063
v -1.990918 4.501370 23.530454
v -1.025987 4.821344 23.284582
v -2.572857 0.967225 22.253619
v -1.573194 0.967225 21.253956
v 0.594922 4.825652 23.340423
v 1.937207 4.968969 23.674621
v 3.146072 0.967225 22.826834
v 0.966169 0.967225 21.253954
v -1.176502 0.086872 22.250211
v -1.924093 0.201189 22.933315
v 0.722543 0.000000 22.250210
v 2.357881 0.086875 23.161453
v 3.402920 0.495669 26.001643
v 1.272880 0.086873 27.675336
v -0.433704 0.000000 27.503932
v -2.828378 0.197062 25.765372
v -2.688071 4.681399 27.442329
v -3.477145 1.846274 28.302602
v -2.248365 0.086873 27.332296
v 3.788193 0.806433 24.098626
v 3.031623 0.333190 24.174227
v -4.251764 3.435267 26.533072
v -2.708524 3.856347 22.488866
v -1.465579 4.091103 21.859772
v 0.980253 3.884570 21.877341
v 3.050223 3.696171 22.848777
v 3.854252 2.995336 23.743007
v 3.439052 2.835680 25.925266
v 1.725375 2.536047 29.019202
v -0.260393 2.092700 29.778130
v -3.642375 3.071354 29.010586
v -1.814757 4.754931 25.257711
v 0.230977 4.532748 25.636928
v 1.563811 4.670881 25.592693
vt 0.308913 0.408945
vt 0.595251 0.289278
vt 0.429128 0.488463
vt 0.695246 0.494588
vt 0.683728 0.094336
vt 0.657428 0.942266
vt 0.263728 0.073063
vt 0.224085 0.873224
vt 0.388265 0.231988
vt 0.409242 0.709001
vt 0.330785 0.452315
vt 0.545723 0.424681
vt 0.588753 0.372311
vt 0.468308 0.225047
vt 0.478604 0.469938
vt 0.707858 0.598000
vt 0.341539 0.584062
vt 0.383235 0.529486
vt 0.509533 0.508033
vt 0.630293 0.546328
vt 0.739799 0.724499
vt 0.613780 0.861321
vt 0.499144 0.872212
vt 0.320527 0.784754
vt 0.301114 0.342315
vt 0.119889 0.306987
vt 0.377650 0.878102
vt 0.805589 0.260186
vt 0.691725 0.603173
vt 0.226855 0.426509
vt 0.419298 0.561940
vt 0.493083 0.551973
vt 0.616865 0.493673
vt 0.672957 0.376958
vt 0.703139 0.311297
vt 0.637551 0.190217
vt 0.433293 0.096236
vt 0.297543 0.114902
vt 0.193487 0.299604
vt 0.394060 0.405285
vt 0.470113 0.328863
vt 0.529157 0.294929
vt 0.751140 0.585935
vt 0.782948 0.747778
vt 0.271267 0.994522
vt 0.126487 0.476289
vt 0.514621 0.409508
vt 0.814401 0.396778
vt 0.530380 0.706991
vt 0.267551 0.539280
vt 0.434952 0.014496
vt 0.520644 1.014492
vn 0.338096 -0.344242 0.875893
vn 0.338096 -0.344242 0.875893
vn 0.338096 -0.344242 0.875893
vn 0.338096 -0.344242 0.875893
vn 0.011703 0.199144 -0.979900
vn 0.011703 0.199144 -0.979900
vn 0.011703 0.199144 -0.979900
vn 0.011703 0.199144 -0.979900
vn 0.825048 -0.033275 -0.564082
vn 0.825048 -0.033275 -0.564082
vn 0.825048 -0.033275 -0.564082
vn 0.825048 -0.033275 -0.564082
vn -0.944418 -0.098736 -0.313569
vn -0.944418 -0.098736 -0.313569
vn -0.944418 -0.098736 -0.313569
vn -0.944418 -0.098736 -0.313569
vn -0.340449 -0.461415 0.819263
vn -0.340449 -0.461415 0.819263
vn -0.340449 -0.461415 0.819263
vn -0.340449 -0.461415 0.819263
vn 0.806321 0.047611 0.589559
vn 0.806321 0.047611 0.589559
vn 0.806321 0.047611 0.589559
vn 0.806321 0.047611 0.589559
vn -0.591588 0.108977 -0.798841
vn -0.591588 0.108977 -0.798841
vn -0.591588 0.108977 -0.798841
vn -0.591588 0.108977 -0.798841
vn 0.514252 0.104735 -0.851220
vn 0.514252 0.104735 -0.851220
vn 0.514252 0.104735 -0.851220
vn 0.514252 0.104735 -0.851220
vn -0.478321 -0.756955 -0.445228
vn -0.478321 -0.756955 -0.445228
vn -0.478321 -0.756955 -0.445228
vn -0.478321 -0.756955 -0.445228
vn -0.014362 -0.733747 -0.679272
vn -0.014362 -0.733747 -0.679272
vn -0.014362 -0.733747 -0.679272
vn -0.014362 -0.733747 -0.679272
vn 0.414348 -0.672856 -0.612846
vn 0.414348 -0.672856 -0.612846
vn 0.414348 -0.672856 -0.612846
vn 0.414348 -0.672856 -0.612846
vn 0.580192 -0.754844 -0.305921
vn 0.580192 -0.754844 -0.305921
vn 0.580192 -0.754844 -0.305921
vn 0.580192 -0.754844 -0.305921
vn 0.507268 -0.714593 0.481701
vn 0.507268 -0.714593 0.481700
vn 0.507268 -0.714593 0.481701
vn 0.507268 -0.714593 0.481701
vn 0.062918 -0.809295 0.584023
vn 0.062918 -0.809295 0.584023
vn 0.062918 -0.809295 0.584023
vn 0.062918 -0.809295 0.584023
vn -0.268286 -0.719401 0.640691
vn -0.268286 -0.719401 0.640691
vn -0.268286 -0.719401 0.640691
vn -0.268286 -0.719401 0.640691
vn -0.767999 -0.611615 -0.190014
vn -0.767999 -0.611615 -0.190014
vn -0.767999 -0.611615 -0.190014
vn -0.767999 -0.611615 -0.190014
vn -0.950836 -0.207455 0.229943
vn -0.950836 -0.207455 0.229943
vn -0.950836 -0.207455 0.229943
vn -0.950836 -0.207455 0.229943
vn -0.685431 -0.678025 0.265456
vn -0.685431 -0.678025 0.265456
vn -0.685431 -0.678025 0.265456
vn -0.685431 -0.678025 0.265456
vn 0.991762 0.082200 0.098246
vn 0.991761 0.082200 0.098246
vn 0.991762 0.082200 0.098246
vn 0.991762 0.082200 0.098246
vn 0.644983 -0.764175 0.005788
vn 0.644983 -0.764175 0.005788
vn 0.644983 -0.764175 0.005788
vn 0.644983 -0.764175 0.005788
vn -0.336635 0.935978 -0.103068
vn -0.311644 0.944176 -0.106820
vn -0.264160 0.959108 -0.101648
vn -0.143119 -0.989041 -0.036252
vn -0.143119 -0.989041 -0.036252
vn -0.143119 -0.989041 -0.036252
vn -0.143119 -0.989041 -0.036252
vn -0.046271 -0.998879 -0.009975
vn -0.046271 -0.998879 -0.009975
vn -0.046271 -0.998879 -0.009975
vn -0.046271 -0.998879 -0.009975
vn 0.048334 -0.998770 0.011090
vn 0.048334 -0.998770 0.011090
vn 0.048334 -0.998770 0.011090
vn 0.048334 -0.998770 0.011090
vn 0.238764 -0.969699 0.051718
vn 0.238764 -0.969699 0.051718
vn 0.238764 -0.969699 0.051718
vn 0.238764 -0.969699 0.051718
vn -0.116534 0.986164 0.117898
vn -0.116534 0.986164 0.117898
vn -0.096500 0.987918 0.121264
vn -0.101630 0.987509 0.120407
vn 0.047623 0.994191 0.096525
vn 0.047623 0.994191 0.096525
vn 0.094526 0.989638 0.108086
vn 0.091112 0.990048 0.107251
vn 0.390695 0.895023 0.215153
vn 0.390695 0.895023 0.215153
vn 0.390695 0.895023 0.215153
vn -0.636563 0.740217 -0.216486
vn -0.636563 0.740217 -0.216486
vn -0.636563 0.740217 -0.216486
vn -0.636563 0.740217 -0.216486
vn -0.349768 0.878401 -0.325691
vn -0.349768 0.878401 -0.325691
vn -0.349768 0.878401 -0.325691
vn -0.349768 0.878401 -0.325691
vn 0.052002 0.863911 -0.500952
vn 0.052002 0.863911 -0.500952
vn 0.052002 0.863911 -0.500952
vn 0.052002 0.863911 -0.500952
vn 0.236376 0.771156 -0.591139
vn 0.236376 0.771156 -0.591139
vn 0.236376 0.771156 -0.591139
vn 0.236376 0.771156 -0.591139
vn 0.716639 0.693537 -0.073726
vn 0.716639 0.693537 -0.073726
vn 0.716639 0.693537 -0.073726
vn 0.716639 0.693537 -0.073726
vn 0.810597 0.552314 0.194633
vn 0.810597 0.552314 0.194633
vn 0.810597 0.552314 0.194633
vn 0.687517 0.592139 0.420348
vn 0.687517 0.592139 0.420348
vn 0.687517 0.592139 0.420348
vn 0.687517 0.592139 0.420348
vn 0.190921 0.650661 0.734976
vn 0.190921 0.650661 0.734976
vn 0.190921 0.650661 0.734976
vn 0.190921 0.650661 0.734976
vn -0.006522 0.666518 0.745460
vn -0.006522 0.666518 0.745461
vn -0.006522 0.666518 0.745461
vn -0.006522 0.666518 0.745460
vn -0.684917 0.691140 0.230681
vn -0.684917 0.691140 0.230681
vn -0.684917 0.691140 0.230681
vn -0.684917 0.691140 0.230681
vn -0.240001 0.967846 -0.075321
vn -0.231529 0.970984 -0.059873
vn 0.121051 0.986016 0.114535
vn 0.121051 0.986016 0.114535
vn -0.079694 0.989071 0.124043
vn -0.079694 0.989071 0.124043
vn 0.390695 0.895023 0.215153
s off
g rock0
usemtl initialShadingGroup
f 37/37/1 38/38/2 2/7/3 6/51/4
f 12/49/5 32/32/6 33/33/7 16/16/8
f 34/34/9 35/35/10 28/28/11 15/48/12
f 30/30/13 31/31/14 11/10/15 1/46/16
f 38/38/17 39/39/18 26/26/19 2/7/20
f 6/51/21 5/5/22 36/36/23 37/37/24
f 31/31/25 32/32/26 12/49/27 11/10/28
f 33/33/29 34/34/30 15/48/31 16/16/32
f 11/50/33 12/11/34 17/18/35 18/17/36
f 12/11/37 16/47/38 19/19/39 17/18/40
f 16/47/41 15/4/42 20/20/43 19/19/44
f 15/4/45 28/43/46 29/29/47 20/20/48
f 5/44/49 6/6/50 22/22/51 21/21/52
f 6/6/53 2/52/54 23/23/55 22/22/56
f 2/52/57 26/45/58 27/27/59 23/23/60
f 1/8/61 11/50/62 18/17/63 24/24/64
f 1/46/65 26/26/66 39/39/67 30/30/68
f 27/27/69 26/45/70 1/8/71 24/24/72
f 35/35/73 36/36/74 5/5/75 28/28/76
f 29/29/77 28/43/78 5/44/79 21/21/80
s 1
f 10/15/81 9/3/82 40/40/83
s off
f 18/17/84 17/18/85 27/27/86 24/24/87
f 17/18/88 19/19/89 23/23/90 27/27/91
f 19/19/92 20/20/93 22/22/94 23/23/95
f 20/20/96 29/29/97 21/21/98 22/22/99
s 2
f 14/13/100 13/12/101 41/41/102 42/42/103
s 3
f 13/12/104 10/15/105 40/40/106 41/41/107
s 4
f 7/2/108 14/13/109 42/42/110
s off
f 9/3/111 31/31/112 30/30/113 3/1/114
f 9/3/115 10/15/116 32/32/117 31/31/118
f 33/33/119 32/32/120 10/15/121 13/12/122
f 13/12/123 14/13/124 34/34/125 33/33/126
f 7/2/127 35/35/128 34/34/129 14/13/130
f 7/2/131 36/36/132 35/35/133
f 37/37/134 36/36/135 7/2/136 8/14/137
f 4/9/138 38/38/139 37/37/140 8/14/141
f 25/25/142 39/39/143 38/38/144 4/9/145
f 30/30/146 39/39/147 25/25/148 3/1/149
s 1
f 40/40/83 3/1/150 25/25/151
f 40/40/83 9/3/82 3/1/150
s 3
f 41/41/107 40/40/106 25/25/152 4/9/153
s 2
f 42/42/103 41/41/102 4/9/154 8/14/155
s 4
f 7/2/108 42/42/110 8/14/156
