# This file uses centimeters as units for non-parametric coordinates.

mtllib rock5.mtl
g default
v -8.736012 2.664147 59.177022
v -2.745938 1.637251 65.258383
v -6.228784 6.722937 58.862544
v -2.235311 4.621580 61.401745
v 5.090993 3.154103 61.423033
v 2.650091 2.696234 63.261964
v 2.819285 5.743942 60.575709
v 0.690715 5.123233 61.660555
v -5.617313 7.032338 57.239164
v -7.356000 2.835439 55.171647
v -4.070031 2.679165 52.698059
v -0.528488 5.838472 57.250552
v 1.845798 5.806712 58.498373
v 5.011793 3.968066 55.637015
v 0.213579 2.980834 52.451839
v -3.717634 0.467371 52.400620
v -7.423589 0.259843 55.437926
v 0.304286 0.467370 50.668966
v 4.879261 0.574338 52.886245
v 5.582203 0.000003 60.562481
v 2.229191 0.257071 62.299806
v -1.509798 0.257073 64.273106
v -7.270616 0.000003 58.801941
v -6.393793 1.720222 62.400237
v -5.716045 0.257073 61.337064
v 6.503493 4.296609 58.740310
v 7.448770 0.106979 56.716732
v -7.640363 5.726108 59.176586
v -7.036077 5.915875 55.948492
v -3.070734 5.942975 53.982571
v 0.532425 4.759823 54.514105
v 4.153213 4.350520 56.884166
v 5.144711 4.535610 59.373961
v 4.285180 4.434009 61.433468
v 1.103812 3.587585 63.282678
v -2.684662 3.241459 63.557399
v -5.983058 4.856468 61.931923
v -1.579117 5.427783 59.320275
v -5.150085 -0.000000 59.109722
v -1.239729 -0.000000 59.677281
v 2.436336 -0.000003 60.210843
v -4.593075 0.000001 55.737145
v -1.057171 0.000001 55.595074
v 2.745551 -0.000002 55.913841
vt 0.373186 0.489383
vt 0.710574 0.471705
vt 0.381031 0.550628
vt 0.779532 0.688368
vt 0.835429 0.408208
vt 0.743057 0.296122
vt 0.508097 0.205168
vt 0.214943 0.414221
vt 0.528641 0.397304
vt 0.201597 0.604638
vt 0.315280 0.789266
vt 0.565304 0.592115
vt 0.662215 0.549657
vt 0.642527 0.409561
vt 0.543416 0.836002
vt 0.371229 0.829964
vt 0.449866 0.773374
vt 0.541578 0.980844
vt 0.826387 0.858208
vt 0.953977 0.379078
vt 0.790896 0.198148
vt 0.563471 0.146188
vt 0.110254 0.357203
vt 0.305510 0.255893
vt 0.397856 0.951647
vt 0.845033 0.555390
vt 0.995686 0.632073
vt 0.317635 0.460264
vt 0.303891 0.578478
vt 0.427179 0.692379
vt 0.578175 0.719244
vt 0.750419 0.633219
vt 0.799696 0.521961
vt 0.779767 0.425576
vt 0.669846 0.319093
vt 0.513615 0.294911
vt 0.379413 0.365097
vt 0.543715 0.494230
vt 0.412283 0.907258
vt 0.490335 0.923877
vt 0.563720 0.939380
vt 0.428005 0.840133
vt 0.499360 0.841844
vt 0.575526 0.853215
vt 0.669262 0.875426
vt 0.626653 0.950531
vt 0.260258 0.207692
vt 0.369959 0.898192
vt 0.097759 0.595820
vt 0.478806 1.016249
vt 0.556777 0.981508
vt 0.622807 0.794146
vt 0.533236 0.743927
vt 0.274341 0.864483
vn -0.016762 0.727698 0.685692
vn -0.016762 0.727698 0.685692
vn -0.016762 0.727698 0.685692
vn 0.322430 0.691532 -0.646392
vn 0.322430 0.691532 -0.646392
vn 0.322430 0.691532 -0.646392
vn 0.101598 0.983004 -0.152906
vn 0.101598 0.983004 -0.152906
vn 0.101598 0.983004 -0.152906
vn -0.930230 0.332838 -0.154569
vn -0.930230 0.332838 -0.154569
vn -0.930230 0.332838 -0.154569
vn -0.602229 0.194487 0.774271
vn -0.602229 0.194487 0.774271
vn -0.602229 0.194487 0.774271
vn 0.316195 0.530239 0.786681
vn 0.316195 0.530239 0.786681
vn 0.316195 0.530239 0.786681
vn -0.401453 0.439218 -0.803693
vn -0.401453 0.439218 -0.803693
vn -0.401453 0.439218 -0.803693
vn 0.270097 0.825706 -0.495234
vn 0.270097 0.825706 -0.495234
vn 0.270097 0.825706 -0.495234
vn 0.270097 0.825706 -0.495234
vn -0.618564 -0.031689 -0.785095
vn -0.618564 -0.031689 -0.785095
vn -0.618564 -0.031689 -0.785095
vn -0.618564 -0.031689 -0.785095
vn -0.087231 0.574256 -0.814015
vn -0.087231 0.574256 -0.814015
vn -0.087231 0.574256 -0.814015
vn 0.383793 0.543426 -0.746586
vn 0.383793 0.543426 -0.746586
vn 0.383793 0.543426 -0.746586
vn 0.781245 0.405491 -0.474588
vn 0.781245 0.405491 -0.474588
vn 0.781245 0.405491 -0.474588
vn 0.611558 -0.118203 0.782320
vn 0.611558 -0.118203 0.782320
vn 0.611558 -0.118203 0.782320
vn 0.385968 -0.395382 0.833488
vn 0.385968 -0.395382 0.833488
vn 0.385968 -0.395382 0.833488
vn -0.421315 -0.745761 0.516076
vn -0.421315 -0.745761 0.516076
vn -0.421315 -0.745761 0.516076
vn -0.952489 -0.250498 -0.173249
vn -0.952489 -0.250498 -0.173249
vn -0.952489 -0.250498 -0.173249
vn -0.952489 -0.250498 -0.173249
vn -0.814113 0.188630 0.549216
vn -0.814113 0.188630 0.549216
vn -0.814113 0.188630 0.549216
vn -0.769781 -0.482282 0.418141
vn -0.769781 -0.482282 0.418141
vn -0.769781 -0.482282 0.418141
vn 0.792379 0.495976 0.355166
vn 0.792379 0.495976 0.355166
vn 0.792379 0.495976 0.355166
vn 0.888329 -0.021133 0.458721
vn 0.888329 -0.021133 0.458721
vn 0.888329 -0.021133 0.458721
vn 0.234207 0.934971 0.266415
vn 0.234207 0.934971 0.266415
vn 0.234207 0.934971 0.266415
vn -0.016056 -0.993734 0.110614
vn -0.016056 -0.993734 0.110614
vn -0.016056 -0.993734 0.110614
vn -0.030799 -0.996976 0.071351
vn -0.030799 -0.996976 0.071351
vn -0.030799 -0.996976 0.071351
vn -0.030799 -0.996976 0.071351
vn 0.015095 -0.996859 0.077749
vn 0.015095 -0.996859 0.077749
vn 0.015095 -0.996859 0.077749
vn 0.015095 -0.996859 0.077749
vn -0.013502 -0.992584 0.120811
vn -0.013502 -0.992584 0.120811
vn -0.013502 -0.992584 0.120811
vn -0.070662 0.984663 0.159514
vn -0.070662 0.984663 0.159514
vn -0.070662 0.984663 0.159514
vn -0.583103 0.809968 -0.062785
vn -0.583103 0.809968 -0.062785
vn -0.583103 0.809968 -0.062785
vn -0.583103 0.809968 -0.062785
vn -0.239402 0.848926 -0.471181
vn -0.239402 0.848926 -0.471181
vn -0.239402 0.848926 -0.471181
vn 0.226290 0.963171 -0.145237
vn 0.226290 0.963171 -0.145237
vn 0.226290 0.963171 -0.145237
vn 0.241217 0.866553 -0.436920
vn 0.241217 0.866553 -0.436920
vn 0.241217 0.866553 -0.436920
vn 0.433948 0.883447 -0.176663
vn 0.433948 0.883447 -0.176663
vn 0.433948 0.883447 -0.176663
vn 0.549759 0.791007 0.268463
vn 0.549759 0.791007 0.268463
vn 0.549759 0.791007 0.268463
vn 0.173827 0.668204 0.723386
vn 0.173827 0.668204 0.723386
vn 0.173827 0.668204 0.723386
vn -0.038563 0.845187 0.533078
vn -0.038563 0.845187 0.533078
vn -0.038563 0.845187 0.533078
vn 0.167748 0.848224 0.502371
vn 0.167748 0.848224 0.502371
vn 0.167748 0.848224 0.502371
vn -0.425096 0.757876 0.494891
vn -0.425096 0.757876 0.494891
vn -0.425096 0.757876 0.494891
vn 0.207181 0.888497 0.409451
vn 0.207181 0.888497 0.409451
vn 0.207181 0.888497 0.409451
vn -0.187009 0.934466 0.302985
vn -0.187009 0.934466 0.302985
vn -0.187009 0.934466 0.302985
vn -0.047312 -0.998025 -0.041333
vn -0.047312 -0.998025 -0.041333
vn -0.047312 -0.998025 -0.041333
vn -0.047312 -0.998025 -0.041333
vn -0.000000 -1.000000 -0.000000
vn -0.000000 -1.000000 -0.000000
vn -0.000000 -1.000000 -0.000000
vn -0.000000 -1.000000 -0.000000
vn -0.000001 -1.000000 -0.000000
vn -0.000001 -1.000000 -0.000000
vn -0.000001 -1.000000 -0.000000
vn -0.000001 -1.000000 -0.000000
vn 0.014972 -0.999846 -0.009135
vn 0.014972 -0.999846 -0.009135
vn 0.014972 -0.999846 -0.009135
vn 0.014972 -0.999846 -0.009135
vn -0.073775 -0.984791 -0.157303
vn -0.073775 -0.984791 -0.157303
vn -0.073775 -0.984791 -0.157303
vn -0.029833 -0.992285 -0.120332
vn -0.029833 -0.992285 -0.120332
vn -0.029833 -0.992285 -0.120332
vn -0.029833 -0.992285 -0.120332
vn 0.045932 -0.992886 -0.109855
vn 0.045932 -0.992886 -0.109855
vn 0.045932 -0.992886 -0.109855
vn 0.045932 -0.992886 -0.109855
vn 0.048572 -0.987030 -0.153010
vn 0.048572 -0.987030 -0.153010
vn 0.048572 -0.987030 -0.153010
vn 0.217609 0.930365 0.295072
vn 0.217609 0.930365 0.295072
vn 0.217609 0.930365 0.295072
vn -0.092289 0.993034 0.073255
vn -0.092289 0.993034 0.073255
vn -0.092289 0.993034 0.073255
vn -0.143803 0.953852 0.263603
vn -0.143803 0.953852 0.263603
vn -0.143803 0.953852 0.263603
vn -0.636225 -0.624190 0.453437
vn -0.636225 -0.624190 0.453437
vn -0.636225 -0.624190 0.453437
vn -0.741349 0.265362 0.616429
vn -0.741349 0.265362 0.616429
vn -0.741349 0.265361 0.616429
vn -0.080016 0.386164 -0.918953
vn -0.080016 0.386164 -0.918953
vn -0.080016 0.386164 -0.918953
vn -0.573610 0.255814 -0.778158
vn -0.573610 0.255814 -0.778158
vn -0.573610 0.255814 -0.778158
vn 0.334113 0.913865 -0.230691
vn 0.334113 0.913865 -0.230691
vn 0.334113 0.913865 -0.230692
vn 0.343160 0.583317 -0.736194
vn 0.343160 0.583317 -0.736194
vn 0.343160 0.583317 -0.736194
vn -0.394736 0.060399 -0.916807
vn -0.394736 0.060399 -0.916807
vn -0.394736 0.060399 -0.916807
vn 0.206574 0.966221 -0.154091
vn 0.206574 0.966221 -0.154091
vn 0.206574 0.966221 -0.154091
vn 0.839542 0.321938 -0.437636
vn 0.839542 0.321938 -0.437636
vn 0.839542 0.321938 -0.437636
vn 0.456479 -0.208616 0.864931
vn 0.456479 -0.208616 0.864931
vn 0.456479 -0.208616 0.864931
vn 0.899212 0.020806 0.437019
vn 0.899212 0.020806 0.437019
vn 0.899212 0.020806 0.437019
vn 0.398524 -0.395237 0.827627
vn 0.398524 -0.395237 0.827627
vn 0.398524 -0.395237 0.827627
vn -0.433757 -0.652459 0.621411
vn -0.433757 -0.652459 0.621411
vn -0.433757 -0.652459 0.621411
vn 0.245912 0.406144 0.880099
vn 0.245912 0.406144 0.880099
vn 0.245912 0.406144 0.880099
vn 0.528887 0.326594 0.783335
vn 0.528888 0.326594 0.783335
vn 0.528888 0.326594 0.783335
vn 0.378627 0.762790 0.524207
vn 0.378627 0.762790 0.524207
vn 0.378627 0.762790 0.524207
vn 0.017763 0.727065 0.686339
vn 0.017763 0.727065 0.686339
vn 0.017763 0.727065 0.686339
vn -0.932982 0.176062 -0.313920
vn -0.932982 0.176062 -0.313920
vn -0.932982 0.176062 -0.313920
vn 0.274117 0.926214 -0.258819
vn 0.274117 0.926214 -0.258819
vn 0.274117 0.926214 -0.258819
vn -0.180378 0.690943 0.700044
vn -0.180378 0.690943 0.700044
vn -0.180378 0.690943 0.700044
vn 0.182407 0.736787 0.651055
vn 0.182407 0.736787 0.651055
vn 0.182407 0.736787 0.651055
vn 0.362244 0.907716 -0.211733
vn 0.362244 0.907716 -0.211733
vn 0.362244 0.907716 -0.211733
vn 0.087357 0.830594 0.549984
vn 0.087357 0.830594 0.549984
vn 0.087357 0.830594 0.549984
s off
g rock5
usemtl initialShadingGroup
f 35/35/1 36/36/2 2/7/3
f 15/15/4 30/30/5 31/31/6
f 14/4/7 33/33/8 26/26/9
f 28/28/10 29/29/11 1/8/12
f 2/7/13 37/37/14 24/24/15
f 6/6/16 34/34/17 35/35/18
f 29/29/19 30/30/20 11/11/21
f 31/31/22 32/32/23 14/4/24 15/15/25
f 10/10/26 11/11/27 16/54/28 17/49/29
f 11/11/30 15/15/31 18/18/32
f 15/15/33 14/4/34 18/18/35
f 19/19/36 26/26/37 27/27/38
f 5/5/39 6/6/40 20/20/41
f 6/6/42 2/7/43 21/21/44
f 2/7/45 24/24/46 22/22/47
f 1/8/48 10/10/49 17/49/50 23/23/51
f 28/28/52 24/24/53 37/37/54
f 23/23/55 24/24/56 1/8/57
f 33/33/58 34/34/59 5/5/60
f 27/27/61 26/26/62 5/5/63
f 9/3/64 3/1/65 38/38/66
f 23/48/67 39/39/68 25/25/69
f 39/39/70 40/40/71 22/50/72 25/25/73
f 40/40/74 41/41/75 21/51/76 22/50/77
f 41/41/78 20/46/79 21/51/80
f 13/13/81 12/12/82 38/38/83
f 9/3/84 29/29/85 28/28/86 3/1/87
f 9/3/88 30/30/89 29/29/90
f 12/12/91 30/30/92 9/3/93
f 12/12/94 13/13/95 32/32/96
f 7/2/97 32/32/98 13/13/99
f 7/2/100 34/34/101 33/33/102
f 8/14/103 34/34/104 7/2/105
f 4/9/106 36/36/107 35/35/108
f 3/1/109 37/37/110 36/36/111
f 28/28/112 37/37/113 3/1/114
f 3/1/115 4/9/116 38/38/117
f 8/14/118 38/38/119 4/9/120
f 17/16/121 42/42/122 39/39/123 23/48/124
f 42/42/125 43/43/126 40/40/127 39/39/128
f 43/43/129 44/44/130 41/41/131 40/40/132
f 44/44/133 27/45/134 20/46/135 41/41/136
f 17/16/137 16/17/138 42/42/139
f 16/17/140 18/53/141 43/43/142 42/42/143
f 18/53/144 19/52/145 44/44/146 43/43/147
f 19/52/148 27/45/149 44/44/150
f 9/3/151 38/38/152 12/12/153
f 13/13/154 38/38/155 7/2/156
f 7/2/157 38/38/158 8/14/159
f 25/47/160 24/24/161 23/23/162
f 1/8/163 24/24/164 28/28/165
f 11/11/166 30/30/167 15/15/168
f 29/29/169 11/11/170 10/10/171
f 31/31/172 30/30/173 12/12/174
f 18/18/175 14/4/176 19/19/177
f 11/11/178 18/18/179 16/54/180
f 32/32/181 33/33/182 14/4/183
f 14/4/184 26/26/185 19/19/186
f 21/21/187 2/7/188 22/22/189
f 27/27/190 5/5/191 20/20/192
f 20/20/193 6/6/194 21/21/195
f 22/22/196 24/24/197 25/47/198
f 35/35/199 2/7/200 6/6/201
f 6/6/202 5/5/203 34/34/204
f 33/33/205 5/5/206 26/26/207
f 36/36/208 37/37/209 2/7/210
f 1/8/211 29/29/212 10/10/213
f 12/12/214 32/32/215 31/31/216
f 4/9/217 35/35/218 8/14/219
f 35/35/220 34/34/221 8/14/222
f 7/2/223 33/33/224 32/32/225
f 3/1/226 36/36/227 4/9/228
