# This file uses centimeters as units for non-parametric coordinates.

mtllib rock2.mtl
g default
v -3.146072 0.967225 14.531369
v -0.367080 0.821915 16.741319
v -2.509591 2.424600 13.926960
v -0.144240 2.528267 15.480768
v 2.760494 0.967225 14.916949
v 1.573194 0.967225 16.104248
v 1.962079 2.679908 14.171506
v 1.221116 2.694794 14.829279
v -1.990918 2.798864 12.088606
v -1.025987 3.118837 11.842734
v -2.572857 0.967225 10.811770
v -1.573194 0.967225 9.812107
v 0.594922 3.123145 11.898574
v 1.937207 3.266462 12.232772
v 3.146072 0.967225 11.384985
v 0.966169 0.967225 9.812105
v -1.176502 0.086872 10.808362
v -1.924093 0.201189 11.491466
v 0.722543 -0.000000 10.808362
v 2.357881 0.086875 11.719605
v 2.400192 0.495669 14.559795
v 1.272880 0.086873 15.279396
v -0.433704 -0.000000 15.107992
v -2.352768 0.201189 14.033192
v -1.982608 2.634070 15.286179
v -2.771682 1.142236 16.146452
v -2.248365 0.086873 14.936356
v 2.635304 2.719506 12.728739
v 3.788193 0.806433 12.656777
v 3.031623 0.333190 12.732378
vt 0.337945 0.438519
vt 0.605351 0.329588
vt 0.413341 0.537291
vt 0.775050 0.574632
vt 0.704720 0.869537
vt 0.593641 0.957014
vt 0.421978 0.980384
vt 0.213541 0.761632
vt 0.451450 0.288096
vt 0.302762 0.470543
vt 0.400545 0.399153
vt 0.568715 0.499441
vt 0.631190 0.442879
vt 0.547611 0.302779
vt 0.475956 0.533004
vt 0.612578 0.418847
vt 0.365288 0.543410
vt 0.429032 0.500614
vt 0.571495 0.522701
vt 0.686714 0.606878
vt 0.668473 0.828359
vt 0.568005 0.866922
vt 0.440423 0.836877
vt 0.305061 0.733160
vt 0.346010 0.346139
vt 0.228303 0.902044
vt 0.306097 0.802061
vt 0.672535 0.405164
vt 0.801318 0.691866
vt 0.732039 0.688759
vt 0.805976 0.383618
vt 0.682726 0.219378
vt 0.240827 0.294723
vt 0.220888 0.430588
vt 0.661639 0.669936
vt 0.787476 0.502165
vt 0.472210 0.720014
vt 0.370295 0.679799
vt 0.555634 0.161400
vt 0.389078 0.162315
vn 0.247247 0.581560 0.775020
vn 0.247247 0.581560 0.775020
vn 0.247247 0.581560 0.775020
vn 0.247247 0.581560 0.775020
vn 0.008990 0.690727 -0.723060
vn 0.008990 0.690727 -0.723060
vn 0.008990 0.690727 -0.723060
vn 0.008990 0.690727 -0.723060
vn 0.769947 0.514199 -0.377865
vn 0.769947 0.514199 -0.377865
vn 0.769947 0.514199 -0.377865
vn 0.769947 0.514199 -0.377865
vn -0.915668 0.370882 -0.154913
vn -0.915668 0.370882 -0.154913
vn -0.915668 0.370882 -0.154913
vn -0.915668 0.370882 -0.154913
vn -0.094440 0.570772 0.815659
vn -0.094440 0.570772 0.815659
vn -0.094440 0.570772 0.815659
vn -0.094440 0.570772 0.815659
vn 0.580557 0.547880 0.602313
vn 0.580557 0.547880 0.602313
vn 0.580557 0.547880 0.602313
vn 0.580557 0.547880 0.602313
vn -0.484402 0.636061 -0.600650
vn -0.484402 0.636061 -0.600650
vn -0.484402 0.636061 -0.600650
vn -0.484402 0.636061 -0.600651
vn 0.362325 0.598883 -0.714185
vn 0.362325 0.598883 -0.714185
vn 0.362325 0.598882 -0.714185
vn 0.362325 0.598883 -0.714185
vn -0.478321 -0.756955 -0.445228
vn -0.478321 -0.756955 -0.445228
vn -0.478321 -0.756955 -0.445228
vn -0.478321 -0.756955 -0.445228
vn -0.014362 -0.733747 -0.679272
vn -0.014362 -0.733747 -0.679272
vn -0.014362 -0.733747 -0.679272
vn -0.014362 -0.733746 -0.679272
vn 0.414348 -0.672856 -0.612846
vn 0.414348 -0.672856 -0.612846
vn 0.414348 -0.672856 -0.612846
vn 0.414348 -0.672856 -0.612846
vn 0.580192 -0.754844 -0.305921
vn 0.580192 -0.754844 -0.305921
vn 0.580192 -0.754844 -0.305921
vn 0.580192 -0.754844 -0.305921
vn 0.528808 -0.690234 0.493901
vn 0.528808 -0.690234 0.493901
vn 0.528808 -0.690234 0.493901
vn 0.528808 -0.690234 0.493901
vn 0.123035 -0.824377 0.552508
vn 0.123035 -0.824377 0.552508
vn 0.123035 -0.824377 0.552508
vn 0.123035 -0.824377 0.552508
vn -0.175464 -0.834302 0.522639
vn -0.175464 -0.834302 0.522639
vn -0.175464 -0.834302 0.522639
vn -0.175464 -0.834302 0.522639
vn -0.716554 -0.688043 -0.114658
vn -0.716554 -0.688043 -0.114658
vn -0.716554 -0.688043 -0.114658
vn -0.716554 -0.688043 -0.114658
vn -0.843384 0.502350 0.190653
vn -0.843384 0.502350 0.190653
vn -0.843384 0.502350 0.190653
vn -0.843384 0.502350 0.190653
vn -0.726390 -0.669750 0.154251
vn -0.726390 -0.669750 0.154251
vn -0.726390 -0.669750 0.154251
vn -0.726390 -0.669750 0.154251
vn 0.796353 0.493527 0.349648
vn 0.796353 0.493527 0.349648
vn 0.796353 0.493527 0.349648
vn 0.796353 0.493527 0.349648
vn 0.573299 -0.765087 0.293207
vn 0.573299 -0.765087 0.293207
vn 0.573299 -0.765087 0.293207
vn 0.573299 -0.765087 0.293207
vn -0.366216 0.929247 0.048842
vn -0.366216 0.929247 0.048842
vn -0.366216 0.929247 0.048842
vn -0.366216 0.929247 0.048842
vn -0.245455 -0.967834 -0.055222
vn -0.245455 -0.967834 -0.055222
vn -0.245455 -0.967834 -0.055222
vn -0.245455 -0.967834 -0.055222
vn -0.046167 -0.998859 -0.012206
vn -0.046167 -0.998859 -0.012206
vn -0.046167 -0.998859 -0.012206
vn -0.046167 -0.998859 -0.012206
vn 0.047536 -0.998778 0.013555
vn 0.047536 -0.998778 0.013555
vn 0.047536 -0.998778 0.013555
vn 0.047536 -0.998778 0.013555
vn 0.320114 -0.938377 0.130294
vn 0.320114 -0.938377 0.130294
vn 0.320114 -0.938377 0.130294
vn 0.320114 -0.938377 0.130294
vn -0.093233 0.982133 0.163469
vn -0.093233 0.982133 0.163469
vn -0.093233 0.982133 0.163469
vn -0.093233 0.982133 0.163469
vn 0.017680 0.987594 0.156033
vn 0.017680 0.987594 0.156033
vn 0.017680 0.987594 0.156033
vn 0.017680 0.987594 0.156033
vn 0.376399 0.888089 0.263858
vn 0.376399 0.888089 0.263858
vn 0.376399 0.888089 0.263858
vn 0.376399 0.888089 0.263858
s off
g rock2
usemtl initialShadingGroup
f 4/9/1 2/40/2 6/39/3 8/14/4
f 12/37/5 10/15/6 13/12/7 16/35/8
f 28/28/9 29/31/10 15/36/11 14/13/12
f 9/3/13 11/38/14 1/34/15 3/1/16
f 25/25/17 26/33/18 2/40/19 4/9/20
f 6/39/21 5/32/22 7/2/23 8/14/24
f 9/3/25 10/15/26 12/37/27 11/38/28
f 13/12/29 14/13/30 15/36/31 16/35/32
f 11/10/33 12/11/34 17/18/35 18/17/36
f 12/11/37 16/16/38 19/19/39 17/18/40
f 16/16/41 15/4/42 20/20/43 19/19/44
f 15/4/45 29/29/46 30/30/47 20/20/48
f 5/5/49 6/6/50 22/22/51 21/21/52
f 6/6/53 2/7/54 23/23/55 22/22/56
f 2/7/57 26/26/58 27/27/59 23/23/60
f 1/8/61 11/10/62 18/17/63 24/24/64
f 1/34/65 26/33/66 25/25/67 3/1/68
f 27/27/69 26/26/70 1/8/71 24/24/72
f 7/2/73 5/32/74 29/31/75 28/28/76
f 30/30/77 29/29/78 5/5/79 21/21/80
f 10/15/81 9/3/82 3/1/83 25/25/84
f 18/17/85 17/18/86 27/27/87 24/24/88
f 17/18/89 19/19/90 23/23/91 27/27/92
f 19/19/93 20/20/94 22/22/95 23/23/96
f 20/20/97 30/30/98 21/21/99 22/22/100
f 14/13/101 13/12/102 4/9/103 8/14/104
f 13/12/105 10/15/106 25/25/107 4/9/108
f 28/28/109 14/13/110 8/14/111 7/2/112
