# This file uses centimeters as units for non-parametric coordinates.

mtllib rock1.mtl
g default
v -3.963063 0.673606 75.933200
v -0.304947 0.992250 78.185439
v -2.694649 2.605069 75.399479
v 1.329726 3.965675 75.815582
v 3.139176 0.871902 76.093839
v 1.901101 0.746659 77.620607
v 2.742229 3.997650 73.716375
v -2.632814 2.793296 73.564063
v -1.497253 3.187977 73.317736
v -3.214753 0.961658 72.287227
v -1.928288 1.086797 71.286854
v 0.648599 3.962050 73.097751
v 2.044131 4.544606 73.220408
v 3.245350 1.266155 72.728333
v 0.974834 1.068302 71.253965
v -1.453813 0.030679 72.275475
v -2.352981 0.035703 72.959591
v 0.776520 0.014457 72.224324
v 2.278628 0.035651 73.106991
v 2.451931 0.037530 75.667828
v 1.654206 -0.014703 76.571010
v -0.285421 -0.014457 76.519356
v -2.937821 -0.032155 75.412424
v -1.999245 2.517259 76.955649
v -3.254098 0.674976 77.306974
v -2.356172 -0.026806 76.323332
v 3.946527 1.187396 73.990367
v 2.795561 0.054866 74.089376
vt 0.372321 0.602716
vt 0.690383 0.497907
vt 0.440483 0.698520
vt 0.834879 0.521232
vt 0.663283 0.261467
vt 0.496775 0.239510
vt 0.338528 0.327814
vt 0.225883 0.633471
vt 0.563057 0.444352
vt 0.433343 0.845259
vt 0.556440 0.856815
vt 0.622232 0.612632
vt 0.673608 0.548485
vt 0.509598 0.677390
vt 0.768613 0.744317
vt 0.397580 0.907623
vt 0.576450 0.927915
vt 0.836102 0.787756
vt 0.915163 0.544422
vt 0.691017 0.202196
vt 0.497584 0.172601
vt 0.245238 0.273962
vt 0.190534 0.692575
vt 0.354045 0.497474
vt 0.217707 0.524175
vt 0.147550 0.531804
vt 0.796907 0.410596
vt 0.860239 0.366712
vt 0.644803 0.858560
vt 0.627314 0.940599
vt 0.377737 0.975695
vt 0.347315 0.928538
vt 0.377170 0.801009
vt 0.485301 0.985417
vt 0.586023 0.987688
vt 0.617710 0.807674
vt 0.539515 0.762173
vt 0.423718 0.765303
vn -0.006138 0.536852 -0.843654
vn -0.006138 0.536852 -0.843654
vn -0.006138 0.536852 -0.843654
vn 0.709432 0.351612 -0.610800
vn 0.709432 0.351612 -0.610800
vn 0.709431 0.351612 -0.610799
vn -0.905398 0.395421 -0.154586
vn -0.905398 0.395421 -0.154586
vn -0.905398 0.395421 -0.154586
vn -0.004421 0.624748 0.780814
vn -0.004421 0.624748 0.780814
vn -0.004421 0.624749 0.780814
vn 0.728594 0.470871 0.497425
vn 0.728594 0.470871 0.497425
vn 0.728594 0.470871 0.497425
vn -0.364291 0.607684 -0.705700
vn -0.364291 0.607684 -0.705700
vn -0.364291 0.607684 -0.705700
vn -0.143193 0.520285 -0.841902
vn -0.143193 0.520285 -0.841902
vn -0.143193 0.520285 -0.841902
vn -0.383018 -0.717125 -0.582262
vn -0.383018 -0.717125 -0.582262
vn -0.383018 -0.717125 -0.582262
vn -0.012654 -0.676023 -0.736772
vn -0.012654 -0.676023 -0.736772
vn -0.012654 -0.676023 -0.736772
vn 0.478855 -0.579212 -0.659706
vn 0.478855 -0.579212 -0.659706
vn 0.478855 -0.579212 -0.659706
vn 0.628226 -0.672636 -0.391015
vn 0.628226 -0.672636 -0.391014
vn 0.628226 -0.672637 -0.391015
vn 0.561192 -0.727116 0.395431
vn 0.561192 -0.727116 0.395431
vn 0.561192 -0.727116 0.395431
vn 0.037207 -0.855104 0.517120
vn 0.037207 -0.855104 0.517120
vn 0.037207 -0.855104 0.517120
vn -0.069380 -0.840951 0.536645
vn -0.069380 -0.840951 0.536645
vn -0.069380 -0.840951 0.536645
vn -0.645569 -0.739453 -0.190919
vn -0.645569 -0.739453 -0.190919
vn -0.645569 -0.739453 -0.190919
vn -0.737045 0.570985 0.361582
vn -0.737045 0.570985 0.361582
vn -0.737045 0.570985 0.361582
vn -0.464497 -0.852274 0.240564
vn -0.464497 -0.852274 0.240564
vn -0.464497 -0.852274 0.240564
vn 0.715115 -0.677289 0.172889
vn 0.715115 -0.677289 0.172889
vn 0.715115 -0.677289 0.172889
vn -0.211320 0.966002 0.148941
vn -0.211320 0.966002 0.148941
vn -0.211320 0.966002 0.148941
vn 0.003064 -0.999823 -0.018577
vn 0.003064 -0.999823 -0.018577
vn 0.003064 -0.999823 -0.018577
vn 0.003064 -0.999823 -0.018577
vn -0.000547 -0.999945 -0.010484
vn -0.000547 -0.999945 -0.010484
vn -0.000547 -0.999945 -0.010484
vn -0.000547 -0.999945 -0.010484
vn 0.008366 -0.999930 -0.008397
vn 0.008366 -0.999930 -0.008397
vn 0.008366 -0.999930 -0.008397
vn 0.008366 -0.999930 -0.008397
vn 0.054444 -0.998513 -0.002952
vn 0.054444 -0.998513 -0.002952
vn 0.054444 -0.998513 -0.002952
vn 0.054444 -0.998513 -0.002952
vn -0.390646 0.915450 0.096680
vn -0.390646 0.915450 0.096680
vn -0.390646 0.915450 0.096680
vn -0.324908 0.937053 0.127930
vn -0.324908 0.937053 0.127930
vn -0.324908 0.937053 0.127930
vn -0.015802 -0.807591 0.589532
vn -0.015802 -0.807591 0.589532
vn -0.015802 -0.807591 0.589532
vn 0.559754 -0.693016 0.454318
vn 0.559754 -0.693016 0.454318
vn 0.559754 -0.693016 0.454317
vn 0.700285 -0.699028 0.144776
vn 0.700285 -0.699028 0.144776
vn 0.700285 -0.699028 0.144776
vn 0.682790 -0.643111 -0.346707
vn 0.682790 -0.643111 -0.346707
vn 0.682790 -0.643111 -0.346707
vn 0.386157 -0.663102 -0.641233
vn 0.386157 -0.663102 -0.641233
vn 0.386157 -0.663102 -0.641233
vn -0.021634 -0.688396 -0.725012
vn -0.021634 -0.688396 -0.725012
vn -0.021634 -0.688396 -0.725012
vn -0.401370 -0.752598 -0.522013
vn -0.401370 -0.752598 -0.522013
vn -0.401370 -0.752598 -0.522013
vn -0.615453 -0.770050 -0.168049
vn -0.615453 -0.770050 -0.168049
vn -0.615453 -0.770050 -0.168049
vn -0.400592 -0.878311 0.260950
vn -0.400592 -0.878311 0.260950
vn -0.400592 -0.878311 0.260950
vn -0.043773 -0.855296 0.516287
vn -0.043773 -0.855296 0.516287
vn -0.043773 -0.855296 0.516287
vn -0.831852 0.554249 0.028815
vn -0.831852 0.554249 0.028815
vn -0.831852 0.554249 0.028815
vn -0.504226 0.651409 -0.566941
vn -0.504226 0.651409 -0.566941
vn -0.504226 0.651409 -0.566941
vn -0.316171 0.692061 -0.648912
vn -0.316171 0.692061 -0.648912
vn -0.316171 0.692061 -0.648912
vn 0.499862 0.304828 -0.810690
vn 0.499862 0.304828 -0.810690
vn 0.499862 0.304828 -0.810690
vn 0.837711 0.315532 -0.445734
vn 0.837711 0.315532 -0.445734
vn 0.837711 0.315532 -0.445734
vn 0.836125 0.395381 0.380222
vn 0.836125 0.395381 0.380222
vn 0.836125 0.395381 0.380222
vn 0.676068 0.448025 0.584984
vn 0.676068 0.448025 0.584984
vn 0.676068 0.448025 0.584984
vn 0.266335 0.506962 0.819790
vn 0.266335 0.506962 0.819790
vn 0.266335 0.506962 0.819790
vn -0.301507 0.372727 0.877592
vn -0.301507 0.372727 0.877592
vn -0.301507 0.372727 0.877592
vn -0.724702 0.579107 0.373420
vn -0.724702 0.579107 0.373420
vn -0.724702 0.579107 0.373420
vn -0.310246 0.946700 0.086635
vn -0.310246 0.946700 0.086635
vn -0.310246 0.946700 0.086635
vn -0.370722 0.924208 0.091675
vn -0.370722 0.924208 0.091675
vn -0.370722 0.924208 0.091675
vn 0.440567 0.842760 0.309283
vn 0.440567 0.842760 0.309283
vn 0.440567 0.842760 0.309283
s off
g rock1
usemtl initialShadingGroup
f 11/11/1 12/12/2 15/15/3
f 7/2/4 14/4/5 13/13/6
f 8/3/7 10/10/8 1/8/9
f 24/24/10 2/7/11 4/9/12
f 4/9/13 5/5/14 7/2/15
f 8/3/16 9/14/17 10/10/18
f 12/12/19 13/13/20 15/15/21
f 10/10/22 11/11/23 16/17/24
f 11/11/25 15/15/26 18/18/27
f 15/15/28 14/4/29 19/19/30
f 14/4/31 27/27/32 28/28/33
f 5/5/34 6/6/35 21/21/36
f 6/6/37 2/7/38 22/22/39
f 2/7/40 25/25/41 26/26/42
f 1/8/43 10/10/44 17/16/45
f 3/1/46 25/25/47 24/24/48
f 23/23/49 25/25/50 1/8/51
f 20/20/52 27/27/53 5/5/54
f 9/14/55 3/1/56 24/24/57
f 17/33/58 16/38/59 26/31/60 23/32/61
f 16/38/62 18/37/63 22/34/64 26/31/65
f 18/37/66 19/36/67 21/35/68 22/34/69
f 19/36/70 28/29/71 20/30/72 21/35/73
f 13/13/74 12/12/75 4/9/76
f 12/12/77 9/14/78 24/24/79
f 6/6/80 22/22/81 21/21/82
f 5/5/83 21/21/84 20/20/85
f 28/28/86 27/27/87 20/20/88
f 14/4/89 28/28/90 19/19/91
f 15/15/92 19/19/93 18/18/94
f 11/11/95 18/18/96 16/17/97
f 10/10/98 16/17/99 17/16/100
f 1/8/101 17/16/102 23/23/103
f 26/26/104 25/25/105 23/23/106
f 2/7/107 26/26/108 22/22/109
f 8/3/110 1/8/111 3/1/112
f 10/10/113 9/14/114 11/11/115
f 11/11/116 9/14/117 12/12/118
f 15/15/119 13/13/120 14/4/121
f 7/2/122 27/27/123 14/4/124
f 7/2/125 5/5/126 27/27/127
f 6/6/128 5/5/129 4/9/130
f 4/9/131 2/7/132 6/6/133
f 24/24/134 25/25/135 2/7/136
f 1/8/137 25/25/138 3/1/139
f 9/14/140 8/3/141 3/1/142
f 12/12/143 24/24/144 4/9/145
f 7/2/146 13/13/147 4/9/148
