# This file uses centimeters as units for non-parametric coordinates.

mtllib rock4.mtl
g default
v -5.412382 0.880986 45.408570
v 2.266358 2.298369 45.710886
v -5.077984 3.965033 44.296094
v -6.313715 1.710875 36.583777
v 3.026654 2.272216 37.107712
v -5.840062 4.800054 41.361763
v -7.030477 0.672037 42.962102
v 2.682816 2.130845 43.530781
v 2.451610 5.199298 43.626132
v -7.075023 0.391043 39.945045
v -5.646338 4.817795 38.401135
v 3.091625 4.690260 39.056980
v 3.235173 1.792946 39.901951
v -0.220772 2.406627 46.537358
v 0.893366 4.848406 45.477305
v -2.552582 7.559331 42.230347
v 0.820527 7.313354 40.802951
v 0.493988 1.788587 35.622879
v 0.563604 0.439989 39.065464
v 0.010550 0.510810 44.881591
v -3.062541 1.866505 46.630655
v -2.117948 5.189303 45.015836
v -3.749481 7.137068 39.911666
v -2.985727 2.027242 35.794243
v -3.951920 0.095500 38.865986
v -4.066302 -0.095501 44.282916
v 1.286431 4.705448 36.423885
v -3.608220 4.801221 36.297298
v 0.971204 5.347551 38.649990
v -3.792461 5.418810 38.333907
vt 0.438989 0.776380
vt 0.704813 0.621678
vt 0.380698 0.296587
vt 0.283544 0.588393
vt 0.667059 0.664926
vt 0.363065 0.401768
vt 0.237173 0.322376
vt 0.671573 0.542396
vt 0.671385 0.327117
vt 0.210947 0.448669
vt 0.369411 0.503330
vt 0.681828 0.535841
vt 0.607664 0.420536
vt 0.547824 0.168353
vt 0.598496 0.261818
vt 0.495911 0.385079
vt 0.592091 0.436778
vt 0.550845 0.704816
vt 0.498167 0.449411
vt 0.595154 0.642071
vt 0.553657 0.777781
vt 0.496813 0.279737
vt 0.455547 0.452245
vt 0.410142 0.674423
vt 0.350597 0.530350
vt 0.454581 0.704497
vt 0.586835 0.608988
vt 0.426624 0.581676
vt 0.598128 0.532864
vt 0.434839 0.515978
vt 0.316605 0.391264
vt 0.439286 0.326370
vt 0.423007 0.172290
vt 0.651678 0.714550
vt 0.559039 0.326019
vt 0.655392 0.183689
vt 0.686141 0.342587
vt 0.269949 0.625222
vt 0.331601 0.727104
vt 0.782148 0.500653
vt 0.310074 0.219080
vt 0.221287 0.488229
vn -0.461420 0.423879 0.779370
vn -0.461420 0.423879 0.779370
vn -0.461420 0.423879 0.779370
vn -0.461420 0.423879 0.779370
vn -0.553504 0.671808 0.492247
vn -0.553504 0.671808 0.492247
vn -0.553504 0.671808 0.492247
vn -0.553504 0.671808 0.492247
vn -0.367950 -0.873782 0.317990
vn -0.367950 -0.873782 0.317990
vn -0.367950 -0.873782 0.317990
vn 0.980902 0.068250 0.182134
vn 0.980902 0.068250 0.182134
vn 0.980902 0.068250 0.182134
vn -0.846801 0.334576 0.413507
vn -0.846801 0.334576 0.413507
vn -0.846800 0.334576 0.413507
vn -0.846801 0.334576 0.413507
vn -0.956456 0.270124 -0.110565
vn -0.956456 0.270124 -0.110565
vn -0.956456 0.270124 -0.110565
vn -0.049049 -0.838477 -0.542725
vn -0.049049 -0.838477 -0.542725
vn -0.049049 -0.838477 -0.542725
vn 0.997162 0.029162 -0.069411
vn 0.997162 0.029162 -0.069411
vn 0.997162 0.029162 -0.069411
vn -0.239749 0.659872 -0.712102
vn -0.239749 0.659872 -0.712102
vn -0.239749 0.659872 -0.712102
vn -0.955909 0.287295 -0.060827
vn -0.955909 0.287295 -0.060827
vn -0.955909 0.287295 -0.060827
vn -0.758464 0.650108 -0.045733
vn -0.758464 0.650108 -0.045733
vn -0.758464 0.650108 -0.045733
vn 0.987621 0.079063 0.135478
vn 0.987621 0.079063 0.135478
vn 0.987621 0.079063 0.135478
vn 0.987621 0.079063 0.135478
vn -0.172379 -0.984989 0.009083
vn -0.172379 -0.984989 0.009083
vn -0.172379 -0.984989 0.009083
vn -0.172379 -0.984989 0.009083
vn 0.314969 0.253368 0.914658
vn 0.314969 0.253368 0.914658
vn 0.314969 0.253368 0.914658
vn 0.262798 0.839013 0.476440
vn 0.262798 0.839013 0.476440
vn 0.262798 0.839013 0.476440
vn 0.338321 0.706599 -0.621496
vn 0.338321 0.706599 -0.621496
vn 0.338321 0.706599 -0.621496
vn 0.489133 -0.852842 -0.182782
vn 0.489133 -0.852842 -0.182782
vn 0.489133 -0.852842 -0.182782
vn 0.490933 -0.866009 0.094933
vn 0.490933 -0.866009 0.094933
vn 0.490933 -0.866009 0.094933
vn 0.490933 -0.866009 0.094933
vn 0.221221 -0.626063 0.747734
vn 0.221221 -0.626063 0.747734
vn 0.221221 -0.626063 0.747734
vn -0.071286 0.440677 0.894831
vn -0.071286 0.440677 0.894831
vn -0.071286 0.440677 0.894831
vn -0.071286 0.440677 0.894831
vn 0.186754 0.762412 0.619557
vn 0.186754 0.762412 0.619557
vn 0.186754 0.762412 0.619557
vn -0.003345 0.984116 -0.177494
vn -0.003345 0.984116 -0.177494
vn -0.003345 0.984116 -0.177494
vn 0.082433 0.710309 -0.699046
vn 0.082433 0.710309 -0.699046
vn 0.082433 0.710309 -0.699046
vn 0.082433 0.710309 -0.699046
vn 0.013408 -0.893812 -0.448241
vn 0.013408 -0.893812 -0.448241
vn 0.013408 -0.893812 -0.448241
vn 0.013408 -0.893812 -0.448241
vn 0.110358 -0.993883 -0.004076
vn 0.110358 -0.993883 -0.004076
vn 0.110358 -0.993884 -0.004076
vn 0.110358 -0.993883 -0.004076
vn 0.146489 -0.640517 0.753843
vn 0.146489 -0.640517 0.753843
vn 0.146489 -0.640517 0.753843
vn 0.367521 -0.863394 -0.345658
vn 0.367521 -0.863394 -0.345658
vn 0.367521 -0.863394 -0.345658
vn -0.222210 -0.889372 -0.399549
vn -0.222210 -0.889372 -0.399549
vn -0.222210 -0.889372 -0.399549
vn 0.572544 -0.801846 0.170987
vn 0.572544 -0.801846 0.170987
vn 0.572544 -0.801846 0.170986
vn -0.014960 -0.764085 0.644942
vn -0.014960 -0.764085 0.644942
vn -0.014960 -0.764085 0.644942
vn 0.021407 -0.771636 0.635704
vn 0.021407 -0.771636 0.635704
vn 0.021407 -0.771636 0.635704
vn -0.660509 0.720951 0.209659
vn -0.660509 0.720951 0.209659
vn -0.660509 0.720951 0.209659
vn 0.767297 0.640273 0.036146
vn 0.767297 0.640273 0.036146
vn 0.767297 0.640273 0.036146
vn 0.758141 0.396785 -0.517477
vn 0.758141 0.396785 -0.517477
vn 0.758141 0.396785 -0.517477
vn 0.003704 0.223255 -0.974753
vn 0.003704 0.223255 -0.974753
vn 0.003704 0.223255 -0.974753
vn 0.003704 0.223255 -0.974753
vn -0.624161 0.490022 -0.608524
vn -0.624161 0.490022 -0.608524
vn -0.624161 0.490022 -0.608524
vn -0.240002 0.120821 -0.963225
vn -0.240002 0.120821 -0.963225
vn -0.240002 0.120821 -0.963225
vn 0.487888 0.105409 -0.866519
vn 0.487888 0.105409 -0.866519
vn 0.487888 0.105409 -0.866519
vn -0.961936 0.273045 -0.011227
vn -0.961936 0.273045 -0.011227
vn -0.961936 0.273045 -0.011227
vn 0.657251 0.411703 0.631287
vn 0.657251 0.411703 0.631287
vn 0.657251 0.411703 0.631287
vn 0.326986 0.919334 -0.218872
vn 0.326986 0.919334 -0.218872
vn 0.326986 0.919334 -0.218872
vn 0.029432 0.959519 -0.280103
vn 0.029432 0.959519 -0.280103
vn 0.029432 0.959519 -0.280103
vn 0.029432 0.959519 -0.280103
vn -0.303915 0.903719 -0.301541
vn -0.303915 0.903719 -0.301541
vn -0.303915 0.903719 -0.301541
vn 0.072089 0.967093 0.243995
vn 0.072089 0.967093 0.243995
vn 0.072089 0.967093 0.243995
s off
g rock4
usemtl initialShadingGroup
f 1/41/1 21/33/2 22/22/3 3/3/4
f 3/3/5 22/22/6 16/16/7 6/6/8
f 7/39/9 26/26/10 1/1/11
f 2/2/12 8/8/13 9/40/14
f 6/6/15 7/7/16 1/41/17 3/3/18
f 4/4/19 10/10/20 11/11/21
f 4/42/22 24/31/23 25/25/24
f 12/37/25 13/13/26 5/35/27
f 11/11/28 23/23/29 30/30/30
f 11/11/31 10/10/32 6/6/33
f 6/6/34 23/23/35 11/11/36
f 9/40/37 8/8/38 13/13/39 12/37/40
f 10/38/41 25/25/42 26/26/43 7/39/44
f 15/15/45 14/14/46 2/36/47
f 17/17/48 16/16/49 9/9/50
f 12/12/51 29/29/52 17/17/53
f 19/19/54 5/35/55 13/13/56
f 20/20/57 19/19/58 13/13/59 8/8/60
f 14/34/61 20/20/62 2/2/63
f 22/22/64 21/33/65 14/14/66 15/15/67
f 16/16/68 22/22/69 9/9/70
f 23/23/71 16/16/72 17/17/73
f 29/29/74 30/30/75 23/23/76 17/17/77
f 25/25/78 24/31/79 18/32/80 19/19/81
f 26/26/82 25/25/83 19/19/84 20/20/85
f 21/21/86 20/20/87 14/34/88
f 19/19/89 18/32/90 5/35/91
f 4/42/92 25/25/93 10/38/94
f 2/2/95 20/20/96 8/8/97
f 1/1/98 26/26/99 21/21/100
f 21/21/101 26/26/102 20/20/103
f 6/6/104 16/16/105 23/23/106
f 17/17/107 9/9/108 12/12/109
f 5/5/110 27/27/111 12/12/112
f 24/24/113 28/28/114 27/27/115 18/18/116
f 11/11/117 28/28/118 4/4/119
f 4/4/120 28/28/121 24/24/122
f 18/18/123 27/27/124 5/5/125
f 6/6/126 10/10/127 7/7/128
f 9/9/129 15/15/130 2/36/131
f 12/12/132 27/27/133 29/29/134
f 27/27/135 28/28/136 30/30/137 29/29/138
f 11/11/139 30/30/140 28/28/141
f 9/9/142 22/22/143 15/15/144
