# This file uses centimeters as units for non-parametric coordinates.

mtllib GoblinTorso.mtl
g default
v 0.524347 -2.927813 0.089112
v 0.393589 -2.928781 0.235654
v 0.378292 -3.057488 0.102822
v 0.767753 -1.704478 0.043194
v 0.625021 -1.928809 -0.027029
v 0.767753 -1.962005 -0.164789
v 0.767753 -1.305666 0.002166
v 0.767753 -1.482333 0.148233
v 0.767753 -1.282172 -0.821713
v 0.767753 -1.201744 -0.615524
v 0.767753 -1.847707 -0.844156
v 0.633946 -1.768857 -0.977750
v 0.767753 -1.504316 -0.926752
v 0.379824 -3.055088 -0.603732
v 0.389319 -2.921437 -0.742856
v 0.523535 -2.929921 -0.615889
v 0.911049 -1.877431 -0.139661
v 1.106248 -1.783895 -0.102546
v 0.971389 -1.789156 0.029399
v 0.976137 -1.614498 -0.818166
v 1.106248 -1.678427 -0.687119
v 0.915502 -1.777607 -0.732999
v 0.971389 -1.306211 -0.521212
v 1.106248 -1.458662 -0.590970
v 0.971389 -1.390768 -0.712377
v 0.976137 -1.565425 0.135188
v 1.106248 -1.564130 -0.006397
v 0.976137 -1.392313 -0.009442
v 0.229922 -1.135509 -0.674135
v 0.229922 -1.209994 -0.915647
v 0.229922 -1.430304 -1.031590
v 0.189850 -1.749491 -1.092857
v 0.116039 -2.914269 -0.788724
v 0.113747 -3.051730 -0.623691
v 0.113288 -3.073829 0.199950
v 0.117339 -2.948920 0.350884
v 0.187177 -1.935949 0.015413
v 0.229922 -1.657677 0.100094
v 0.229922 -1.437367 0.216037
v 0.229922 -1.256652 0.045916
v 0.000000 -3.075117 0.207602
v 0.000000 -1.437182 0.214940
v 0.000000 -1.120473 -0.763508
v 0.000000 -2.907715 -0.829073
v 0.000000 -1.189481 -1.037575
v 0.000000 -1.408420 -1.161665
v 0.000000 -1.727475 -1.223713
v -0.000000 -3.048200 -0.644674
v 0.000000 -2.952801 0.372046
v 0.000000 -1.933736 0.002259
v 0.000000 -1.656121 0.090850
v -0.000000 -1.254482 0.033015
v -0.524347 -2.927813 0.089112
v -0.393589 -2.928781 0.235654
v -0.378292 -3.057488 0.102822
v -0.767753 -1.704478 0.043194
v -0.625021 -1.928809 -0.027029
v -0.767753 -1.962005 -0.164789
v -0.767753 -1.305666 0.002166
v -0.767753 -1.482333 0.148233
v -0.767753 -1.282172 -0.821713
v -0.767753 -1.201744 -0.615524
v -0.767753 -1.847707 -0.844156
v -0.633946 -1.768857 -0.977750
v -0.767753 -1.504316 -0.926752
v -0.379824 -3.055088 -0.603732
v -0.389319 -2.921437 -0.742856
v -0.523535 -2.929921 -0.615889
v -0.911049 -1.877431 -0.139661
v -1.106248 -1.783895 -0.102546
v -0.971389 -1.789156 0.029399
v -0.976137 -1.614498 -0.818166
v -1.106248 -1.678427 -0.687119
v -0.915502 -1.777607 -0.732999
v -0.971389 -1.306211 -0.521212
v -1.106248 -1.458662 -0.590970
v -0.971389 -1.390768 -0.712377
v -0.976137 -1.565425 0.135188
v -1.106248 -1.564130 -0.006397
v -0.976137 -1.392313 -0.009442
v -0.229922 -1.135509 -0.674135
v -0.229922 -1.209994 -0.915647
v -0.229922 -1.430304 -1.031590
v -0.189850 -1.749491 -1.092857
v -0.116039 -2.914269 -0.788724
v -0.113747 -3.051730 -0.623691
v -0.113288 -3.073829 0.199950
v -0.117339 -2.948920 0.350884
v -0.187177 -1.935949 0.015413
v -0.229922 -1.657677 0.100094
v -0.229922 -1.437367 0.216037
v -0.229922 -1.256652 0.045916
vt 0.625000 0.951585
vt 0.594573 0.959165
vt 0.625000 0.777101
vt 0.663273 0.011366
vt 0.767753 -3.207066
vt 0.767753 -3.320588
vt 0.767753 -3.320588
vt 0.625000 0.212504
vt 0.767753 -2.820588
vt 0.767753 -2.820588
vt 0.767753 -2.967305
vt 0.625000 0.470511
vt 0.767753 -2.934110
vt 0.767753 -2.820588
vt 0.767753 -3.320588
vt 0.767753 -3.173871
vt 0.625000 0.630254
vt 0.625000 0.742858
vt 0.594956 0.780044
vt 0.654899 0.125000
vt 0.836889 0.125000
vt 0.658809 0.157539
vt 0.625000 0.213321
vt 0.875000 0.161679
vt 0.875000 0.221225
vt 0.845101 0.250000
vt 0.663111 0.250000
vt 0.660632 0.215706
vt 0.602974 0.013480
vt 0.625000 0.288960
vt 0.625000 0.528381
vt 0.603215 0.625000
vt 0.592061 0.740162
vt 0.842202 0.010987
vt 0.838794 0.125000
vt 0.839368 0.159294
vt 0.841191 0.217461
vt 0.767753 -3.320588
vt 0.767753 -3.170603
vt 0.767753 -2.935689
vt 0.767753 -2.820588
vt 0.767753 -2.820588
vt 0.767753 -2.970573
vt 0.767753 -3.205487
vt 0.601761 0.125000
vt 0.597098 0.004716
vt 0.625000 0.153381
vt 0.657586 0.125000
vt 0.625000 0.615538
vt 0.625000 0.587504
vt 0.625000 0.153775
vt 0.537434 0.470511
vt 0.537434 0.528381
vt 0.537434 0.587504
vt 0.530910 0.625000
vt 0.523767 0.740211
vt 0.528437 0.780044
vt 0.530848 0.004716
vt 0.528322 0.959165
vt 0.534801 0.013413
vt 0.530475 0.125000
vt 0.537434 0.153381
vt 0.537434 0.229343
vt 0.537434 0.212504
vt 0.537434 0.288960
vt 0.502525 0.004716
vt 0.500000 0.959165
vt 0.500000 0.236542
vt 0.500000 0.212504
vt 0.500000 0.470511
vt 0.494769 0.740232
vt 0.500000 0.528381
vt 0.500000 0.587504
vt 0.500000 0.625000
vt 0.500000 0.780044
vt 0.505844 0.013385
vt 0.500000 0.125000
vt 0.500000 0.153381
vt 0.500000 0.288960
vt 0.625000 0.951585
vt 0.594573 0.959165
vt 0.594956 0.780044
vt 0.625000 0.777101
vt 0.602974 0.013480
vt 0.663273 0.011366
vt 0.657586 0.125000
vt 0.601761 0.125000
vt 0.767753 -3.207066
vt 0.767753 -3.320588
vt 0.767753 -3.205487
vt 0.767753 -2.820588
vt 0.767753 -2.820588
vt 0.767753 -2.967305
vt 0.767753 -2.820588
vt 0.767753 -2.934110
vt 0.767753 -2.820588
vt 0.767753 -2.820588
vt 0.767753 -2.935689
vt 0.767753 -3.320588
vt 0.767753 -3.170603
vt 0.767753 -3.320588
vt 0.603215 0.625000
vt 0.625000 0.630254
vt 0.625000 0.742858
vt 0.592061 0.740162
vt 0.523767 0.740211
vt 0.528437 0.780044
vt 0.500000 0.780044
vt 0.494769 0.740232
vt 0.658809 0.157539
vt 0.654899 0.125000
vt 0.836889 0.125000
vt 0.839368 0.159294
vt 0.625000 0.153775
vt 0.660632 0.215706
vt 0.625000 0.213321
vt 0.875000 0.161679
vt 0.875000 0.221225
vt 0.841191 0.217461
vt 0.845101 0.250000
vt 0.663111 0.250000
vt 0.842202 0.010987
vt 0.838794 0.125000
vt 0.767753 -3.320588
vt 0.767753 -3.173871
vt 0.767753 -2.970573
vt 0.597098 0.004716
vt 0.625000 0.153381
vt 0.625000 0.615538
vt 0.625000 0.587504
vt 0.537434 0.528381
vt 0.537434 0.470511
vt 0.625000 0.470511
vt 0.625000 0.528381
vt 0.537434 0.587504
vt 0.530910 0.625000
vt 0.528322 0.959165
vt 0.534801 0.013413
vt 0.530848 0.004716
vt 0.530475 0.125000
vt 0.537434 0.153381
vt 0.537434 0.212504
vt 0.625000 0.212504
vt 0.537434 0.288960
vt 0.537434 0.229343
vt 0.625000 0.288960
vt 0.505844 0.013385
vt 0.502525 0.004716
vt 0.500000 0.288960
vt 0.500000 0.236542
vt 0.500000 0.528381
vt 0.500000 0.470511
vt 0.500000 0.125000
vt 0.500000 0.587504
vt 0.500000 0.625000
vt 0.500000 0.959165
vt 0.500000 0.153381
vt 0.500000 0.212504
vn 0.944112 -0.277269 0.178257
vn 0.276714 -0.957480 0.081615
vn 0.278795 -0.953060 -0.118108
vn 0.929591 -0.329240 -0.165718
vn 0.359307 0.107036 0.927061
vn 0.951914 -0.289817 0.099323
vn 0.366870 0.014638 0.930157
vn 0.043482 -0.430896 0.901353
vn 0.455698 -0.889696 -0.027926
vn 0.272398 -0.562456 0.780668
vn 0.183742 0.928270 0.323347
vn 0.127470 0.129826 0.983309
vn 0.306235 -0.046066 0.950841
vn 0.573444 0.773965 0.268589
vn 0.317280 0.702033 -0.637560
vn 0.201338 0.979037 0.030822
vn 0.588581 0.806190 0.060242
vn 0.640093 0.515662 -0.569539
vn 0.897794 -0.324190 -0.298106
vn 0.335505 0.260620 -0.905270
vn 0.519007 -0.816353 -0.253378
vn 0.322504 -0.170093 -0.931160
vn 0.328797 -0.313603 -0.890812
vn 0.266226 -0.318657 -0.909715
vn 0.028091 -0.986689 -0.160175
vn -0.000000 -0.982579 -0.185846
vn 0.000000 -0.349262 -0.937025
vn 0.886051 -0.462237 0.035360
vn 0.865620 -0.448038 -0.223527
vn 0.953163 0.217534 0.210140
vn 0.597723 0.085620 -0.797118
vn 0.953366 0.291215 -0.079284
vn 0.254921 0.747338 -0.613597
vn 0.092068 0.994537 0.049197
vn 0.323303 0.276404 -0.905028
vn 0.312200 -0.163084 -0.935914
vn 0.071138 -0.986699 0.146167
vn 0.158036 0.162480 0.973974
vn 0.125312 0.132185 0.983272
vn 0.042028 -0.388341 0.920557
vn 0.076146 0.140274 0.987180
vn 0.077031 0.940560 0.330778
vn -0.000000 0.207319 0.978273
vn 0.000000 -0.994064 0.108801
vn -0.000000 0.951714 0.306987
vn -0.000000 0.138741 0.990329
vn -0.000000 0.733222 -0.679990
vn -0.000000 0.999941 0.010876
vn -0.000000 0.163637 0.986521
vn -0.000000 0.295968 -0.955198
vn 0.000000 -0.167228 -0.985918
vn -0.000000 -0.385577 0.922676
vn -0.944112 -0.277269 0.178257
vn -0.929591 -0.329240 -0.165718
vn -0.278795 -0.953060 -0.118108
vn -0.276714 -0.957480 0.081615
vn -0.359307 0.107036 0.927061
vn -0.366870 0.014638 0.930157
vn -0.951914 -0.289817 0.099323
vn -0.043482 -0.430896 0.901353
vn -0.272398 -0.562456 0.780668
vn -0.455698 -0.889696 -0.027926
vn -0.183742 0.928270 0.323347
vn -0.573444 0.773965 0.268589
vn -0.306235 -0.046066 0.950841
vn -0.127470 0.129826 0.983309
vn -0.317280 0.702033 -0.637560
vn -0.640093 0.515662 -0.569539
vn -0.588581 0.806190 0.060242
vn -0.201338 0.979037 0.030822
vn -0.897794 -0.324190 -0.298106
vn -0.519006 -0.816353 -0.253378
vn -0.335505 0.260620 -0.905270
vn -0.322504 -0.170093 -0.931161
vn -0.328797 -0.313603 -0.890812
vn -0.266226 -0.318657 -0.909715
vn -0.028091 -0.986689 -0.160176
vn -0.886051 -0.462237 0.035360
vn -0.865620 -0.448038 -0.223527
vn -0.953163 0.217534 0.210140
vn -0.953366 0.291216 -0.079284
vn -0.597723 0.085620 -0.797118
vn -0.254921 0.747338 -0.613597
vn -0.092068 0.994537 0.049197
vn -0.323303 0.276404 -0.905028
vn -0.312200 -0.163084 -0.935914
vn -0.071138 -0.986699 0.146167
vn -0.158036 0.162480 0.973974
vn -0.125312 0.132185 0.983272
vn -0.042028 -0.388341 0.920557
vn -0.076146 0.140274 0.987180
vn -0.077031 0.940560 0.330778
s 1
g Torso
usemtl initialShadingGroup
f 1/1/1 3/2/2 14/19/3 16/3/4
f 2/29/5 1/4/1 6/48/6 5/45/7
f 4/5/8 17/7/9 19/44/10
f 7/9/11 8/10/12 26/11/13 28/42/14
f 9/13/15 10/41/16 23/14/17 25/40/18
f 11/15/19 13/39/20 22/38/21
f 12/32/22 11/17/19 16/18/4 15/33/23
f 33/56/24 34/57/25 48/75/26 44/71/27
f 18/22/28 17/20/9 22/21/21 21/36/29
f 19/51/10 18/22/28 27/28/30 26/23/13
f 21/36/29 20/24/31 25/25/18 24/37/32
f 24/37/32 23/26/17 28/27/14 27/28/30
f 1/4/1 16/34/4 11/35/19 6/48/6
f 18/22/28 21/36/29 24/37/32 27/28/30
f 17/7/9 6/6/6 11/15/19 22/38/21
f 20/16/31 13/39/20 9/13/15 25/40/18
f 10/41/16 7/9/11 28/42/14 23/14/17
f 8/43/12 4/5/8 19/44/10 26/11/13
f 1/4/1 2/29/5 3/46/2
f 4/47/8 5/45/7 6/48/6
f 11/49/19 12/32/22 13/50/20
f 14/19/3 15/33/23 16/18/4
f 17/20/9 18/22/28 19/51/10
f 20/24/31 21/36/29 22/21/21
f 23/26/17 24/37/32 25/25/18
f 26/23/13 27/28/30 28/27/14
f 4/5/8 6/6/6 17/7/9
f 22/38/21 13/39/20 20/16/31
f 30/53/33 29/52/34 10/12/16 9/31/15
f 31/54/35 30/53/33 9/31/15 13/50/20
f 32/55/36 31/54/35 13/50/20 12/32/22
f 33/56/24 32/55/36 12/32/22 15/33/23
f 15/33/23 14/19/3 34/57/25 33/56/24
f 35/59/37 34/57/25 14/19/3 3/2/2
f 36/60/38 35/58/37 3/46/2 2/29/5
f 37/61/39 36/60/38 2/29/5 5/45/7
f 38/62/40 37/61/39 5/45/7 4/47/8
f 39/64/41 38/62/40 4/47/8 8/8/12
f 40/65/42 39/63/41 8/8/12 7/30/11
f 29/52/34 40/65/42 7/30/11 10/12/16
f 49/76/43 41/66/44 35/58/37 36/60/38
f 52/79/45 42/68/46 39/63/41 40/65/42
f 45/72/47 43/70/48 29/52/34 30/53/33
f 50/77/49 49/76/43 36/60/38 37/61/39
f 43/70/48 52/79/45 40/65/42 29/52/34
f 46/73/50 45/72/47 30/53/33 31/54/35
f 44/71/27 47/74/51 32/55/36 33/56/24
f 41/67/44 48/75/26 34/57/25 35/59/37
f 51/78/52 50/77/49 37/61/39 38/62/40
f 42/69/46 51/78/52 38/62/40 39/64/41
f 47/74/51 46/73/50 31/54/35 32/55/36
f 53/80/53 68/83/54 66/82/55 55/81/56
f 54/84/57 57/87/58 58/86/59 53/85/53
f 56/88/60 71/90/61 69/89/62
f 59/91/63 80/94/64 78/93/65 60/92/66
f 61/95/67 77/98/68 75/97/69 62/96/70
f 63/99/71 74/101/72 65/100/73
f 64/102/74 67/105/75 68/104/54 63/103/71
f 85/106/76 44/109/27 48/108/26 86/107/77
f 70/110/78 73/113/79 74/112/72 69/111/62
f 71/114/61 78/116/65 79/115/80 70/110/78
f 73/113/79 76/119/81 77/118/68 72/117/82
f 76/119/81 79/115/80 80/121/64 75/120/69
f 53/85/53 58/86/59 63/123/71 68/122/54
f 70/110/78 79/115/80 76/119/81 73/113/79
f 69/89/62 74/101/72 63/99/71 58/124/59
f 72/125/82 77/98/68 61/95/67 65/100/73
f 62/96/70 75/97/69 80/94/64 59/91/63
f 60/126/66 78/93/65 71/90/61 56/88/60
f 53/85/53 55/127/56 54/84/57
f 56/128/60 58/86/59 57/87/58
f 63/129/71 65/130/73 64/102/74
f 66/82/55 68/104/54 67/105/75
f 69/111/62 71/114/61 70/110/78
f 72/117/82 74/112/72 73/113/79
f 75/120/69 77/118/68 76/119/81
f 78/116/65 80/121/64 79/115/80
f 56/88/60 69/89/62 58/124/59
f 74/101/72 72/125/82 65/100/73
f 82/131/83 61/134/67 62/133/70 81/132/84
f 83/135/85 65/130/73 61/134/67 82/131/83
f 84/136/86 64/102/74 65/130/73 83/135/85
f 85/106/76 67/105/75 64/102/74 84/136/86
f 67/105/75 85/106/76 86/107/77 66/82/55
f 87/137/87 55/81/56 66/82/55 86/107/77
f 88/138/88 54/84/57 55/127/56 87/139/87
f 89/140/89 57/87/58 54/84/57 88/138/88
f 90/141/90 56/128/60 57/87/58 89/140/89
f 91/142/91 60/143/66 56/128/60 90/141/90
f 92/144/92 59/146/63 60/143/66 91/145/91
f 81/132/84 62/133/70 59/146/63 92/144/92
f 49/147/43 88/138/88 87/139/87 41/148/44
f 52/149/45 92/144/92 91/145/91 42/150/46
f 45/151/47 82/131/83 81/132/84 43/152/48
f 50/153/49 89/140/89 88/138/88 49/147/43
f 43/152/48 81/132/84 92/144/92 52/149/45
f 46/154/50 83/135/85 82/131/83 45/151/47
f 44/109/27 85/106/76 84/136/86 47/155/51
f 41/156/44 87/137/87 86/107/77 48/108/26
f 51/157/52 90/141/90 89/140/89 50/153/49
f 42/158/46 91/142/91 90/141/90 51/157/52
f 47/155/51 84/136/86 83/135/85 46/154/50
