# This file uses centimeters as units for non-parametric coordinates.

mtllib GoblinFoot.mtl
g default
v -0.999727 -4.571805 0.646945
v -0.478671 -4.571805 0.746980
v -0.883755 -4.222850 0.027248
v -0.498954 -4.222850 0.027248
v -0.754053 -3.754405 0.027248
v -0.542484 -3.754405 0.027248
v -0.754053 -3.754405 -0.500000
v -0.542484 -3.754405 -0.500000
v -0.823240 -4.222850 -0.500000
v -0.498954 -4.222850 -0.500000
v -0.783804 -4.572024 -0.500000
v -0.537779 -4.572024 -0.500000
v -0.806066 -4.991512 -0.500000
v -0.534690 -4.991512 -0.500000
v -0.454296 -4.991512 0.750691
v -1.021755 -4.991512 0.650656
v -0.389040 -4.566875 0.663637
v -0.485049 -4.566655 -0.409234
v -0.428059 -4.217480 -0.409234
v -0.401341 -4.217480 -0.034560
v -0.444871 -3.749036 -0.409234
v -0.444871 -3.749036 -0.034560
v -0.356683 -4.986142 0.659926
v -0.477599 -4.986142 -0.409234
v -0.852033 -4.572024 -0.421942
v -1.115704 -4.571805 0.575270
v -1.010061 -4.222850 -0.039331
v -0.922827 -4.222850 -0.421942
v -0.880359 -3.754405 -0.039331
v -0.880359 -3.754405 -0.421942
v -0.879939 -4.991512 -0.421942
v -1.148061 -4.991512 0.572598
v -0.390304 -4.988827 0.049070
v -0.403521 -4.566736 -0.050053
v -0.401341 -4.217480 -0.270900
v -0.444871 -3.749036 -0.270900
v -0.542484 -3.754405 -0.305334
v -0.754053 -3.754405 -0.305334
v -0.880359 -3.754405 -0.280678
v -1.010061 -4.222850 -0.280678
v -1.019441 -4.571944 -0.053761
v -1.054283 -4.988827 -0.010146
v -0.932994 -4.988827 0.000671
v -0.550658 -4.988827 0.034769
v -0.402070 -4.988827 -0.040859
v -0.420748 -4.566718 -0.131310
v -0.401341 -4.217480 -0.302195
v -0.444871 -3.749036 -0.302195
v -0.542484 -3.754405 -0.349373
v -0.754053 -3.754405 -0.349373
v -0.880359 -3.754405 -0.312636
v -0.989823 -4.222850 -0.349035
v -1.018457 -4.571962 -0.137054
v -1.018847 -4.988827 -0.095865
v -0.906619 -4.988827 -0.085856
v -0.542794 -4.988827 -0.053410
v -1.018452 -4.950087 -0.094452
v -1.051374 -4.950085 -0.008997
v -1.145054 -4.952507 0.572846
v -1.019708 -4.952507 0.650311
v -0.456562 -4.952507 0.750347
v -0.359690 -4.947178 0.660270
v -0.392118 -4.949600 0.050143
v -0.403714 -4.949599 -0.039092
v -0.478291 -4.947157 -0.409234
v -0.534977 -4.952528 -0.500000
v -0.803997 -4.952528 -0.500000
v -0.877345 -4.952528 -0.421942
vt 0.375000 0.000000
vt 0.625000 0.000000
vt 0.375000 0.125000
vt 0.625000 0.125000
vt 0.375000 0.250000
vt 0.625000 0.250000
vt 0.375000 0.500000
vt 0.625000 0.500000
vt 0.375000 0.625000
vt 0.625000 0.625000
vt 0.375000 0.750000
vt 0.625000 0.750000
vt 0.375000 1.000000
vt 0.625000 1.000000
vt 0.875000 0.000000
vt 0.875000 0.125000
vt 0.875000 0.250000
vt 0.125000 0.000000
vt 0.125000 0.125000
vt 0.125000 0.250000
vt 0.375000 0.750000
vt 0.625000 0.750000
vt -1.220546 -4.722850
vt -0.220546 -4.722850
vt -0.220546 -4.722850
vt -1.220546 -4.722850
vt -0.220546 -4.722850
vt -0.220546 -4.722850
vt -1.220546 -4.722850
vt -1.220546 -4.722850
vt 0.625000 0.000000
vt 0.625000 0.125000
vt 0.625000 0.250000
vt -0.220546 -4.722850
vt -0.220546 -4.722850
vt -0.220546 -4.722850
vt -0.220546 -4.722850
vt -0.298790 -4.722850
vt -0.343448 -4.222850
vt -0.343448 -4.222850
vt -0.298790 -4.722850
vt -0.343448 -4.222850
vt -0.298790 -4.722850
vt -0.298790 -4.722850
vt -0.343448 -4.222850
vt -0.386978 -3.722850
vt -0.386978 -3.722850
vt -0.386978 -3.722850
vt -0.386978 -3.722850
vt -0.298790 -5.043291
vt -0.298790 -5.043291
vt -0.298790 -5.043291
vt -0.298790 -5.043291
vt 0.375000 0.000000
vt 0.375000 0.125000
vt 0.375000 0.250000
vt -1.220546 -4.722850
vt -1.220546 -4.722850
vt -1.220546 -4.722850
vt -1.220546 -4.722850
vt -1.142302 -4.722850
vt -1.004301 -4.222850
vt -1.004301 -4.222850
vt -1.142302 -4.722850
vt -1.004301 -4.222850
vt -1.142302 -4.722850
vt -1.142302 -4.722850
vt -1.004301 -4.222850
vt -0.874599 -3.722850
vt -0.874599 -3.722850
vt -0.874599 -3.722850
vt -0.874599 -3.722850
vt -1.142302 -5.043291
vt -1.142302 -5.043291
vt -1.142302 -5.043291
vt -1.142302 -5.043291
vt -0.220546 -4.722850
vt -0.298790 -5.043291
vt 0.782697 0.000000
vt -0.220546 -4.722850
vt 0.782697 0.125000
vt 0.782697 0.250000
vt -0.386978 -3.722850
vt 0.625000 0.407697
vt -0.386978 -3.722850
vt 0.375000 0.407697
vt -0.874599 -3.722850
vt 0.217303 0.250000
vt -0.874599 -3.722850
vt 0.217303 0.125000
vt 0.217303 0.000000
vt -1.220546 -4.722850
vt -1.220546 -4.722850
vt -1.142302 -5.043291
vt 0.375000 0.842303
vt -1.142302 -5.043291
vt 0.625000 0.842303
vt -0.298790 -5.043291
vt -0.220546 -4.722850
vt -0.298791 -5.043291
vt 0.803579 0.000000
vt -0.220546 -4.722850
vt 0.803579 0.125000
vt 0.803579 0.250000
vt -0.386978 -3.722850
vt 0.625000 0.428579
vt -0.386978 -3.722850
vt 0.375000 0.428579
vt -0.874599 -3.722850
vt 0.196421 0.250000
vt -0.874599 -3.722850
vt 0.196421 0.125000
vt 0.196421 0.000000
vt -1.220546 -4.722850
vt -1.220546 -4.722850
vt -1.142302 -5.043291
vt 0.375000 0.821421
vt -1.142302 -5.043291
vt 0.625000 0.821421
vt -0.298790 -5.043291
vt -1.220546 -4.722850
vt -1.220546 -4.722850
vt -1.220546 -4.722850
vt -1.142302 -5.013512
vt -1.220546 -4.722850
vt -1.142302 -5.013512
vt -0.220546 -4.722850
vt -0.298790 -5.013512
vt -0.220546 -4.722850
vt -0.298790 -5.013512
vt -0.220546 -4.722850
vt -0.220546 -4.722850
vt -0.220546 -4.722850
vt -0.298790 -5.013512
vt -0.220546 -4.722850
vt -0.298790 -5.013512
vt -1.220546 -4.722850
vt -1.142302 -5.013512
vt -1.220546 -4.722850
vt -1.142302 -5.013512
vn -0.174158 0.631299 0.755732
vn -0.017757 0.606795 0.794660
vn 0.072605 0.723266 0.686742
vn -0.137064 0.729299 0.670325
vn 0.145437 0.013515 0.989275
vn -0.122686 0.033969 0.991864
vn 0.000000 1.000000 0.000000
vn -0.011107 0.999938 0.000000
vn -0.013631 0.999907 0.000000
vn 0.000000 1.000000 0.000000
vn -0.178119 0.021228 -0.983780
vn 0.236167 0.015211 -0.971594
vn 0.270427 -0.006720 -0.962717
vn -0.225486 0.000441 -0.974246
vn 0.255517 -0.014151 -0.966701
vn -0.205302 -0.008819 -0.978659
vn 0.000732 -0.999992 -0.003973
vn 0.003892 -0.999986 -0.003604
vn 0.003912 -0.999986 -0.003602
vn 0.000696 -0.999992 -0.003965
vn 0.940071 0.284329 0.188212
vn 0.999101 0.015131 -0.039589
vn 0.999285 0.030702 -0.022077
vn 0.981577 0.128420 0.141474
vn 0.995710 0.092526 0.000000
vn 0.944734 0.087790 0.315864
vn -0.989433 0.045955 -0.137516
vn -0.930714 0.329740 0.158250
vn -0.954800 0.265948 0.132770
vn -0.986788 0.143916 -0.074410
vn -0.881860 0.244167 0.403367
vn -0.963786 0.264569 -0.033455
vn 0.273637 0.003438 -0.961827
vn -0.238324 0.014251 -0.971081
vn 0.994520 0.051802 0.090806
vn 0.997845 0.045473 -0.047308
vn -0.256910 0.014068 0.966333
vn -0.016330 0.016515 0.999730
vn -0.985061 0.066417 -0.158881
vn -0.996837 0.071787 0.034086
vn 0.917820 -0.045293 -0.394405
vn 0.947631 -0.053933 -0.314781
vn 0.895276 0.057662 -0.441766
vn -0.054929 0.998490 0.000000
vn -0.054929 0.998490 0.000000
vn 0.020226 -0.999794 -0.001981
vn 0.020226 -0.999793 -0.001981
vn 0.958048 0.008846 -0.286472
vn -0.830688 -0.062087 -0.553266
vn -0.779831 -0.042784 -0.624527
vn 0.000000 1.000000 0.000000
vn 0.000000 1.000000 0.000000
vn -0.746577 0.111496 -0.655890
vn -0.866024 0.016550 -0.499729
vn 0.001485 -0.999990 -0.004136
vn 0.001485 -0.999990 -0.004136
vn 0.978315 -0.042038 -0.202812
vn 0.980122 0.005264 -0.198326
vn 0.982825 -0.068394 -0.171398
vn 0.992903 0.070356 -0.095886
vn -0.017239 0.999851 0.000000
vn -0.054929 0.998490 0.000000
vn 0.000000 1.000000 0.000000
vn 0.000000 1.000000 0.000000
vn -0.907286 -0.045490 -0.418048
vn -0.937901 0.196169 -0.286111
vn -0.916044 -0.043481 -0.398713
vn -0.918479 0.010530 -0.395329
vn -0.009420 0.999956 0.000000
vn -0.054929 0.998490 0.000000
vn 0.000000 1.000000 0.000000
vn 0.000000 1.000000 0.000000
vn -0.000118 -0.999980 0.006320
vn 0.000384 -0.999978 0.006626
vn 0.003009 -0.999962 0.008225
vn 0.003009 -0.999962 0.008225
vn 0.002407 -0.999983 0.005387
vn 0.006418 -0.999971 0.004192
vn 0.028362 -0.999595 -0.002347
vn 0.028362 -0.999595 -0.002347
vn -0.984356 0.077750 -0.158106
vn -0.996106 0.077290 0.042422
vn -0.252608 0.014153 0.967465
vn -0.009575 0.016581 0.999817
vn 0.994087 0.062896 0.088518
vn 0.996578 0.062426 -0.054172
vn 0.979450 0.033752 -0.198842
vn 0.960588 0.028900 -0.276469
vn 0.262227 0.003294 -0.965001
vn -0.230981 0.013811 -0.972860
vn -0.884591 0.043148 -0.464367
vn -0.918241 0.042463 -0.393739
vn 0.000755 -1.000000 0.000093
vn 0.000755 -1.000000 0.000093
vn 0.000755 -1.000000 0.000093
vn 0.000755 -1.000000 0.000093
vn -0.089272 -0.041840 0.995128
vn -0.089272 -0.041840 0.995128
vn -0.089272 -0.041840 0.995128
vn -0.089272 -0.041840 0.995128
vn -0.088726 -0.048537 0.994873
vn -0.088726 -0.048537 0.994873
vn -0.088726 -0.048537 0.994873
vn -0.088771 -0.035406 0.995423
vn -0.088771 -0.035406 0.995423
vn -0.088771 -0.035406 0.995423
vn 0.089113 0.026977 -0.995656
vn 0.089113 0.026977 -0.995656
vn 0.089113 0.026977 -0.995656
vn 0.089113 0.026977 -0.995656
vn 0.088804 0.022862 -0.995787
vn 0.088804 0.022862 -0.995787
vn 0.088804 0.022862 -0.995787
vn 0.088786 0.031354 -0.995557
vn 0.088786 0.031354 -0.995557
vn 0.088786 0.031354 -0.995557
s 1
g Foot1
usemtl initialShadingGroup
f 1/1/1 2/2/2 4/4/3 3/3/4
f 3/3/4 4/4/3 6/6/5 5/5/6
s 2
f 5/5/7 6/6/8 37/84/9 38/86/10
s 1
f 7/7/11 8/8/12 10/10/13 9/9/14
f 9/9/14 10/10/13 12/12/15 11/11/16
s 4
f 43/95/17 44/97/18 15/14/19 16/13/20
s 1
f 17/31/21 34/79/22 35/81/23 20/32/24
f 20/32/24 35/81/23 36/82/25 22/33/26
f 41/91/27 26/54/28 27/55/29 40/90/30
f 40/90/30 27/55/29 29/56/31 39/88/32
f 11/23/16 12/24/15 66/135/33 67/137/34
f 34/80/22 17/35/21 62/129/35 63/131/36
f 2/27/2 1/29/1 60/125/37 61/127/38
f 26/57/28 41/92/27 58/122/39 59/123/40
f 12/38/15 10/39/13 19/40/41 18/41/42
f 4/42/3 2/43/2 17/44/21 20/45/24
f 10/39/13 8/46/12 21/47/43 19/40/41
s 2
f 37/85/9 6/48/8 22/49/44 36/83/45
s 1
f 6/48/5 4/42/3 20/45/24 22/49/26
f 2/43/2 61/128/38 62/130/35 17/44/21
s 4
f 15/50/19 44/98/18 33/78/46 23/51/47
s 1
f 66/136/33 12/38/15 18/41/42 65/134/48
f 1/61/1 3/62/4 27/63/29 26/64/28
f 9/65/14 11/66/16 25/67/49 28/68/50
f 3/62/4 5/69/6 29/70/31 27/63/29
s 2
f 5/69/7 38/87/10 39/89/51 29/70/52
s 1
f 7/71/11 9/65/14 28/68/50 30/72/53
f 11/66/16 67/138/34 68/140/54 25/67/49
s 4
f 43/96/17 16/75/20 32/76/55 42/94/56
s 1
f 60/126/37 1/61/1 26/64/28 59/124/40
f 46/102/57 34/80/22 63/131/36 64/132/58
f 35/81/23 34/79/22 46/101/57 47/103/59
f 36/82/25 35/81/23 47/103/59 48/104/60
s 2
f 49/107/61 37/85/9 36/83/45 48/105/62
f 38/86/10 37/84/9 49/106/61 50/108/63
f 39/89/51 38/87/10 50/109/63 51/111/64
s 1
f 52/112/65 40/90/30 39/88/32 51/110/66
f 53/113/67 41/91/27 40/90/30 52/112/65
f 58/122/39 41/92/27 53/114/67 57/121/68
f 18/34/42 46/102/57 64/132/58 65/133/48
f 47/103/59 46/101/57 18/15/42 19/16/41
f 48/104/60 47/103/59 19/16/41 21/17/43
s 2
f 8/46/69 49/107/61 48/105/62 21/47/70
f 50/108/63 49/106/61 8/8/69 7/7/71
f 51/111/64 50/109/63 7/71/71 30/72/72
s 1
f 28/19/50 52/112/65 51/110/66 30/20/53
f 25/18/49 53/113/67 52/112/65 28/19/50
f 68/139/54 57/121/68 53/114/67 25/58/49
s 7
f 13/73/73 55/118/74 54/116/75 31/74/76
f 13/21/73 14/22/77 56/119/78 55/117/74
f 45/100/79 56/120/78 14/52/77 24/53/80
s 1
f 59/123/40 58/122/39 42/93/81 32/60/82
f 16/75/83 60/126/37 59/124/40 32/76/82
f 61/127/38 60/125/37 16/30/83 15/28/84
f 62/130/35 61/128/38 15/50/84 23/51/85
f 63/131/36 62/129/35 23/36/85 33/77/86
f 65/133/48 64/132/58 45/99/87 24/37/88
f 14/52/89 66/136/33 65/134/48 24/53/88
f 67/137/34 66/135/33 14/25/89 13/26/90
f 68/140/54 67/138/34 13/73/90 31/74/91
f 54/115/92 57/121/68 68/139/54 31/59/91
s off
f 58/122/93 57/121/94 64/132/95 63/131/96
f 55/117/97 56/119/98 64/132/99 57/121/100
f 64/132/101 56/120/102 45/99/103
f 55/117/104 57/121/105 54/116/106
f 44/97/107 43/95/108 58/122/109 63/131/110
f 43/96/111 42/93/112 58/122/113
f 63/131/114 33/78/115 44/97/116
