{
	"asset":{
		"generator":"Khronos glTF Blender I/O v4.5.49",
		"version":"2.0"
	},
	"scene":0,
	"scenes":[
		{
			"name":"Scene",
			"nodes":[
				1
			]
		}
	],
	"nodes":[
		{
			"mesh":0,
			"name":"sparkles",
			"rotation":[
				0,
				-0.399549275636673,
				0,
				0.9167117476463318
			],
			"scale":[
				2.2799999713897705,
				1,
				1
			]
		},
		{
			"children":[
				0
			],
			"name":"TeleportSparkles"
		}
	],
	"materials":[
		{
			"name":"Material_0"
		}
	],
	"meshes":[
		{
			"name":"Mesh_0",
			"primitives":[
				{
					"attributes":{
						"POSITION":0,
						"NORMAL":1,
						"TEXCOORD_0":2,
						"COLOR_0":3
					},
					"indices":4,
					"material":0
				}
			]
		}
	],
	"accessors":[
		{
			"bufferView":0,
			"componentType":5126,
			"count":727,
			"max":[
				0.3378767967224121,
				0.5227693319320679,
				0.8251331448554993
			],
			"min":[
				-0.3400198221206665,
				-0.5433666706085205,
				-0.8936906456947327
			],
			"type":"VEC3"
		},
		{
			"bufferView":1,
			"componentType":5126,
			"count":727,
			"type":"VEC3"
		},
		{
			"bufferView":2,
			"componentType":5126,
			"count":727,
			"type":"VEC2"
		},
		{
			"bufferView":3,
			"componentType":5126,
			"count":727,
			"type":"VEC3"
		},
		{
			"bufferView":4,
			"componentType":5123,
			"count":792,
			"type":"SCALAR"
		}
	],
	"bufferViews":[
		{
			"buffer":0,
			"byteLength":8724,
			"byteOffset":0,
			"target":34962
		},
		{
			"buffer":0,
			"byteLength":8724,
			"byteOffset":8724,
			"target":34962
		},
		{
			"buffer":0,
			"byteLength":5816,
			"byteOffset":17448,
			"target":34962
		},
		{
			"buffer":0,
			"byteLength":8724,
			"byteOffset":23264,
			"target":34962
		},
		{
			"buffer":0,
			"byteLength":1584,
			"byteOffset":31988,
			"target":34963
		}
	],
	"buffers":[
		{
			"byteLength":33572,
			"uri":"sparkles.bin"
		}
	]
}
